<?xml version="1.0" encoding="UTF-8"?>
<svg id="Layer_2" data-name="Layer 2" xmlns="http://www.w3.org/2000/svg" viewBox="0 0 196.28 196.28">
  <defs>
    <style>
      .cls-1 {
        fill: #231f20;
        stroke-width: 0px;
      }
    </style>
  </defs>
  <g id="Layer_1-2" data-name="Layer 1">
    <path class="cls-1" d="M156.92,0H39.36C17.62,0,0,17.62,0,39.36v117.56c0,21.74,17.62,39.36,39.36,39.36h117.56c21.74,0,39.36-17.62,39.36-39.36V39.36c0-21.74-17.62-39.36-39.36-39.36ZM149.87,49.66l.81,2.94c.32,1.16.51,3.4-1.88,5.34-4.95,4.96-9.9,9.91-14.85,14.86-10.43,10.43-20.86,20.86-31.26,31.31-.45.46-1.05.99-1.78,1.41-.74.42-1.63.72-2.67.72-2.33,0-3.9-1.57-4.41-2.09-11.75-11.81-23.52-23.58-35.3-35.35l-10.89-10.9c-.28-.27-.53-.56-.88-.96l-.55-.61-5.97-6.67h109.63ZM38.76,134.47l-.07.09c-.25.31-.69.88-1.37,1.37s-1.6.91-2.79.91c-.56,0-1.11-.1-1.64-.29-1.37-.49-3.06-1.73-3.31-4.85v-.14c-.16-.93-.15-1.79-.14-2.49v-.43s0-42.18,0-42.18c0-8.29,0-16.58.01-24.87,0-.18-.01-.37-.02-.56-.06-1.41-.23-5.16,3.21-6.71.63-.29,1.3-.44,1.99-.44,2.57,0,4.01,1.88,4.78,2.89.11.15.21.29.31.39,4.53,4.52,9.06,9.04,13.58,13.56,6.69,6.68,13.37,13.37,20.09,20.02.95.94,2.21,2.44,2.21,4.59,0,2.39-1.61,3.99-2.22,4.59-7.77,7.7-15.64,15.57-23.25,23.19-3.79,3.79-7.58,7.57-11.37,11.36ZM46.13,140.94l-.46-3.48c-.25-1.9.47-3.54,2.14-4.88l.04-.03c3.14-3.15,6.29-6.3,9.44-9.44,6.44-6.44,13.11-13.11,19.62-19.69.93-.95,2.43-2.22,4.59-2.22,2.43,0,4.03,1.66,4.63,2.28,3.16,3.28,6.46,6.56,9.65,9.73.82.81,1.64,1.63,2.46,2.44l.97-.96c3.87-3.87,7.74-7.73,11.59-11.61.54-.55,1.99-2.01,4.22-2.01,1.47,0,2.82.61,4.03,1.83,7.07,7.11,14.16,14.2,21.25,21.28l9.09,9.09c.48.49.76.97.94,1.29.04.06.09.15.15.24l3.91,6.14H46.13ZM163.77,136.38c-.61.26-1.24.39-1.9.39-2.55,0-4-1.88-4.78-2.89-.12-.15-.23-.3-.33-.41-4.19-4.17-8.37-8.35-12.55-12.53-6.86-6.86-13.96-13.96-20.98-20.89-.99-.98-2.3-2.53-2.3-4.73,0-2.17,1.25-3.69,2.34-4.77,7.58-7.5,15.24-15.16,22.66-22.58,3.89-3.89,7.79-7.78,11.68-11.67l.08-.11c.5-.65,1.82-2.38,4.26-2.38.62,0,1.24.12,1.83.36,1.94.78,3.01,2.46,3.18,5,.01.08.01.16.01.21.12.83.11,1.59.1,2.2v.45s-.01,41.36-.01,41.36c0,8.57.01,17.14,0,25.71,0,.17.01.36.02.55.06,1.43.23,5.22-3.31,6.73Z"/>
  </g>
</svg>