<?xml version="1.0" encoding="UTF-8"?>
<svg id="Layer_2" data-name="Layer 2" xmlns="http://www.w3.org/2000/svg" viewBox="0 0 196.28 196.28">
  <defs>
    <style>
      .cls-1 {
        fill: #231f20;
        stroke-width: 0px;
      }
    </style>
  </defs>
  <g id="Layer_1-2" data-name="Layer 1">
    <path class="cls-1" d="M196.28,39.36v117.56c0,6.5-1.58,12.63-4.37,18.03-6.54,12.67-19.76,21.33-34.99,21.33h-32.7c-.03-.36-.07-.72-.07-1.08-.01-19.72,0-39.43-.04-59.14,0-1.57.48-2.1,2.07-2.08,7.32.07,14.64-.04,21.96.07,1.81.03,2.39-.67,2.65-2.3,1.42-8.81,2.91-17.61,4.38-26.41.35-2.07.27-2.19-1.79-2.19h-26.8c-2.42-.01-2.44-.01-2.44-2.34v-16.25c0-2.77,0-2.78,2.7-2.78,8.93,0,17.87-.02,26.8.02,1.34.01,2-.33,1.99-1.84-.04-9.1-.03-18.21-.01-27.32.01-1.26-.47-1.75-1.73-1.73-10.72.18-21.45-.4-32.15.31-8.89.58-16.05,4.64-21.64,11.49-5.08,6.24-6.88,13.55-6.83,21.45.04,5.65-.04,11.3.04,16.95.02,1.58-.5,2.09-2.08,2.07-5.47-.08-10.95-.04-16.43-.03-2.21,0-2.27.06-2.27,2.2v26.46c0,2.13.07,2.19,2.29,2.19,5.3.01,10.6,0,15.9.01,2.55,0,2.56.01,2.56,2.57,0,19.36,0,38.73-.01,58.1,0,.53-.05,1.07-.08,1.6h-53.83c-1.94,0-3.85-.14-5.72-.41C14.61,193.1,0,176.72,0,156.92V39.36C0,17.62,17.62,0,39.36,0h117.56c21.73,0,39.36,17.62,39.36,39.36Z"/>
  </g>
</svg>