<?xml version="1.0" encoding="UTF-8"?>
<svg id="Layer_2" data-name="Layer 2" xmlns="http://www.w3.org/2000/svg" viewBox="0 0 196.28 196.28">
  <defs>
    <style>
      .cls-1 {
        fill: #231f20;
        stroke-width: 0px;
      }
    </style>
  </defs>
  <g id="Layer_1-2" data-name="Layer 1">
    <path class="cls-1" d="M99.67,79.69c-10.37-.01-18.44,8.07-18.43,18.45,0,10.22,8.13,18.28,18.4,18.28,10.24-.01,18.32-8.09,18.32-18.35.01-10.27-8.05-18.36-18.29-18.38ZM99.67,79.69c-10.37-.01-18.44,8.07-18.43,18.45,0,10.22,8.13,18.28,18.4,18.28,10.24-.01,18.32-8.09,18.32-18.35.01-10.27-8.05-18.36-18.29-18.38ZM156.92,0H39.36C17.62,0,0,17.62,0,39.36v117.56c0,21.74,17.62,39.36,39.36,39.36h117.56c21.74,0,39.36-17.62,39.36-39.36V39.36c0-21.74-17.62-39.36-39.36-39.36ZM166.59,128.15c-.18,12.94-5.46,23.33-16.19,30.74-6.12,4.22-13.04,6.12-20.41,6.15-20.23.08-40.46.11-60.69.01-18.32-.09-33.01-12.57-36.17-30.58-.37-2.11-.52-4.29-.52-6.43-.04-19.96-.05-39.92-.01-59.88.03-18.52,12.21-33.15,30.39-36.52,2.1-.39,4.28-.57,6.43-.57,20.09-.05,40.19-.08,60.28-.01,18.31.05,32.88,12.22,36.28,30.18.45,2.38.64,4.81.64,7.24,0,9.91,0,19.82,0,29.74s.11,19.96-.03,29.93ZM130.7,42.88c-20.71-.03-41.41-.03-62.11,0-13.35.02-24.15,10.85-24.17,24.23-.03,20.63-.03,41.27,0,61.91.02,13.36,10.84,24.18,24.19,24.22,10.31.03,20.63,0,30.95,0s20.77.03,31.16,0c13.21-.05,24.04-10.89,24.06-24.14.03-20.7.03-41.41,0-62.11-.02-13.25-10.85-24.09-24.08-24.11ZM99.62,128.24c-16.43.02-30.18-13.72-30.2-30.17-.02-16.43,13.71-30.18,30.17-30.19,16.43-.02,30.17,13.71,30.19,30.16.02,16.43-13.71,30.17-30.16,30.2ZM134.48,69.12c-3.01.06-5.88-2.74-5.94-5.79-.07-3,2.73-5.88,5.78-5.94,3-.06,5.88,2.74,5.94,5.79.07,3.01-2.73,5.88-5.78,5.94ZM99.67,79.69c-10.37-.01-18.44,8.07-18.43,18.45,0,10.22,8.13,18.28,18.4,18.28,10.24-.01,18.32-8.09,18.32-18.35.01-10.27-8.05-18.36-18.29-18.38Z"/>
  </g>
</svg>