<?xml version="1.0" encoding="UTF-8"?>
<svg id="Layer_2" data-name="Layer 2" xmlns="http://www.w3.org/2000/svg" viewBox="0 0 196.28 196.28">
  <defs>
    <style>
      .cls-1 {
        fill: #231f20;
        stroke-width: 0px;
      }
    </style>
  </defs>
  <g id="Layer_1-2" data-name="Layer 1">
    <g>
      <path class="cls-1" d="M128.9,70.16c-.41.24-.81.48-1.21.73-8.79,5.41-17.59,10.81-26.38,16.22-7.81,4.81-15.62,9.61-23.42,14.44-1.74,1.07-3,2.51-2.96,5,.02.2,0,.69.12,1.14,1.85,6.48,3.71,12.96,5.58,19.44.26.9.75,1.62,1.85,1.51,1-.1,1.33-.9,1.46-1.7.37-2.26.74-4.52.96-6.8.34-3.57,1.07-6.86,3.89-9.45,10.14-9.31,20.21-18.69,30.29-28.05,3.75-3.49,7.48-7.01,11.21-10.53.59-.56,1.29-1.23.61-2.07-.6-.74-1.35-.27-2,.12Z"/>
      <path class="cls-1" d="M156.92,0H39.36C17.62,0,0,17.62,0,39.36v117.56c0,21.74,17.62,39.36,39.36,39.36h117.56c21.74,0,39.36-17.62,39.36-39.36V39.36c0-21.74-17.62-39.36-39.36-39.36ZM152.64,66.85c-5.37,26-10.75,52-16.15,78-1.08,5.22-2.62,5.79-6.89,2.68-7.58-5.51-15.16-11.03-22.75-16.54-4.45-3.23-5.53-3.22-9.74.18-3.67,2.97-7.31,5.97-10.98,8.94-.89.72-1.76,1.49-2.86,1.9-1.45.54-2.7.29-3.39-1.22-.53-1.16-.97-2.37-1.35-3.59-2.76-8.88-5.55-17.76-8.21-26.67-.74-2.5-2.13-3.99-4.61-4.86-6.93-2.43-13.8-5.04-20.69-7.59-.95-.35-1.9-.72-2.77-1.22-2.19-1.27-2.24-3.57-.08-4.97.84-.55,1.81-.91,2.75-1.27,34.47-13.29,68.95-26.57,103.43-39.85,1.25-.48,2.52-1,3.82-1.29,1.92-.43,3.42.85,3.35,3.03-.92,4.57-1.87,9.46-2.88,14.34Z"/>
    </g>
  </g>
</svg>