<?xml version="1.0" encoding="UTF-8"?>
<svg id="Layer_2" data-name="Layer 2" xmlns="http://www.w3.org/2000/svg" viewBox="0 0 196.28 196.28">
  <defs>
    <style>
      .cls-1 {
        fill: #231f20;
        stroke-width: 0px;
      }
    </style>
  </defs>
  <g id="Layer_1-2" data-name="Layer 1">
    <g>
      <path class="cls-1" d="M106.92,104.02c-12.96-18.53-26.35-37.69-39.49-56.56-.53-.75-.76-.79-1.34-.79h-.13c-1.35.05-2.79.06-4.64.06-.85,0-3.58-.01-4.11-.01,14.89,21.32,29.8,42.64,44.74,64.02l6.77,9.68c6.69,9.57,13.39,19.13,20.05,28.71.25.37.38.47.38.47.01.01.05.01.13.01h.11c.78-.05,1.61-.07,2.61-.07.63,0,1.25.01,1.88.01.6.01,1.19.02,1.79.02h3.09c-5.96-8.52-11.92-17.05-17.88-25.59l-13.96-19.96Z"/>
      <path class="cls-1" d="M156.92,0H39.36C17.62,0,0,17.63,0,39.37v117.55c0,21.74,17.62,39.36,39.36,39.36h117.56c21.74,0,39.36-17.62,39.36-39.36V39.37c0-21.74-17.62-39.37-39.36-39.37ZM160.67,160.91c-.65,1.35-1.99,2.16-3.58,2.16-.43,0-.8-.06-1.1-.1-.1,0-.19-.02-.27-.03-2.07.01-4.14.01-6.21.01h-8.93c-4.52-.01-9.85,0-15.11.06h-.13c-2.85,0-4.95-1.14-6.62-3.59-7.46-10.93-15.07-22.02-22.44-32.74l-7.01-10.2-5.34,6.21c-10.39,12.06-21.14,24.54-31.65,36.85-1.38,1.63-3.41,3.5-6.72,3.5-.34,0-.7-.02-1.07-.06-.45-.06-.96-.08-1.6-.08-.45,0-.91,0-1.37.02-.51.02-1.02.03-1.52.03h-.4c-.21.02-.42.04-.63.04-1.55,0-2.85-.87-3.4-2.28-.33-.85-.62-2.53,1.16-4.18,6.72-7.83,13.45-15.65,20.18-23.47l6.34-7.38c5.89-6.86,11.98-13.95,18.03-20.88-14.97-21.7-30.11-43.76-44.33-64.47-.06-.08-.13-.15-.2-.23-.54-.61-2.18-2.46-1.1-4.8.64-1.4,2-2.24,3.64-2.24.42,0,.78.05,1.08.09.09.01.18.03.23.03,4.03,0,8.05,0,12.08,0,6.18,0,12.37,0,18.62-.04,2.53,0,4.39.99,5.85,3.13,8.23,12.05,16.64,24.27,24.77,36.1l3.21,4.67,6.7-7.8c9.65-11.22,19.29-22.43,28.91-33.66,1.41-1.63,3.08-2.43,5.13-2.43h.22c1.06.03,2.12.04,3.22.04.75,0,4.11,0,5.07,0h6.52l-7.14,8.34c-1.95,2.27-3.78,4.4-5.61,6.54l-7.11,8.26c-9.14,10.63-18.59,21.62-27.93,32.38.03.05.07.11.12.18,14.98,21.75,29.77,43.28,46.16,67.15.06.08.14.16.22.25.52.61,2.12,2.44,1.06,4.64Z"/>
    </g>
  </g>
</svg>