<?xml version="1.0" encoding="UTF-8"?>
<svg id="Layer_2" data-name="Layer 2" xmlns="http://www.w3.org/2000/svg" viewBox="0 0 196.28 196.28">
  <defs>
    <style>
      .cls-1 {
        fill: #231f20;
        stroke-width: 0px;
      }
    </style>
  </defs>
  <g id="Layer_1-2" data-name="Layer 1">
    <g>
      <path class="cls-1" d="M145.2,89.37c-5.8-32.6-41.69-49.6-70.63-33.47-17.11,9.54-26.76,29.24-23.84,48.46.91,6.01,2.89,11.62,5.77,16.93.74,1.36.91,2.67.57,4.21-1.1,4.91-2.07,9.86-3.07,14.79-.44,2.19-.23,2.41,1.9,1.92,4.6-1.07,9.21-2.07,13.76-3.3,2.07-.55,3.78-.32,5.65.69,7.08,3.81,14.65,5.84,22.74,5.73,2.05-.04,4.07-.07,6.11-.33,27.12-3.52,45.81-28.84,41.04-55.63ZM129.44,117.79c-2.69,4.05-5.78,7.7-10.93,8.65-1.5.28-3.04.31-4.56.46-5.87,0-11.23-1.83-16.22-4.67-9.91-5.65-18.13-13.21-24.57-22.63-3.15-4.61-5.16-9.68-5.48-15.32-.16-2.85.3-5.58,1.79-8.09,1.51-2.56,3.5-4.72,5.79-6.58,2.31-1.89,5.3-1.26,6.59,1.45,1.72,3.63,3.27,7.34,4.9,11.01.73,1.63.42,3.11-.6,4.5-.52.72-1.08,1.42-1.62,2.13-2.21,2.88-2.32,4.7-.03,7.57,4.9,6.14,10.68,11.32,17.4,15.4,3.33,2.02,5.01,1.69,7.79-1.1.63-.63,1.24-1.3,1.91-1.88,1.23-1.05,2.6-1.52,4.25-1.03,3.67,1.07,7.38,2.03,11.04,3.14,3.56,1.07,4.61,3.91,2.55,6.99Z"/>
      <path class="cls-1" d="M156.92,0H39.37C17.63,0,0,17.62,0,39.36v117.56c0,21.67,17.53,39.26,39.19,39.36h117.73c.41,0,.82,0,1.23-.02,20.83-.64,37.59-17.47,38.12-38.32v-.17c.01-.28.01-.57.01-.85V39.36c0-21.74-17.62-39.36-39.36-39.36ZM158.53,97.25c.27,29.12-20.9,55.47-51.17,60.12-11.86,1.83-23.27.28-34.2-4.65-1.48-.66-2.84-.81-4.42-.43-8.87,2.15-17.75,4.22-26.63,6.32-.37.08-.74.18-1.12.25-2.61.44-3.67-.59-3.15-3.16,1.53-7.5,2.89-15.04,4.69-22.47,1.2-4.98.97-9.37-.98-14.33-13.04-33.03,6.54-70.82,40.81-79.8,34.28-8.99,68.38,12.6,75.14,46.89.76,3.89,1.16,7.82,1.03,11.26Z"/>
    </g>
  </g>
</svg>