<svg xmlns="http://www.w3.org/2000/svg" viewBox="0 0 502.17 674.14"><defs><style>.cls-1,.cls-4{fill:#231f20;}.cls-2{font-size:28.89px;font-family:Sagona-SemiBold, Sagona;font-weight:600;}.cls-3{letter-spacing:-0.03em;}.cls-4{fill-rule:evenodd;}.cls-5{font-size:12.97px;}.cls-5,.cls-58{font-family:Axiforma-Bold, Axiforma;font-weight:700;}.cls-6{letter-spacing:-0.01em;}.cls-7{letter-spacing:-0.01em;}.cls-8{letter-spacing:-0.01em;}.cls-9{letter-spacing:-0.03em;}.cls-10{letter-spacing:-0.01em;}.cls-11{letter-spacing:0em;}.cls-12{letter-spacing:-0.01em;}.cls-13{letter-spacing:0em;}.cls-14{letter-spacing:-0.01em;}.cls-15{letter-spacing:0em;}.cls-16{letter-spacing:0em;}.cls-17,.cls-27{fill:#1a1a1a;}.cls-18,.cls-19,.cls-20,.cls-21,.cls-23,.cls-26,.cls-31,.cls-32,.cls-34,.cls-36,.cls-37,.cls-38,.cls-39,.cls-40,.cls-41,.cls-42,.cls-43,.cls-44,.cls-45{fill:none;}.cls-18,.cls-20,.cls-21,.cls-26,.cls-27,.cls-34,.cls-39,.cls-41,.cls-42,.cls-43,.cls-44,.cls-45{stroke:#1a1a1a;}.cls-18,.cls-19,.cls-20,.cls-21,.cls-26,.cls-27,.cls-31,.cls-32,.cls-34,.cls-36,.cls-37,.cls-38,.cls-39,.cls-40,.cls-41,.cls-42,.cls-43,.cls-44,.cls-45{stroke-miterlimit:10;}.cls-19,.cls-31,.cls-32,.cls-36,.cls-37,.cls-38,.cls-40{stroke:#000;}.cls-19,.cls-21{stroke-width:0.95px;}.cls-20,.cls-27,.cls-31{stroke-width:1.91px;}.cls-22{fill:#f8f8f8;}.cls-24{fill:#efefef;}.cls-25{fill:#fcfcfc;}.cls-26{stroke-width:0.5px;}.cls-28{fill:#fdfdfd;}.cls-29{fill:#ececec;}.cls-30{fill:#fbfbfb;}.cls-33{fill:#fafafa;}.cls-34{stroke-width:0.77px;}.cls-35{fill:#f5f5f5;}.cls-36{stroke-linecap:round;}.cls-36,.cls-37,.cls-44{stroke-width:1.54px;}.cls-38,.cls-39{stroke-width:1.5px;}.cls-40,.cls-41{stroke-width:2.18px;}.cls-42{stroke-width:1.83px;}.cls-43{stroke-width:2px;}.cls-45{stroke-width:1.2px;}.cls-46{font-size:12.97px;font-family:Axiforma-Medium, Axiforma;font-weight:500;}.cls-47{letter-spacing:-0.03em;}.cls-48{letter-spacing:-0.01em;}.cls-49{letter-spacing:-0.01em;}.cls-50{letter-spacing:-0.01em;}.cls-51{letter-spacing:-0.01em;}.cls-52{letter-spacing:0em;}.cls-53{letter-spacing:-0.01em;}.cls-54{letter-spacing:-0.03em;}.cls-55{letter-spacing:-0.01em;}.cls-56{letter-spacing:-0.02em;}.cls-57{letter-spacing:0em;}.cls-58{font-size:16px;}.cls-59{letter-spacing:-0.04em;}.cls-60{letter-spacing:0em;}.cls-61{letter-spacing:-0.01em;}.cls-62{letter-spacing:0em;}.cls-63{letter-spacing:-0.04em;}.cls-64{letter-spacing:0em;}.cls-65{letter-spacing:0em;}</style></defs><title>Ruby Pastries &amp;amp; Confectionaries</title><g id="Layer_2" data-name="Layer 2"><g id="Layer_2-2" data-name="Layer 2"><path class="cls-1" d="M249.71,535.78a4.18,4.18,0,0,1,.56.28,22.62,22.62,0,0,1,4.12,5.27,3,3,0,0,1,.46,2c-.15.53-.39.8-1.49,1.68a8.49,8.49,0,0,0-.91.82,2.12,2.12,0,0,0-.3,1,7.6,7.6,0,0,0,1.16,3.24,13.82,13.82,0,0,0,2.32,2.73,12.81,12.81,0,0,0,3,2.15c1.35.68,2.18.85,2.79.57a1.7,1.7,0,0,0,.36-.21c.05,0,.4-.47.79-.95.75-.94.92-1.1,1.43-1.27a2.5,2.5,0,0,1,2,.18,26.88,26.88,0,0,1,2.33,1.45,34,34,0,0,1,3.23,2.63,2.12,2.12,0,0,1,.24,2.19,10.24,10.24,0,0,1-2.6,3.24,3.7,3.7,0,0,1-2.22.92,3.26,3.26,0,0,1-1.74-.37,36.61,36.61,0,0,1-15.78-12.14,34.86,34.86,0,0,1-4.9-8.92c-.65-1.79-.68-2.58-.14-3.49a10.2,10.2,0,0,1,1.93-1.89,6.77,6.77,0,0,1,2.18-1.31A2.55,2.55,0,0,1,249.71,535.78Z"/><text class="cls-2" transform="translate(165.39 595.44)">0<tspan class="cls-3" x="18.75" y="0">7</tspan><tspan x="33.69" y="0">031536098</tspan></text><path class="cls-4" d="M80.17,604.47H68.07A5.54,5.54,0,0,0,62.53,610v12.1a5.55,5.55,0,0,0,5.54,5.55h12.1a5.56,5.56,0,0,0,5.55-5.55V610A5.55,5.55,0,0,0,80.17,604.47Zm0,17.11A8,8,0,0,1,70.72,623l-4.24,1.12,1.14-4.15a8,8,0,1,1,12.58,1.66Zm-5.65-12.31a6.65,6.65,0,0,0-5.63,10.19l.15.25-.67,2.46,2.52-.66.24.14a6.6,6.6,0,0,0,3.39.93,6.66,6.66,0,0,0,0-13.31Zm3.91,9.51a2,2,0,0,1-1.35,1,2.8,2.8,0,0,1-1.26-.08,9.58,9.58,0,0,1-1.13-.42,8.88,8.88,0,0,1-3.42-3,3.85,3.85,0,0,1-.82-2.07,2.24,2.24,0,0,1,.7-1.66.75.75,0,0,1,.54-.25h.38c.12,0,.29,0,.45.35s.57,1.38.62,1.48a.36.36,0,0,1,0,.35,1.12,1.12,0,0,1-.2.33,3.83,3.83,0,0,1-.3.35.29.29,0,0,0-.08.41,5.66,5.66,0,0,0,1.11,1.39,5.41,5.41,0,0,0,1.6,1c.2.1.32.08.44,0s.5-.58.63-.78.27-.17.45-.1,1.17.55,1.37.65.33.15.38.23A1.65,1.65,0,0,1,78.46,618.78Z"/><text class="cls-5" transform="translate(93.62 621.44)"><tspan class="cls-6">0</tspan><tspan class="cls-7" x="8.8" y="0">7</tspan><tspan class="cls-8" x="15.49" y="0">0</tspan><tspan x="24.27" y="0">31536098</tspan></text><path class="cls-1" d="M201.8,610a6,6,0,1,0,6,6A6,6,0,0,0,201.8,610Zm0,9.82a3.84,3.84,0,1,1,3.84-3.84A3.84,3.84,0,0,1,201.8,619.84Z"/><circle class="cls-1" cx="208.01" cy="609.87" r="1.36"/><path class="cls-1" d="M211.55,606.34a6.76,6.76,0,0,0-4.92-1.9H197a6.43,6.43,0,0,0-6.8,6.8v9.6A6.53,6.53,0,0,0,197,627.7h9.56a6.89,6.89,0,0,0,4.93-1.84,6.72,6.72,0,0,0,1.92-5v-9.66A6.77,6.77,0,0,0,211.55,606.34Zm-.26,14.56a4.64,4.64,0,0,1-1.27,3.42,4.8,4.8,0,0,1-3.44,1.24H197a4.77,4.77,0,0,1-3.4-1.24,4.71,4.71,0,0,1-1.31-3.48v-9.6a4.32,4.32,0,0,1,4.66-4.66h9.66a4.36,4.36,0,0,1,4.66,4.66Z"/><text class="cls-5" transform="translate(221.04 619.77)">@ru<tspan class="cls-9" x="25.94" y="0">b</tspan><tspan x="34.38" y="0">y_pa</tspan><tspan class="cls-10" x="67.41" y="0">s</tspan><tspan x="73.72" y="0">tri</tspan><tspan class="cls-11" x="88.64" y="0">e</tspan><tspan x="96.72" y="0">s</tspan></text><path class="cls-1" d="M356.21,608.36v15.41a3.86,3.86,0,0,1-3.86,3.85h-4.43v-8.55h2.41l.32-3.05h-2.73v-1.79a.73.73,0,0,1,.75-.82h1.94v-2.95l-2.65,0a3.37,3.37,0,0,0-3.62,3.62v2h-1.7v3.05h1.7v8.55H337a3.85,3.85,0,0,1-3.86-3.85V608.36a3.87,3.87,0,0,1,3.86-3.85h15.4A3.87,3.87,0,0,1,356.21,608.36Z"/><text class="cls-5" transform="translate(364.98 621.12)"><tspan class="cls-12">R</tspan><tspan x="8.66" y="0">u</tspan><tspan class="cls-9" x="16.62" y="0">b</tspan><tspan class="cls-7" x="25.06" y="0">y</tspan><tspan class="cls-13" x="32.72" y="0"> </tspan><tspan class="cls-14" x="35.93" y="0">P</tspan><tspan class="cls-15" x="44.08" y="0">a</tspan><tspan class="cls-6" x="52.85" y="0">s</tspan><tspan x="59.16" y="0">tri</tspan><tspan class="cls-16" x="74.08" y="0">e</tspan><tspan x="82.16" y="0">s</tspan></text><path class="cls-17" d="M294.18,191.36s1.32,2.49.45,3.88-2,1.24-2.78,2.27a9.76,9.76,0,0,0,2-4L292.38,196S289.55,194.23,294.18,191.36Z"/><path class="cls-17" d="M275,143.15s4.89-.4,6.52,1.94,1.26,3.91,1.73,6A11.53,11.53,0,0,0,279,146.3l2.12,2.86S276.41,152.52,275,143.15Z"/><path class="cls-17" d="M219.94,169.59s-4.18,2.55-4.12,5.4,1.9,3.65,2.14,5.87a17,17,0,0,1,.63-7.77l-.05,4.95S224.31,178,219.94,169.59Z"/><path class="cls-18" d="M188.43,213.76s5.13-4.65,8.5-.77.07,7.89-2.71,9.48-9.12,2.85-11.05-2.59S188.43,213.76,188.43,213.76Z"/><path class="cls-18" d="M188.47,213.38s-.7-1.91-4.84-.3C183.63,213.08,185.23,215.09,188.47,213.38Z"/><path class="cls-18" d="M188.47,213.37s-1.83-2.21,1.3-4.63C189.77,208.74,190.69,212.2,188.47,213.37Z"/><path class="cls-18" d="M188.49,213.31s0,0,0,.06l-.1,0a2,2,0,0,0-1.75-1.1,7.83,7.83,0,0,1-1-2.39,5.81,5.81,0,0,1,2.09,1.13A2.71,2.71,0,0,0,188.49,213.31Z"/><ellipse class="cls-19" cx="186.28" cy="220.32" rx="1.33" ry="2.09" transform="translate(-77.22 102.81) rotate(-25.75)"/><ellipse class="cls-19" cx="189.05" cy="222.11" rx="0.48" ry="0.75" transform="translate(-96.87 164.45) rotate(-38.2)"/><ellipse class="cls-19" cx="196.52" cy="218.65" rx="0.96" ry="0.61" transform="matrix(0.1, -1, 1, 0.1, -40.22, 392.96)"/><path class="cls-20" d="M201.17,179.19c-17.28-5.33-23.57,10.6-21.53,16.31s4.66,9.12,5.69,9.07c1.43-.08,2.29-3.11,6.7-1.53,4.82,1.73,2.77,5.61,3.7,6s9.31,1.25,14.59-4.14S218.46,184.51,201.17,179.19Zm-1.6,19.39c-2.79,2-7.25-.33-6.64-3.85a4,4,0,0,1,5.19-3.47C201,192.1,202.37,196.55,199.57,198.58Z"/><path class="cls-21" d="M185.33,204.57s-2.48-3.35,1-7.84c0,0,2.5-1.53,6.53,0s4.14,4.84,4.14,4.84-.34,7.68-1.25,7.46,1.09-4.25-3.7-6C187.51,201.35,186.91,204.57,185.33,204.57Z"/><path class="cls-17" d="M203.84,180.12c-6.26-2.56-12-2.45-17.58.77s-3.87,10.18-3.87,10.18c-.6,1.85-.87,4.08-.24,4.79s2-.55,2-.55a10.61,10.61,0,0,0,2.12,1.42c1.14.54,3.32-.66,6,.05s3.7,4.25,4.63,4.79,1.8.11,2.83.27,1.47,1.42,2.94,1.91,3.21-2.12,3.21-2.12-.16,2.56,1.09,2.56,1.2-2.89,1.85-4.14,4.8-1.74,4.79-7.79C213.69,188.39,210.1,182.68,203.84,180.12Zm-2.12,14.72a10,10,0,0,1-8.24-2.9c-2.8-3.49-.47-6.46,1.49-6.39s2.35,2.07,3.41,2.5,1.85-1,2.57-.9,1.24,1.27,1.75,1.48,1.05-.36,1.77,0S206.91,194.26,201.72,194.84Z"/><path class="cls-22" d="M204.85,187.76c-.71-.36-1.25.21-1.75,0s-1-1.4-1.72-1.47-1.5,1.32-2.54.89-1.43-2.4-3.37-2.47a2.77,2.77,0,0,0-2.47,1.78,2.56,2.56,0,0,1,2-.94c2,.07,2.35,2.07,3.41,2.5s1.85-1,2.57-.9,1.24,1.27,1.75,1.48,1.05-.36,1.77,0c.41.21,1.13,2,.76,3.56C206.26,190.45,205.34,188,204.85,187.76Zm2.55,15.34c-1.24,0-1.08-2.53-1.08-2.53s-1.72,2.58-3.17,2.1-1.88-1.72-2.9-1.88-1.88.27-2.79-.27-1.88-4-4.57-4.73-4.83.49-6,0a10.49,10.49,0,0,1-2.09-1.4s-1.39,1.24-2,.54-.35-2.9.24-4.73c0,0-1.07-4.42,1.33-7.81-3.28,3.49-2,8.73-2,8.73-.6,1.85-.87,4.08-.24,4.79s2-.55,2-.55a10.61,10.61,0,0,0,2.12,1.42c1.14.54,3.32-.66,6,.05s3.7,4.25,4.63,4.79,1.8.11,2.83.27,1.47,1.42,2.94,1.91,3.21-2.12,3.21-2.12-.16,2.56,1.09,2.56c.68,0,1-.86,1.21-1.85C208.06,202.79,207.8,203.1,207.4,203.1Zm1.82-4.08a5.72,5.72,0,0,0-.39,1.17c0-.05,0-.1.07-.14.57-1.09,3.77-1.6,4.6-5.68C212.42,197.53,209.73,198,209.22,199Z"/><rect class="cls-17" x="202.71" y="166.37" width="1.09" height="2.94" rx="0.54" transform="translate(198.76 -95.72) rotate(49.47)"/><rect class="cls-17" x="197.54" y="167.62" width="1.09" height="2.94" rx="0.54" transform="translate(-61.55 189.59) rotate(-45)"/><rect class="cls-17" x="185.84" y="173.83" width="1.09" height="2.94" rx="0.54" transform="translate(313.77 -46.61) rotate(76.61)"/><rect class="cls-17" x="191.79" y="171.27" width="1.09" height="2.94" rx="0.54" transform="translate(-63.6 136.28) rotate(-33.82)"/><rect class="cls-17" x="210.26" y="178.76" width="1.09" height="2.94" rx="0.54" transform="translate(91.37 -70.08) rotate(23.96)"/><rect class="cls-17" x="188.94" y="190.59" width="1.09" height="2.94" rx="0.54" transform="translate(222.46 -75.72) rotate(51.63)"/><rect class="cls-23" x="207.74" y="188.05" width="1.09" height="2.94" rx="0.27" transform="translate(-62.71 112.96) rotate(-26.52)"/><rect class="cls-17" x="204.4" y="182.86" width="1.09" height="2.94" rx="0.54" transform="translate(119.62 -77.78) rotate(30)"/><rect class="cls-24" x="199.1" y="181.39" width="1.09" height="2.94" rx="0.54" transform="translate(219.1 -87.17) rotate(51.63)"/><rect class="cls-17" x="191.79" y="180.98" width="1.09" height="2.94" rx="0.54" transform="translate(-72.68 189.44) rotate(-45)"/><path class="cls-25" d="M188.4,187.27c.34-2,1.69-3.28.54-3.61a5.55,5.55,0,0,0-3.5,3c-.82,2.29,3,5.51,4,4.74S188.05,189.3,188.4,187.27Z"/><path class="cls-25" d="M209.61,191.56c-1.14.38-1.63,2.06-2.45,3.35s-4.74,2.06-4.65,3.43,4.16.51,6.32-1.06S210.19,191.36,209.61,191.56Z"/><path class="cls-25" d="M182,192.47q.07-.3.18-.6a.73.73,0,0,1,0-.08C182.12,192,182.06,192.24,182,192.47Z"/><path class="cls-25" d="M205.1,192.61c-.4,1.08-1.37,2-3.38,2.23a10,10,0,0,1-8.24-2.9,5,5,0,0,1-1.27-3.64,4.5,4.5,0,0,0,1.07,4.44,10,10,0,0,0,8.24,2.91C204,195.37,204.92,194,205.1,192.61Z"/><path class="cls-25" d="M208.42,201.63c-.1.36-.18.75-.27,1.15C208.25,202.41,208.34,202,208.42,201.63Z"/><path class="cls-25" d="M213.69,192.26c0-3.87-3.59-9.58-9.85-12.14s-12-2.45-17.58.77a8,8,0,0,0-3.9,5.57,7.84,7.84,0,0,1,3.7-4.77,18.4,18.4,0,0,1,7.19-2.44s2.2,2,4.49,2,2.84-1.47,4-1.06c.62.21,1.26.44,1.89.7,6.26,2.56,9.85,8.27,9.86,12.14a9.93,9.93,0,0,1-.18,2A9.4,9.4,0,0,0,213.69,192.26Z"/><rect class="cls-17" x="196.44" y="176.86" width="1.09" height="2.94" rx="0.54" transform="translate(-35.93 50.45) rotate(-13.39)"/><rect class="cls-17" x="187.85" y="185.8" width="1.09" height="2.94" rx="0.54"/><rect class="cls-17" x="204.79" y="195.22" width="1.09" height="2.94" rx="0.54" transform="translate(199.22 -87.58) rotate(45)"/><path class="cls-20" d="M251.05,193.29l2.75-.71s-.07-2,0-2.54,2.25-.69,1.63-2.52c-.51-1.51-2.25-.79-2.25-.79s.06-2.68-2.13-2.4-1.69,2.82-1.69,2.82S247,187,247,188.8s2.61,1.6,2.61,1.6Z"/><path class="cls-20" d="M245.6,211.45a2.71,2.71,0,0,1,0,.29,89.19,89.19,0,0,1-8.84,1.77,4.59,4.59,0,0,1-.48-2.06,4.67,4.67,0,0,1,9.33,0Z"/><circle class="cls-20" cx="318.42" cy="176.14" r="4.66"/><circle class="cls-20" cx="228.74" cy="176.03" r="3.59"/><path class="cls-18" d="M214.25,215.63c1.73.59,5.37-1.63,7-4.27s-.06-4.22-2.75-5.16c-2.93-1-4.82-.76-5.43,1.16C212,210.76,212.66,215.09,214.25,215.63Z"/><path d="M217.75,206.43s-1.59.08-2-2.77C215.75,203.66,218.65,204.84,217.75,206.43Z"/><path d="M217.92,206.73s.52-1.71,4.4-1.33C222.32,205.4,220.14,207.44,217.92,206.73Z"/><path d="M217.92,206.45s-1.28-.84-3.18.85C214.74,207.3,217.62,208.17,217.92,206.45Z"/><path d="M217.94,206.66s-1-1.36,1.1-3.23C219,203.43,219.77,206.21,217.94,206.66Z"/><path d="M217.73,206.76s.44-.58,1.23,0a4.79,4.79,0,0,1,1.29,2.13S217.91,207.9,217.73,206.76Z"/><ellipse class="cls-26" cx="213.72" cy="210.48" rx="0.25" ry="0.42"/><ellipse class="cls-26" cx="218.18" cy="211.4" rx="0.26" ry="0.43"/><ellipse class="cls-26" cx="219.26" cy="209.34" rx="0.28" ry="0.44"/><ellipse class="cls-26" cx="216.92" cy="208.08" rx="0.2" ry="0.44"/><ellipse class="cls-26" cx="214.22" cy="214.45" rx="0.26" ry="0.47"/><ellipse class="cls-26" cx="217.48" cy="213.74" rx="0.26" ry="0.44"/><ellipse class="cls-26" cx="215.38" cy="212.3" rx="0.36" ry="0.47"/><ellipse class="cls-26" cx="214.91" cy="208.55" rx="0.28" ry="0.36"/><ellipse class="cls-26" cx="215.02" cy="206.24" rx="0.28" ry="0.39"/><ellipse class="cls-26" cx="213.05" cy="208.19" rx="0.19" ry="0.34"/><ellipse class="cls-26" cx="213.17" cy="212.48" rx="0.23" ry="0.38"/><ellipse class="cls-26" cx="215.89" cy="215.12" rx="0.22" ry="0.3"/><ellipse class="cls-26" cx="216.92" cy="210.07" rx="0.31" ry="0.48"/><circle class="cls-26" cx="221.29" cy="209.12" r="0.28"/><ellipse class="cls-26" cx="220.2" cy="207.52" rx="0.2" ry="0.33"/><circle class="cls-26" cx="220.12" cy="211.5" r="0.34"/><path class="cls-20" d="M221.88,157.35c1.44-.45,2.77-3.64,2.56-6.14s-2.11-2.72-4.36-2c-2.45.73-3.57,1.82-3,3.36C218,155.27,220.56,157.76,221.88,157.35Z"/><path class="cls-17" d="M219.7,149.68s-1,.81-2.69-.84C217,148.84,219.51,148.21,219.7,149.68Z"/><path class="cls-17" d="M220,149.79s-.49-1.36,2.27-3C222.23,146.81,221.78,149.19,220,149.79Z"/><path class="cls-17" d="M219.82,149.61s-1.26.07-1.7,2.08C218.12,151.69,220.47,150.88,219.82,149.61Z"/><path class="cls-17" d="M219.93,149.74s-1.32-.41-.84-2.63C219.09,147.11,220.94,148.57,219.93,149.74Z"/><path class="cls-17" d="M219.84,149.9s0-.58.8-.62a4,4,0,0,1,1.9.77S220.52,150.56,219.84,149.9Z"/><ellipse class="cls-17" cx="219" cy="154.25" rx="0.21" ry="0.34" transform="translate(-48.62 165.76) rotate(-37.62)"/><ellipse class="cls-17" cx="222.42" cy="152.71" rx="0.21" ry="0.35" transform="translate(-46.96 167.67) rotate(-37.65)"/><ellipse class="cls-17" cx="222.13" cy="150.85" rx="0.23" ry="0.36" transform="translate(-45.84 167.83) rotate(-37.81)"/><ellipse class="cls-17" cx="219.96" cy="151.15" rx="0.17" ry="0.36" transform="translate(-46.61 164.17) rotate(-37.29)"/><ellipse class="cls-17" cx="221.28" cy="156.6" rx="0.21" ry="0.38" transform="translate(-49.6 167.08) rotate(-37.5)"/><ellipse class="cls-17" cx="223.1" cy="154.56" rx="0.21" ry="0.36" transform="translate(-47.96 168.37) rotate(-37.63)"/><ellipse class="cls-17" cx="221" cy="154.64" rx="0.3" ry="0.38" transform="translate(-48.12 172.82) rotate(-38.85)"/><ellipse class="cls-17" cx="218.85" cy="152.42" rx="0.23" ry="0.3" transform="translate(-47.2 170.98) rotate(-38.85)"/><ellipse class="cls-17" cx="217.79" cy="150.87" rx="0.23" ry="0.32" transform="matrix(0.78, -0.62, 0.62, 0.78, -46.62, 167.61)"/><ellipse class="cls-27" cx="217.43" cy="153.08" rx="0.16" ry="0.28" transform="translate(-48.25 164.15) rotate(-37.53)"/><ellipse class="cls-17" cx="219.62" cy="155.81" rx="0.19" ry="0.31" transform="translate(-49.45 166.49) rotate(-37.63)"/><ellipse class="cls-17" cx="222.72" cy="156.23" rx="0.18" ry="0.24" transform="matrix(0.78, -0.62, 0.62, 0.78, -48.88, 171.84)"/><ellipse class="cls-17" cx="220.93" cy="152.45" rx="0.25" ry="0.39" transform="translate(-47.07 167.4) rotate(-37.8)"/><ellipse class="cls-17" cx="223.37" cy="149.73" rx="0.23" ry="0.23"/><ellipse class="cls-17" cx="221.86" cy="149.21" rx="0.17" ry="0.27" transform="translate(-44.92 166.89) rotate(-37.72)"/><ellipse class="cls-17" cx="223.76" cy="151.84" rx="0.28" ry="0.27"/><path class="cls-20" d="M305.3,158.48c2.05.7,6.37-1.93,8.31-5s-.06-5-3.24-6.12c-3.48-1.24-5.71-.91-6.45,1.36C302.62,152.69,303.42,157.83,305.3,158.48Z"/><path class="cls-17" d="M309.48,147.58s-1.89.09-2.37-3.28C307.11,144.3,310.54,145.7,309.48,147.58Z"/><path class="cls-17" d="M309.68,147.94s.62-2,5.22-1.57C314.9,146.37,312.3,148.79,309.68,147.94Z"/><path class="cls-17" d="M309.68,147.61s-1.51-1-3.78,1C305.9,148.6,309.32,149.65,309.68,147.61Z"/><path class="cls-17" d="M309.7,147.85s-1.18-1.62,1.31-3.82C311,144,311.87,147.33,309.7,147.85Z"/><path class="cls-17" d="M309.45,148s.52-.68,1.46-.05a5.71,5.71,0,0,1,1.52,2.52S309.66,149.32,309.45,148Z"/><ellipse class="cls-17" cx="304.68" cy="152.37" rx="0.5" ry="0.3" transform="translate(151.59 456.69) rotate(-89.86)"/><ellipse class="cls-17" cx="309.97" cy="153.48" rx="0.51" ry="0.31" transform="translate(155.76 463.08) rotate(-89.86)"/><ellipse class="cls-17" cx="311.26" cy="151.03" rx="0.52" ry="0.34" transform="translate(159.49 461.93) rotate(-89.86)"/><ellipse class="cls-17" cx="308.49" cy="149.54" rx="0.53" ry="0.24" transform="translate(158.22 457.67) rotate(-89.86)"/><ellipse class="cls-17" cx="305.27" cy="157.07" rx="0.55" ry="0.31" transform="translate(147.46 461.96) rotate(-89.86)"/><ellipse class="cls-17" cx="309.13" cy="156.24" rx="0.52" ry="0.31" transform="matrix(0, -1, 1, 0, 152.16, 464.99)"/><ellipse class="cls-17" cx="306.65" cy="154.53" rx="0.55" ry="0.43" transform="translate(151.38 460.81) rotate(-89.86)"/><ellipse class="cls-17" cx="306.1" cy="150.09" rx="0.43" ry="0.34" transform="translate(155.29 455.83) rotate(-89.86)"/><ellipse class="cls-17" cx="306.24" cy="147.35" rx="0.46" ry="0.34" transform="translate(158.16 453.24) rotate(-89.86)"/><ellipse class="cls-17" cx="303.9" cy="149.65" rx="0.4" ry="0.23" transform="translate(153.52 453.19) rotate(-89.86)"/><ellipse class="cls-17" cx="304.03" cy="154.73" rx="0.45" ry="0.27" transform="translate(148.57 458.4) rotate(-89.86)"/><ellipse class="cls-17" cx="307.24" cy="157.87" rx="0.35" ry="0.26" transform="translate(148.64 464.74) rotate(-89.86)"/><ellipse class="cls-17" cx="308.49" cy="151.9" rx="0.57" ry="0.36" transform="translate(155.86 460.02) rotate(-89.86)"/><circle class="cls-17" cx="313.66" cy="150.78" r="0.34"/><ellipse class="cls-17" cx="312.37" cy="148.87" rx="0.39" ry="0.24" transform="matrix(0, -1, 1, 0, 162.75, 460.89)"/><circle class="cls-17" cx="312.27" cy="153.59" r="0.4"/><path class="cls-20" d="M291.52,201.37c20.58-6.86,37.8-13.42,37.8-13.42.4,1.25.74,2.52,1,3.82,4.73,20.65-4.7,41.79-22.65,56.09-.58.46-1.17.91-1.76,1.35l-.83.62a78.71,78.71,0,0,1-6.67,4.34,82.63,82.63,0,0,1-23,9c-31.55,7.23-62.14-4.49-75.18-26.87-.25-.41-.48-.84-.71-1.26A47.68,47.68,0,0,1,195.2,224s25.88-3.58,54-10.22"/><path class="cls-20" d="M314.19,192.47S338,172.93,355,169.25s29.17,8.78,33.7,2.83-5.83-19-29.91-13.63-49.67,35.44-49.67,35.44Z"/><path class="cls-28" d="M300.79,245.32c.06.39-.48.8-1.2.9s-1.35-.14-1.41-.53"/><ellipse class="cls-28" cx="374.43" cy="165.89" rx="1.43" ry="7.84" transform="translate(134.96 498.11) rotate(-78.11)"/><path class="cls-20" d="M276.59,189.13c-11.85-.63-21.34,7.05-22.95,8.61s-3.11,6.41-2.85,11.25,6.21,13.69,22.67,7.63S289.3,201,289.3,201C289.75,198.28,288.44,189.77,276.59,189.13Zm-6.28,15.71c-4.38,1.69-8.5,1.58-9.21-.24s2.28-4.67,6.66-6.36,8.51-1.58,9.21.24S274.69,203.15,270.31,204.84Z"/><path class="cls-17" d="M282.81,190.26c-5.77-2.13-12.73-2.41-22.34,2.45a25.29,25.29,0,0,0-5,3.25,25.08,25.08,0,0,1,4.49-2.85c9.61-4.86,16.57-4.58,22.34-2.45,5.29,2,7.23,8.75,6.7,10.41a.46.46,0,0,0,.27-.08C290.37,200.3,288.59,192.39,282.81,190.26Zm-1.34,8.64a.59.59,0,0,0-.33.11c-1,.76,2.44,6.46,1.32,8.21C284.62,206.35,281.16,200.45,281.47,198.9ZM276,204.62c-.56.28.88,4.79-.08,6.26l.17-.08c1.3-.79.26-4.69.26-6.09C276.19,204.61,276.08,204.58,276,204.62Zm-3-8.42a6.09,6.09,0,0,0,1.21-1.26C273.73,195.16,273.36,195.76,273,196.2Zm-4.42.58c.95-.49.72-1.54,1-2.13C268.64,194.82,269.1,196,268.54,196.78ZM268,215.41l.06,0c1.53-.79.33-4.62,1.17-5.95C267.65,210,269,214,268,215.41ZM264.19,205c-6.67.08-6.86-2.49-4.59-5.18l-.06-.09c-2.7,2.86-2.9,5.75,4.17,5.67,4.62-.05,7.2-1.49,9-3C270.93,203.76,268.41,205,264.19,205Zm.61-8.48-.13,0c-.63.26-.44,1.25-.41,1.84.19.07.34.09.41,0S264.53,197.14,264.8,196.52Zm-2.43,1.84a.54.54,0,0,0-.29.07c-.46.26.06,1.48-.21,2.15l.07,0C262.77,200.3,262.28,199,262.37,198.36Zm-2.42,16,.12,0c.86-.27.43-3,.81-4h0C259.89,210.34,260.43,213.3,260,214.41Zm-5.89,1.47.06,0c1.35-.69.31-3.31,1.12-4.46C253.79,212.05,254.85,214.72,254.06,215.88Z"/><path class="cls-17" d="M286.36,192.68c2.44,3.1,3.09,7.12,2.34,7.61-1.07.69-6.57-3.23-7.67-2.38s3.34,8,.67,8.66-5.2-3.36-5.82-3,1.15,5.63-.4,6.58-4.51-2.31-6.33-1.8,0,5.47-1.72,6.38-5.54-5.32-6.68-5.38-.2,4-1.28,4.39a.64.64,0,0,1-.59-.19c.42.59.81,1,1.19.89,1.08-.33.13-4.46,1.28-4.39s4.92,6.29,6.67,5.38-.1-5.86,1.73-6.37,4.79,2.73,6.33,1.79-.22-6.27.4-6.58,3.15,3.75,5.82,3.05-1.77-7.8-.67-8.66,6.6,3.08,7.67,2.38C290.11,200.47,289.29,195.84,286.36,192.68Zm-11.6,1.14c-1.14-.52-1.71,1.72-2.73,1.77a.74.74,0,0,1-.51-.18c.33.48.66.91,1.11.89,1-.05,1.59-2.3,2.73-1.78l.15.08A1.77,1.77,0,0,0,274.76,193.82Zm-5.35-.28c-1.18.2,0,2.25-2,2.7s-2-1.14-2.9-.79-.21,2-.48,2.27-1.53-.71-2.12-.39.41,2.2-.62,2.53a1.25,1.25,0,0,1-1.21-.38c.25.39,1,1.34,1.81,1.08,1-.33,0-2.21.62-2.53s1.84.62,2.11.39-.37-1.92.49-2.27.91,1.24,2.9.79.76-2.5,1.95-2.7a.89.89,0,0,1,.74.22C270.38,193.94,270,193.44,269.41,193.54ZM260,199.37a3.87,3.87,0,0,1-.57-.74c-1.69,1.79-2.4,3.59-1,4.66C257.94,202.23,258.65,200.8,260,199.37Zm-4.42,10.79c-2.37.34-.39,4.14-2.06,5a1.68,1.68,0,0,1-2-.47c.82,1.17,1.75,1.61,2.62,1.17,1.67-.85-.31-4.64,2.06-5a1.37,1.37,0,0,1,1.11.48C256.77,210.63,256.21,210.07,255.58,210.16Z"/><path class="cls-29" d="M270.75,194.46a4.24,4.24,0,0,0,.77.95A4.63,4.63,0,0,0,270.75,194.46ZM260,199.33l0,0a.69.69,0,0,0,.13.11A1,1,0,0,1,260,199.33Zm-2.73,12a15.4,15.4,0,0,0,1.58,2.16A16,16,0,0,0,257.3,211.34Z"/><circle class="cls-30" cx="252.09" cy="208.04" r="0.25"/><circle class="cls-30" cx="253.41" cy="208.07" r="0.07"/><circle class="cls-30" cx="252.28" cy="209.14" r="0.13"/><circle class="cls-30" cx="261.36" cy="208.7" r="0.23"/><circle class="cls-30" cx="265.69" cy="208.96" r="0.69"/><circle class="cls-30" cx="267.54" cy="207.67" r="0.28"/><circle class="cls-30" cx="280.78" cy="194.29" r="0.24"/><circle class="cls-30" cx="285.32" cy="194.28" r="0.76"/><circle class="cls-30" cx="271.63" cy="193.42" r="0.54"/><circle class="cls-30" cx="269.68" cy="192.27" r="0.18"/><path class="cls-23" d="M241.35,187.9c-.18.41-1.16.42-2.18,0s-1.62-1-1.37-1.4,1.17-.33,2.11,0S241.51,187.51,241.35,187.9Z"/><path class="cls-31" d="M247.22,193c2.44,6.25-2.58,13.08-13.29,11.89-11.7-1.29-16.64-10.23-12.55-16.19a9.16,9.16,0,0,1,1.83-1.95c3-2.38,7.78-3.19,12.22-2.33a18.47,18.47,0,0,1,7.3,3.09h0A12.72,12.72,0,0,1,247.22,193Z"/><path class="cls-17" d="M240.75,186.93a18.22,18.22,0,0,0-4.64-1.55c-4.35-.82-8.93.08-11.74,2.57a8.61,8.61,0,0,0-1.67,2,7.71,7.71,0,0,0-1,3,6.32,6.32,0,0,1,.94-4.21,7.38,7.38,0,0,1,1.55-1.75c2.62-2.2,6.94-3,11-2.2A16.68,16.68,0,0,1,240.75,186.93Z"/><path class="cls-20" d="M232.54,186.67c-1.07.11-2.18-.21-2.42-.7a.39.39,0,0,1,0-.44,2,2,0,0,1,1.4-.52,2.8,2.8,0,0,1,2.27.65.34.34,0,0,1,.07.17C234,186.22,233.44,186.58,232.54,186.67Z"/><path class="cls-20" d="M237.92,191.63c0,.7-1,1.13-2.37.91s-2.4-1-2.3-1.68,1.17-1,2.41-.79S237.89,191,237.92,191.63Z"/><path class="cls-20" d="M245.36,197.63a2.34,2.34,0,0,0-1.12-2.79,1.91,1.91,0,0,0-2.65.56,2.28,2.28,0,0,0,.92,3A1.89,1.89,0,0,0,245.36,197.63Z"/><path class="cls-20" d="M233.64,200.61c1.69.3,3.09-.31,3.15-1.31s-1.13-1.89-2.64-2.17-2.94.19-3.17,1.11S231.93,200.31,233.64,200.61Z"/><path class="cls-20" d="M224.21,192.52a2,2,0,0,0,2.21,1.71,1.75,1.75,0,0,0,1.36-2.2,2,2,0,0,0-2.07-1.5A1.73,1.73,0,0,0,224.21,192.52Z"/><path class="cls-20" d="M240.49,189.21c.83.45,1.73.57,2,.25s-.18-.9-1-1.32-1.61-.53-1.92-.25S239.69,188.76,240.49,189.21Z"/><ellipse class="cls-23" cx="253.23" cy="133.22" rx="1.02" ry="1.35" transform="matrix(0.34, -0.94, 0.94, 0.34, 41.21, 325.36)"/><path class="cls-32" d="M257.61,137.89a7.48,7.48,0,1,1-15,0,7.4,7.4,0,0,1,.26-1.95,7.48,7.48,0,0,1,12.74-3.08h0A7.43,7.43,0,0,1,257.61,137.89Z"/><path class="cls-21" d="M248.31,134.13a1.22,1.22,0,0,1-1.67-.31.86.86,0,0,1-.07-.53,1.49,1.49,0,0,1,.82-1,1.22,1.22,0,0,1,1.67.3.66.66,0,0,1,.06.2A1.31,1.31,0,0,1,248.31,134.13Z"/><ellipse class="cls-21" cx="250.52" cy="138.04" rx="1.35" ry="1.02"/><ellipse class="cls-21" cx="254.64" cy="140.92" rx="1.37" ry="1.04" transform="translate(5.28 290.99) rotate(-60)"/><ellipse class="cls-21" cx="249.93" cy="142.91" rx="0.84" ry="1.28" transform="translate(94.14 385.02) rotate(-87)"/><ellipse class="cls-21" cx="245.73" cy="139.92" rx="0.84" ry="1.28" transform="translate(-35.49 110.34) rotate(-23.65)"/><ellipse class="cls-21" cx="254.15" cy="134.64" rx="0.84" ry="1.11" transform="translate(3.78 276.19) rotate(-57.4)"/><path class="cls-20" d="M233.52,149a1.31,1.31,0,0,0-1.29.61c-5,7.83-6.54,18.14-6.54,18.14,0,.18-.12.66.23.8a265.85,265.85,0,0,0,23.85,12,153.81,153.81,0,0,0,20.52,7.38,1,1,0,0,0,.92-.23c1.23-1.15,5.17-5.37,10.55-16.34a2.06,2.06,0,0,0,.13-1.48,30.45,30.45,0,0,0-4-7.76c-4-6-7.24-8.43-7.24-8.43a.35.35,0,0,0-.24-.15Z"/><path class="cls-20" d="M228.76,156.22a2.08,2.08,0,0,1,2.57-1.44A69.72,69.72,0,0,1,244,159.72c8.27,4.15,16.51,8.39,21.39,10.45s7.15,2.39,6.24,4.74a40,40,0,0,1-6.83,11.29,202.38,202.38,0,0,1-37.16-16.73c-1.69-1-2.07-1.26-1.71-3C226.21,165,227.53,159.78,228.76,156.22Z"/><path class="cls-20" d="M232.64,149.63s9.52,5.22,25.45,12.22,22.84,9.09,22.84,9.09c.32.14.82-.47.74-1,0,0-.11-2.32-3.81-7.87-4-6-7.24-8.43-7.24-8.43a.35.35,0,0,0-.24-.15l-37.67-4.61C232.32,148.81,232.26,149.47,232.64,149.63Z"/><path class="cls-17" d="M241.4,150.3c.31-.91,1.5-.84,2.19-.15a10.17,10.17,0,0,1,1.86,3.85c.29,1.22.35,3-.65,3.89s-1.64.82-2.47,2.8a33,33,0,0,1-2.61,5.26,15.64,15.64,0,0,0-1.84,3.94c-.15.69-.89,2.58-1.44,2.24s.09-1.58,1-3.23,1.49-5.77,2.65-7.07,2.11-1.9,2.45-3.43a15.19,15.19,0,0,1,1.1-3.22C243.89,154.59,240.89,151.74,241.4,150.3Z"/><path class="cls-17" d="M246.46,151.14a1.08,1.08,0,0,1,2-.5c.51.75,1.37,3.92,2,5.31s1.41,3.16,1,3.9-1.55,2.7-2,2.27a2.77,2.77,0,0,1-.34-2.78c.42-1.14-.58-2.42-1.13-4S246.43,152.3,246.46,151.14Z"/><path class="cls-17" d="M250,151.19c.14-1,1.72-.66,2.11.05s.23,2.78,1.18,4.47,3.34,4,3,5.35c-.43,1.56-2.21,2.94-2.8,3.74s-.6,2.61-1.07,3.87-2.89,1.28-3.64,3.15-1.44,4.57-2.38,4.17-.06-3.38,1.49-5.46,2.66-2.42,2.68-3.9a7.32,7.32,0,0,1,1.59-4.32,3.65,3.65,0,0,0,1.21-2.56c-.14-.55-1.48-1.38-2-3.48S250,151.88,250,151.19Z"/><path class="cls-17" d="M257.19,152.24c-.41-.84,1.59-1.68,2.39,0,.63,1.32,1.37,1.57,1.67,1.29s.74-2.05,1.91-2.11,2.56,2,3.34,2.61,1.95.6,2.75,1.34,2.63,1.55,3.16,2.61,0,2.73,2,5.48,3.53,4.41,3.13,6c-.24,1-2.14,1.93-3,3.1s-1.68,4.57-2.26,4.45-.89-2.63.81-5.1,2.75-2.8,2.56-3.47-1.68-.88-1.9-2.47a8.4,8.4,0,0,0-1.95-4.49c-1-1.06-2.1-1.4-2.37-2.92s-.46-1.93-.88-1.83,0,3.27,1.09,4.81,3.37,3.83,3.43,5.24-2.39,3.09-2.89,4.16a17,17,0,0,1-3.46,5.84,15.68,15.68,0,0,0-3.41,4.55c-.41.86-1.13,2.32-1.79,1.9s0-2.07,1.52-4,3.2-3.3,3.58-4.78.65-3.55,1.89-4.63,2.39-2.11,2.29-2.72-1.73-.75-2.47-2.43-.19-2.37-1.11-3.14-2.6-.64-3.6-1.68-1.63-1.45-1.91-1.25,2.25,4.55,2,5.75-2.06,3.61-2.87,3.23a1.69,1.69,0,0,1-.54-2.47c.62-.87,1.08-1.75.86-2.32s-1.67-2-2.28-3.66.19-3.2-.3-4.42A20,20,0,0,0,257.19,152.24Z"/><path class="cls-17" d="M236.7,150.34a.84.84,0,0,1,.6-1.2,1.5,1.5,0,0,1,1.2,1.28,3.81,3.81,0,0,0,.45,1.9,1.09,1.09,0,0,1,.11,1.23,6.57,6.57,0,0,0-1.29,2.35c-.14,1-.6,1.38-1,1.22s-.36-1.23.23-2.25,1.17-1.88,1-2.43S237,151.09,236.7,150.34Z"/><path class="cls-33" d="M238.12,150.26c-.06.07-.24,0-.4-.25s-.24-.42-.18-.49.24,0,.4.25S238.18,150.19,238.12,150.26Z"/><path class="cls-33" d="M239.17,164.25a4,4,0,0,0,.55-.89c.21-.41.28-.68.14-.78S239.07,164.16,239.17,164.25Z"/><path class="cls-33" d="M244.47,152c.44,1,.43,1.56.35,1.61a4.79,4.79,0,0,1-.92-1.71c-.35-.93-.18-1.07-.07-1.08S244.26,151.55,244.47,152Z"/><path class="cls-33" d="M244.77,157.47c-.2.3-.42.48-.5.41s0-.37.22-.67.41-.49.49-.42S245,157.17,244.77,157.47Z"/><path class="cls-33" d="M258.16,151.89c-.07,0,.23-.29.51-.18s.69.48.68.6-.47,0-.62-.19S258.26,151.94,258.16,151.89Z"/><path class="cls-33" d="M264.49,159.83c.94.62,2.05.79,2.26.56s-.27-.53-1.22-.8-1.93-1.54-2.36-1.57S263.31,159.05,264.49,159.83Z"/><path class="cls-33" d="M269.24,165.1a1.81,1.81,0,0,0,1.62,1c.07-.07-.63-.36-1-1s-.84-1.06-1-1.06S269.24,165.1,269.24,165.1Z"/><path class="cls-17" d="M268.64,153.26s7.81,8.59,10.68,17.13c.17.52-4,9.19-10.49,17.07,0,0,1.68.56,2,.39a32.24,32.24,0,0,0,6.22-7.89c2.67-4.69,5.34-8.75,4.84-10.15s-.93-3.13-4.51-8.46c-3.69-5.5-6.35-7.64-6.83-7.8A12.67,12.67,0,0,0,268.64,153.26Z"/><path class="cls-20" d="M269.58,147.21a4.48,4.48,0,0,1-6.48,1.89,5.93,5.93,0,0,1-1.75-7.41c1.32-2.73,4.32-3.71,6.66-2.12A6,6,0,0,1,269.58,147.21Z"/><path class="cls-17" d="M267.26,140.05c-.05.17-.34.22-.64.11s-.51-.32-.46-.49.33-.22.63-.11S267.3,139.88,267.26,140.05Z"/><path class="cls-17" d="M263.52,146.56c-1.47-.69-2.38-2.06-2-3.05a1.18,1.18,0,0,1,.28-.45,1,1,0,0,1,1.45,0,4.72,4.72,0,0,0,1.26.88,4,4,0,0,0,1.43.39,1.18,1.18,0,0,1,1,1.16,1.39,1.39,0,0,1-.09.54C266.48,147,265,147.25,263.52,146.56Z"/><path class="cls-34" d="M266.74,139s-.16-3.26,2.77-9.17"/><path class="cls-21" d="M285.77,155.84a29.08,29.08,0,0,0-1.12-3.67c-.37-.64,1-.73.79-1.34-.07-.18-1.32.72-1.19,1a14.38,14.38,0,0,1,1.35,4Z"/><ellipse class="cls-21" cx="285.32" cy="159.11" rx="3.33" ry="3.3" transform="translate(-37.8 110.94) rotate(-20.67)"/><ellipse class="cls-17" cx="284.26" cy="160.72" rx="1.12" ry="1.48" transform="translate(18.15 349.99) rotate(-64.91)"/><ellipse class="cls-17" cx="282.55" cy="159.19" rx="0.28" ry="0.37" transform="translate(-30.28 73.67) rotate(-14.11)"/><path class="cls-21" d="M207.39,157.57a7.63,7.63,0,0,0,.82-2.09c.29-1,1.3-1.27,1-2.09-.09-.25-1.13,1.39-1.2,1.75a6.28,6.28,0,0,1-.84,2.4Z"/><ellipse class="cls-20" cx="206.57" cy="161.96" rx="4.51" ry="4.45" transform="translate(-43.87 83.33) rotate(-20.67)"/><ellipse class="cls-33" cx="207.93" cy="163.77" rx="0.38" ry="0.5" transform="translate(-33.65 55.62) rotate(-14.11)"/><path class="cls-35" d="M191.75,247.81a.31.31,0,0,0,0,.13l0,0a.41.41,0,0,0-.12-.09S191.61,247.82,191.75,247.81Z"/><path d="M95.37,303.13a2.31,2.31,0,0,1,1.48-2.31L99,299.76c1.43-.7,2.86-1.37,4.31-2q4.32-1.94,8.78-3.6a125.71,125.71,0,0,1,18.23-5.32,85.32,85.32,0,0,1,9.44-1.44c1.59-.15,3.17-.26,4.79-.31a46.7,46.7,0,0,1,4.88.13,39.22,39.22,0,0,1,18.36,6.08,23.71,23.71,0,0,1,7.09,6.92,10.3,10.3,0,0,1,1.13,2.44,5.12,5.12,0,0,1,.06,3.09,3.43,3.43,0,0,1-1,1.51,3.94,3.94,0,0,1-1.46.81,5.79,5.79,0,0,1-1.44.27,2.49,2.49,0,0,1-2-.67,2.84,2.84,0,0,1-.71-1.83,6,6,0,0,1,.12-1.44,12.89,12.89,0,0,1,.77-2.44,26.33,26.33,0,0,1,2.36-4.27,38.21,38.21,0,0,1,6.32-7.16,39.31,39.31,0,0,1,35.41-9,19.61,19.61,0,0,1,7.63,5.6,39.06,39.06,0,0,1,5.28,7.8,52.18,52.18,0,0,1,3.67,8.68,33.57,33.57,0,0,1,1.83,9.44A4.89,4.89,0,0,1,232,316a2.29,2.29,0,0,1-.93.69,1.75,1.75,0,0,1-.82.14,2.26,2.26,0,0,1-.73-.21,4,4,0,0,1-1.33-1.16,21.29,21.29,0,0,1-2.39-4.45,59.17,59.17,0,0,1-2.94-9.13c-1.43-6.19-2.32-12.63-1.16-19.09A29.17,29.17,0,0,1,222.9,278a15.61,15.61,0,0,1,2.27-4.45,8,8,0,0,1,1.86-1.76,10,10,0,0,1,2.23-1.14,8,8,0,0,1,5.08-.1,12.51,12.51,0,0,1,7.36,7,13.46,13.46,0,0,1,.21,10.28,10.44,10.44,0,0,1-1.29,2.31c-.53.7-1,1.27-1.59,1.88a25.58,25.58,0,0,1-3.57,3.32,7.72,7.72,0,0,1-1.07.67,2.51,2.51,0,0,1-1.4.34,1.12,1.12,0,0,1-.82-.51,1.48,1.48,0,0,1-.2-.8,2.88,2.88,0,0,1,.09-.71,1.71,1.71,0,0,1,.44-.69,6.87,6.87,0,0,1,2.21-1.26,19.37,19.37,0,0,1,2.31-.74,22.78,22.78,0,0,1,9.85-.48,15.23,15.23,0,0,1,4.87,1.82,14.61,14.61,0,0,1,4,3.49,17,17,0,0,1,2.54,4.53,34.63,34.63,0,0,1,1.44,4.67,17.1,17.1,0,0,1,.51,5.07,6.09,6.09,0,0,1-.28,1.44,2.92,2.92,0,0,1-1.07,1.53,2.13,2.13,0,0,1-1.05.36,2.21,2.21,0,0,1-1-.16,2.49,2.49,0,0,1-1.26-1.27A6.94,6.94,0,0,1,255,310a17.75,17.75,0,0,1,0-2.42,40.92,40.92,0,0,1,.57-4.71,45.35,45.35,0,0,1,2.48-9.17,10.68,10.68,0,0,1,1.28-2.22,4.67,4.67,0,0,1,1.06-1,3.44,3.44,0,0,1,1.59-.59,4.2,4.2,0,0,1,5,3.37,15.68,15.68,0,0,1,.2,5.19c-.15,1.58-.38,3.09-.43,4.49a10.18,10.18,0,0,0,.08,1.95,4.52,4.52,0,0,0,.2.77,1.73,1.73,0,0,0,.23.43,2.7,2.7,0,0,0,2.54.62,6.81,6.81,0,0,0,3.28-1.58,9.83,9.83,0,0,0,2.41-3.15c.29-.59.59-1.35.88-2.06l.87-2.15c.57-1.43,1.11-2.87,1.56-4.3a19.07,19.07,0,0,0,.55-2.13,7.17,7.17,0,0,0,.11-1,1.84,1.84,0,0,0-.07-.65s.09,0-.13-.06,0,0,0,0,0,0,0,0a.81.81,0,0,0-.19.19,5.63,5.63,0,0,0-.76,1.83,29.7,29.7,0,0,0-.58,9.05,23,23,0,0,0,.75,4.48,9.44,9.44,0,0,0,.81,2,2.29,2.29,0,0,0,1.36,1.24,2.36,2.36,0,0,0,1.74-.64,13.1,13.1,0,0,0,1.67-1.51,37.37,37.37,0,0,0,2.92-3.56c1.82-2.49,3.49-5.11,5.09-7.77a172.33,172.33,0,0,0,8.56-16.53c1.26-2.83,2.46-5.69,3.47-8.6a29.76,29.76,0,0,0,1.18-4.39,6.53,6.53,0,0,0,.1-1.05,1.66,1.66,0,0,0-.1-.7s.09.11.14.11,0,0-.06,0a.59.59,0,0,0-.17,0,2.85,2.85,0,0,0-.77.4,12.37,12.37,0,0,0-2.75,3.27,39,39,0,0,0-2.18,4c-1.32,2.74-2.44,5.59-3.5,8.45a93.24,93.24,0,0,0-4.84,17.51,29.43,29.43,0,0,0-.33,4.34,7.22,7.22,0,0,0,.75,3.54,1.41,1.41,0,0,0,.85.61A4.2,4.2,0,0,0,294,306a6.83,6.83,0,0,0,3.3-1.88,11.58,11.58,0,0,0,3.22-7.59,7.41,7.41,0,0,0-.76-4,3.42,3.42,0,0,0-1.36-1.41,3.06,3.06,0,0,0-2.06-.31,1.77,1.77,0,0,0-.87.46.37.37,0,0,0-.09.31.42.42,0,0,0,.23.17,7.11,7.11,0,0,0,2.17.31,30.75,30.75,0,0,0,4.59-.36,37,37,0,0,0,4.47-1,13.5,13.5,0,0,0,2.06-.75,3.08,3.08,0,0,0,.78-.47c.08-.06.13-.15.08-.1s-.12.37,0,.49-.05,0,0,.11a.58.58,0,0,0,.35.11.61.61,0,0,0,.33-.08c.15-.11-.07.16-.15.42a11.72,11.72,0,0,0-.48,2,26.46,26.46,0,0,0-.32,4.37A17.59,17.59,0,0,0,310,301a4.59,4.59,0,0,0,.67,1.55,1.17,1.17,0,0,0,.33.3,1.05,1.05,0,0,0,.41.07,2,2,0,0,0,1.25-.41,5.4,5.4,0,0,0,1.21-1.32,16.24,16.24,0,0,0,1.83-3.84,62.39,62.39,0,0,0,2.25-8.83h0a.66.66,0,0,1,1.29-.2l0,.14a110,110,0,0,1,4.05,24.31,52.71,52.71,0,0,1-.09,6.28,31.53,31.53,0,0,1-1,6.33,14.34,14.34,0,0,1-3.06,6,8,8,0,0,1-3,2.08,8.37,8.37,0,0,1-3.48.56,9,9,0,0,1-3.38-.72,6.34,6.34,0,0,1-2.7-2.27,9.45,9.45,0,0,1-1.07-6.43,23.23,23.23,0,0,1,1.75-6,44.72,44.72,0,0,1,2.87-5.49A68.73,68.73,0,0,1,326.81,295,103.29,103.29,0,0,1,348,282.34a68.58,68.58,0,0,1,11.84-4,41.67,41.67,0,0,1,19.08-.2,51.23,51.23,0,0,1,6.15,1.83c4,1.47,7.76,3.29,11.44,5a100,100,0,0,0,11,4.54,44.38,44.38,0,0,0,11.11,2.15,4,4,0,0,1-.51,8l-.4-.05h0a57.32,57.32,0,0,1-12.59-3.71,104.55,104.55,0,0,1-11.22-5.77c-7.06-4.12-14-7.93-21.69-8.85s-15.64.76-23.09,3.66a96.59,96.59,0,0,0-21.21,11.5,78.42,78.42,0,0,0-9.23,7.83,55.82,55.82,0,0,0-7.67,9.35,25.91,25.91,0,0,0-4.21,11.12A7.71,7.71,0,0,0,308,330a5.29,5.29,0,0,0,4.68,1.74,5.48,5.48,0,0,0,4.34-2.21,13,13,0,0,0,2.05-5,37.45,37.45,0,0,0,.7-5.77c.1-2,.09-3.95.05-5.94-.22-8-1.32-16-1.88-24.22l1.33-.06h0a36.58,36.58,0,0,1-1,9.51,18.7,18.7,0,0,1-1.86,4.7,8.17,8.17,0,0,1-1.88,2.15,5.18,5.18,0,0,1-3.07,1.12,3.78,3.78,0,0,1-1.86-.39,4.16,4.16,0,0,1-1.43-1.19,7.69,7.69,0,0,1-1.24-2.69,17.31,17.31,0,0,1-.46-5.06,23.41,23.41,0,0,1,.68-4.9,11.7,11.7,0,0,1,.89-2.47,3.43,3.43,0,0,1,1.22-1.44,1.87,1.87,0,0,1,.88-.24,1.74,1.74,0,0,1,.9.26,2.29,2.29,0,0,1,.83,1,1.76,1.76,0,0,1-.13,1.6,2.24,2.24,0,0,1-.74.72,5.38,5.38,0,0,1-1.29.59,15.88,15.88,0,0,1-2.42.56,38.17,38.17,0,0,1-4.74.45,39.47,39.47,0,0,1-4.74,0,7.26,7.26,0,0,1-2.4-.5.9.9,0,0,1-.54-.63.93.93,0,0,1,.25-.77,2.29,2.29,0,0,1,1.15-.64,4.72,4.72,0,0,1,2.53,0,4.43,4.43,0,0,1,2.27,1.39,7.87,7.87,0,0,1,1.55,4.9,13.92,13.92,0,0,1-3.23,9.48,9.79,9.79,0,0,1-4.52,3,6.85,6.85,0,0,1-3,.26,4.84,4.84,0,0,1-3-1.86,8,8,0,0,1-1.21-2.75,13.64,13.64,0,0,1-.37-2.63,26.41,26.41,0,0,1,.2-5,59.93,59.93,0,0,1,2-9.4,73.83,73.83,0,0,1,3.23-8.94,68.51,68.51,0,0,1,4.39-8.46,41.77,41.77,0,0,1,2.73-4,15,15,0,0,1,3.61-3.49,4.91,4.91,0,0,1,1.34-.56,2.76,2.76,0,0,1,.4-.06,1.5,1.5,0,0,1,1.58.77,3,3,0,0,1,.23,1.59,10.06,10.06,0,0,1-.18,1.26,35.09,35.09,0,0,1-1.43,4.56c-1.1,2.95-2.38,5.8-3.72,8.62-2.72,5.62-5.62,11.15-8.84,16.49-1.59,2.69-3.26,5.33-5.09,7.87a39.83,39.83,0,0,1-3,3.68,14.59,14.59,0,0,1-1.76,1.65,5.18,5.18,0,0,1-1.1.66,2.36,2.36,0,0,1-1.43.2,3.28,3.28,0,0,1-2.08-1.7,10.21,10.21,0,0,1-1-2.27,26.12,26.12,0,0,1-.9-4.68,37.69,37.69,0,0,1-.24-4.75,27.87,27.87,0,0,1,.43-4.79,7.25,7.25,0,0,1,.91-2.5,2.45,2.45,0,0,1,.61-.65,1.64,1.64,0,0,1,.51-.26,1.83,1.83,0,0,1,.54-.1,2.34,2.34,0,0,1,1,.17,2.1,2.1,0,0,1,.86.75,3.44,3.44,0,0,1,.44,1.61,8.43,8.43,0,0,1,0,1.34,22.78,22.78,0,0,1-.42,2.43c-.36,1.57-.81,3.09-1.27,4.6l-.71,2.24c-.25.75-.46,1.46-.79,2.3a12.57,12.57,0,0,1-2.93,4.41,10,10,0,0,1-4.9,2.66,7.55,7.55,0,0,1-3.07,0,5.61,5.61,0,0,1-3-1.71,5.08,5.08,0,0,1-.94-1.57,7.35,7.35,0,0,1-.4-1.49,14.1,14.1,0,0,1-.16-2.7c.06-1.71.27-3.29.47-4.8a22.76,22.76,0,0,0,.35-4.11,2,2,0,0,0-.33-1.13,1.86,1.86,0,0,0-1.33-.52,1.64,1.64,0,0,0-1.37.53,7.55,7.55,0,0,0-1.35,1.62,22.1,22.1,0,0,0-2.91,8.61,26.25,26.25,0,0,0-.27,4.59,14.91,14.91,0,0,0,.23,2.23,5.37,5.37,0,0,0,.67,1.9c.15.23.32.34.38.32s.21-.07.15-.1a3.38,3.38,0,0,0,.09-1.3,16.77,16.77,0,0,0-1.14-4.09c-.53-1.37-1.18-2.71-1.85-4.05a15.91,15.91,0,0,0-2.2-3.47,17.05,17.05,0,0,0-6.59-4.65,19,19,0,0,0-8.65-1.4,11.52,11.52,0,0,0-2.2.39,5.19,5.19,0,0,0-1.91.89.71.71,0,0,0-.2.26,1.57,1.57,0,0,0-.07.45.7.7,0,0,0,.06.31c0,.05.05.06.15.07a1.59,1.59,0,0,0,.81-.29,6.31,6.31,0,0,0,.84-.65,14.68,14.68,0,0,0,2.62-3.64c.36-.66.72-1.38,1-2a11,11,0,0,0,.59-1.93,16.43,16.43,0,0,0-.69-8,17.15,17.15,0,0,0-1.67-3.8,7.82,7.82,0,0,0-2.89-2.93,4.86,4.86,0,0,0-4.05-.32,6.06,6.06,0,0,0-1.86,1.06,5.3,5.3,0,0,0-1.37,1.57C225,276.92,224.87,280,225,283s.46,6,.75,9,.72,6,1.21,9,1.09,6,1.89,8.89a19.15,19.15,0,0,0,1.52,4c.14.25.36.48.31.46a1,1,0,0,0-.18,0,.64.64,0,0,0-.24,0s0,.05,0,0a2.58,2.58,0,0,0,.56-1.49,16.16,16.16,0,0,0-.12-4.43,31.65,31.65,0,0,0-1-4.48,50.1,50.1,0,0,0-3.29-8.61,36.5,36.5,0,0,0-5-7.7,17.8,17.8,0,0,0-7.31-5.27,16.82,16.82,0,0,0-4.46-.8,41.68,41.68,0,0,0-4.61-.12,36.66,36.66,0,0,0-9.07,1.36,38,38,0,0,0-15.75,9,36,36,0,0,0-5.81,7,22.15,22.15,0,0,0-2,4,10.75,10.75,0,0,0-.56,2,3.37,3.37,0,0,0,0,.88.66.66,0,0,0,.07.31c0-.08-.21-.06.12-.09a3,3,0,0,0,.85-.18,1.14,1.14,0,0,0,.8-.77,2.62,2.62,0,0,0-.16-1.48,8,8,0,0,0-.91-1.76,21,21,0,0,0-6.44-5.74,36,36,0,0,0-16.92-4.9,53.2,53.2,0,0,0-9,.49c-3,.38-6,.92-9,1.58a121.07,121.07,0,0,0-17.49,5.41q-4.27,1.68-8.44,3.62-2.08,1-4.12,2l-2,1.06a2.22,2.22,0,0,1-2.63-.09l-.11-.07A2.09,2.09,0,0,1,95.37,303.13Z"/><path d="M130.39,317.3a.85.85,0,0,1-.3-.75,2.25,2.25,0,0,1,.12-.54,2.31,2.31,0,0,1,.21-.45,14.4,14.4,0,0,1,2.21-3.29,23,23,0,0,1,7.07-5.58,17.66,17.66,0,0,1,2.14-.92l.11,0a.59.59,0,0,1,.53.08,1.14,1.14,0,0,1,.17.15c.23.29.32.55.23.72a1,1,0,0,1-.49.47c-1.11.71-1.67,1-2.8,1.79a36,36,0,0,0-5,3.8l-.08.09v.1l.14-.09,1.3-1.06a21.52,21.52,0,0,1,2.62-1.85c2.46-1.58,4.64-2,6.65-1.54a4.6,4.6,0,0,1,1.25.54,2.57,2.57,0,0,1,1.12,1.23,1.62,1.62,0,0,1,0,1.12,2.51,2.51,0,0,1-1.62,1.34,4.07,4.07,0,0,1-2.79-.15c-.92-.36-1.86-.78-2.78-1.19l-1.15-.46a.89.89,0,0,0-.95,0l-.78.61q-.72.51-1.41,1.08c-.89.75-1.8,1.52-2.74,2.36s-1.29,1.2-2.18,2.11C130.92,317.37,130.63,317.47,130.39,317.3Zm9.23-6.91a.38.38,0,0,0,.13.06h.1l2.16.81c.5.17,1,.32,1.52.45a3.17,3.17,0,0,0,3.11-.67,1.27,1.27,0,0,0,.28-.43,1,1,0,0,0-.59-1.2,3.17,3.17,0,0,0-1.21-.45,5.72,5.72,0,0,0-2.26,0,10.06,10.06,0,0,0-3.19,1.16l-.07,0a.12.12,0,0,0-.06.06.11.11,0,0,0,0,.08A.25.25,0,0,0,139.62,310.39Z"/><path d="M153.2,319.87a1,1,0,0,1-.51-1,3.16,3.16,0,0,1,.14-.55,3.21,3.21,0,0,1,.32-.61,8.19,8.19,0,0,1,1.93-2,.12.12,0,0,1,0-.05.05.05,0,0,0,0,0l.07,0a.27.27,0,0,0,.07-.08c0-.08,0-.17-.19-.26a.43.43,0,0,0-.27-.06l-.3.06-.14,0c-.67.13-1.33.28-2,.43a27.61,27.61,0,0,1-2.92.54,1.87,1.87,0,0,1-1.26-.23,1.24,1.24,0,0,1-.6-1,1.72,1.72,0,0,1,.1-.7,2,2,0,0,1,.19-.36,4.76,4.76,0,0,1,3-2,3.69,3.69,0,0,1,2.69.48,4.65,4.65,0,0,1,1.55,1.48c.08.12.15.24.22.37a.66.66,0,0,0,.22.26,2.4,2.4,0,0,0,1-.12l.41-.09a.92.92,0,0,1,.59.05.79.79,0,0,1,.2.17.66.66,0,0,1,.13.63,5,5,0,0,1-1.56,1.31,17.19,17.19,0,0,0-1.65,1.27,4,4,0,0,0-1.11,1.27,1.13,1.13,0,0,0-.08.34,1.55,1.55,0,0,0,.81,0l2.11-.47a24.29,24.29,0,0,1,2.6-.4,1.75,1.75,0,0,1,.51,0l.07,0a.17.17,0,0,1,.1.1.1.1,0,0,1,0,.09s-.1.08-.26.1a19.91,19.91,0,0,0-3.95.84l-.67.18A2.12,2.12,0,0,1,153.2,319.87Zm-4.53-4.12a.39.39,0,0,0,.23.07H149a8.16,8.16,0,0,0,2.74-.38l1.73-.37a2.93,2.93,0,0,0,.95-.28c0-.1-.21-.31-.73-.66l-.1-.07a3.06,3.06,0,0,0-1.91-.47,4.53,4.53,0,0,0-2.82,1.34,1.34,1.34,0,0,0-.31.45.31.31,0,0,0,.05.27A.29.29,0,0,0,148.67,315.75Z"/><path d="M153.3,330.28A2.29,2.29,0,0,1,152,328a2.72,2.72,0,0,1,.53-1.42,9.64,9.64,0,0,1,3.26-2.81,36.79,36.79,0,0,1,3.33-1.57c.19-.06.3-.12.33-.2s0-.21-.14-.44a3.2,3.2,0,0,1-.42-2.41,1.54,1.54,0,0,1,.4-.6,4.55,4.55,0,0,1,3.05-.92,3.65,3.65,0,0,1,1.36.18,3.6,3.6,0,0,1,.54.22,2.46,2.46,0,0,1,.75.61,1,1,0,0,1,.23.82.33.33,0,0,1-.14.17.26.26,0,0,1-.35.06.82.82,0,0,1-.22-.17,1.08,1.08,0,0,0-.34-.28.88.88,0,0,0-.42-.11,5,5,0,0,0-3.39.65.92.92,0,0,0-.33.39,1.64,1.64,0,0,0,.19,1.3.36.36,0,0,0,.13.14,4.51,4.51,0,0,0,1.32-.41c2.34-.88,5-1.67,8-2.59l.91-.3,0-.1-2.17-1c-1.47-.66-2.36-1.08-2.66-1.23a14.73,14.73,0,0,1-1.84-1.11,2.35,2.35,0,0,1-.64-.59.34.34,0,0,1,0-.2.21.21,0,0,1,.14-.1,1.83,1.83,0,0,1,1,.32l4.88,2.37,2.12,1a1.09,1.09,0,0,0,.87.08c1.34-.43,2.74-.81,4.19-1.17,2.16-.58,3.51-.85,4.06-.62a1,1,0,0,1,.6,1.07l0,.09a6.85,6.85,0,0,1-2.38,2.57l-.68.55-.11.06a.37.37,0,0,0-.11.18v0a1.09,1.09,0,0,0,.24.14c2.51,1.15,3.93,1.78,4.22,2l.08.05c.25.17.37.33.33.44s-.13.18-.23.15a1.46,1.46,0,0,1-.32-.1c-.76-.36-1.52-.69-2.28-1l-2.31-1a.7.7,0,0,0-.78,0,80.52,80.52,0,0,0-8.57,6.55,14.43,14.43,0,0,0-2.62,3.14,4.64,4.64,0,0,0-.34.75c0,.09-.06.18-.1.28s0,.17.06.21a.35.35,0,0,0,.18,0c.89-.11,2.28-.93,4.11-2.24.48-.34,1-.66,1.45-1l.39-.22a12.09,12.09,0,0,1,2.53-1.3,8.53,8.53,0,0,1,2.48-.48,1.43,1.43,0,0,1,.66.07.24.24,0,0,1,.15.16v.06s-.07.06-.17.05a8.13,8.13,0,0,0-1.19.12,10.44,10.44,0,0,0-3.53,1.33c-.81.5-1.63,1-2.42,1.62l-1.64,1.19a12.27,12.27,0,0,1-1.78,1.09,2.57,2.57,0,0,1-1,.35,1.47,1.47,0,0,1-.79-.12,1.32,1.32,0,0,1-.7-1.07,3.09,3.09,0,0,1,.19-1.28l.15-.42a8.66,8.66,0,0,1,1.74-3,33.67,33.67,0,0,1,8.7-6.71l.08-.05a.59.59,0,0,0,.11-.08.23.23,0,0,0,.08-.11s0-.09-.13-.14l-.07,0c-1.36-.62-2.17-1-2.41-1.06l-.2-.08-.17-.09a1.13,1.13,0,0,0-1.08,0c-3.23,1-6.37,1.89-9.44,3l-.3.12-.32.12a.27.27,0,0,0-.19.14.38.38,0,0,0,.06.31,5.57,5.57,0,0,1,.34.7,1.63,1.63,0,0,0,.09.19,5,5,0,0,1,.32,3.77,4.84,4.84,0,0,1-.77,1.35,6.23,6.23,0,0,1-6.07,2.14A3.27,3.27,0,0,1,153.3,330.28Zm.14-.65a2.57,2.57,0,0,0,1.22.31,5.54,5.54,0,0,0,3.75-.82,4.93,4.93,0,0,0,2.24-3.51,5.14,5.14,0,0,0-.7-2.74.57.57,0,0,0-.2-.3,9,9,0,0,0-2,.83,16.39,16.39,0,0,0-3.65,2.39,5.49,5.49,0,0,0-1.33,1.71c0,.1,0,.19-.07.28l0,.12a1.34,1.34,0,0,0,.63,1.66Zm22.2-10a.44.44,0,0,0,.49-.05l1-.62a24.64,24.64,0,0,0,2.59-1.81l.09-.09a.45.45,0,0,0,.21-.28.55.55,0,0,0-.35,0,6.6,6.6,0,0,0-1.36.14c-1.84.37-3.6.81-5.31,1.3l-.05,0-.07,0a.07.07,0,0,0,0,0v.08C174,318.88,174.52,319.13,175.64,319.64Z"/><path d="M174.5,331.06c-.4-.18-.52-.56-.34-1.11a2.67,2.67,0,0,1,.43-.8,10.4,10.4,0,0,1,4.25-3.19,1.61,1.61,0,0,1,1.33-.17,1.17,1.17,0,0,1,.47.36.7.7,0,0,1,.22.61c-.06.19-.57.49-1.42.9a21.8,21.8,0,0,0-3.22,2l-.15.12.08.06,2.8-1.52a5.62,5.62,0,0,1,2.19-.85,1.31,1.31,0,0,1,.5.08.86.86,0,0,1,.49.56,1.89,1.89,0,0,1,0,1,.56.56,0,0,0,0,.41.63.63,0,0,0,.37.27,11.05,11.05,0,0,0,3.45.8.47.47,0,0,1,.24,0,.19.19,0,0,1,.14.12.32.32,0,0,1,0,.12q0,.1-.24.12a5.27,5.27,0,0,1-1.25,0,16.53,16.53,0,0,1-2.61-.55,1.5,1.5,0,0,1-1.08-1.68c.07-.23.11-.35.18-.59a1.33,1.33,0,0,0-.72.12l0,0a17.17,17.17,0,0,0-2.39,1.19l-1.3.73-1.28.74A1.18,1.18,0,0,1,174.5,331.06Z"/><path d="M185,335.15a1.19,1.19,0,0,1-.81-1.26l.15-.48a8.8,8.8,0,0,1,4-4.36,1.69,1.69,0,0,1,.61-.2,1.2,1.2,0,0,1,.65.06,1.38,1.38,0,0,1,.61.47.66.66,0,0,1,.18.58.61.61,0,0,1-.32.34,13,13,0,0,0-4.56,3.52,1.32,1.32,0,0,0-.29.5c-.06.19,0,.31.11.36a.84.84,0,0,0,.29.05,4.31,4.31,0,0,0,1-.09,16,16,0,0,0,2.29-.54,17.36,17.36,0,0,1,3.54-.68,1.68,1.68,0,0,1,.74,0c.13.05.2.14.18.23s-.06.06-.14.06h-.05a14.39,14.39,0,0,0-3,.52c-.56.13-1.11.28-1.65.44-.7.2-1.27.35-1.7.43A3.24,3.24,0,0,1,185,335.15Zm6-6.22a1.86,1.86,0,0,1-.37-.19.86.86,0,0,1-.33-1,1.11,1.11,0,0,1,1-.65,1,1,0,0,1,.43.05.82.82,0,0,1,.55.69,1.54,1.54,0,0,1,0,.64.71.71,0,0,1-.62.47A1.28,1.28,0,0,1,191,328.93Z"/><path d="M193.11,337.89a2,2,0,0,1-1.21-1,2.39,2.39,0,0,1-.08-1.68,4.65,4.65,0,0,1,3.73-2.82,4.75,4.75,0,0,1,1.55,0,2.35,2.35,0,0,1,.4.09,2.38,2.38,0,0,1,.7.38c.42.34.59.67.5,1a.87.87,0,0,1-.15.26,3.59,3.59,0,0,1-2.72.94,3.82,3.82,0,0,1-1.33-.22.35.35,0,0,0-.42.09,2.73,2.73,0,0,0-.83,1.25,2,2,0,0,0-.11.72.42.42,0,0,0,.33.36l.19,0a2.83,2.83,0,0,0,1.37-.07l1.6-.5.94-.34a8.72,8.72,0,0,1,3-.48h.05l.09,0a.29.29,0,0,1,.13,0s.08,0,.09.08a.17.17,0,0,1,0,.08s-.08.07-.2.08l-.1,0a.44.44,0,0,1-.18,0,11.32,11.32,0,0,0-3.47,1l-.15.08A4.85,4.85,0,0,1,193.11,337.89Zm1.68-3.39a.29.29,0,0,0,.14,0H195a4.29,4.29,0,0,0,2-.31,1.47,1.47,0,0,0,.62-.43.13.13,0,0,1,0-.07.19.19,0,0,0,.05-.1.15.15,0,0,0,0-.12.24.24,0,0,0-.11-.09l-.14,0-.1,0a1.11,1.11,0,0,0-.37,0,4.27,4.27,0,0,0-2.25.94l0,.1A.33.33,0,0,0,194.79,334.5Z"/><path d="M193.9,350a3.47,3.47,0,0,1-1.59-1.06,3,3,0,0,1-.7-2.82,6.13,6.13,0,0,1,1.84-2.72,12.07,12.07,0,0,1,4-2.41,22.74,22.74,0,0,1,2.65-.86l.41-.12a1.35,1.35,0,0,0-.32-.35l-.14-.11a2.49,2.49,0,0,1-.89-1.78,1.27,1.27,0,0,1,0-.34,1.37,1.37,0,0,1,.32-.56,3.71,3.71,0,0,1,1.35-1.12,10.57,10.57,0,0,1,6.09-1,5.53,5.53,0,0,1,.95.17,4.14,4.14,0,0,1,1.4.68,2.23,2.23,0,0,1,.82,1.05.6.6,0,0,1,0,.41.62.62,0,0,1-.48.42.33.33,0,0,1-.25,0,.25.25,0,0,1-.16-.11,3.27,3.27,0,0,0-1.33-.75,5.84,5.84,0,0,0-.87-.15,9.31,9.31,0,0,0-5.81.95,1.52,1.52,0,0,0-.52.45.83.83,0,0,0,.16,1.29l.14.13a1.87,1.87,0,0,0,.5.39,1.89,1.89,0,0,0,.62-.07,28.92,28.92,0,0,1,8.41-.45c1.61.12,2.46.14,2.51.15s.2.11.18.21a.12.12,0,0,1-.12.09l-.19,0h-.11c-1.85,0-3.68-.06-5.47,0a31.87,31.87,0,0,0-4.84.5l-.22.05c0,.08,0,.15.16.22a8.88,8.88,0,0,1,1.11.93,3.39,3.39,0,0,1,1.22,3.53,1.06,1.06,0,0,1-.06.19,6.26,6.26,0,0,1-2.8,3.35,10.78,10.78,0,0,1-7.27,1.72A3.73,3.73,0,0,1,193.9,350Zm0-.94a4.75,4.75,0,0,0,1.27.18,10.37,10.37,0,0,0,6.27-2.08,6.21,6.21,0,0,0,2.24-3v0c.23-.76-.13-1.6-1.07-2.55l-.6-.49-.43-.33a.94.94,0,0,0-.37-.21.78.78,0,0,0-.5,0,18.48,18.48,0,0,0-5.2,2.1,8.69,8.69,0,0,0-2.7,2.56,3.39,3.39,0,0,0-.47,1,2.31,2.31,0,0,0,.28,1.92,2,2,0,0,0,1.17.89Z"/><path d="M218.4,351.64l-.08,0c-.09-.06-.12-.13-.1-.2a1.06,1.06,0,0,1,.32-.44,15.47,15.47,0,0,1,2.11-1.69c.18-.11.26-.17.44-.27s.38-.23.41-.34-.07-.22-.29-.34l-.2-.14a3,3,0,0,1-.87-3.14,4.92,4.92,0,0,1,.89-1.73,12,12,0,0,1,4-3.27,26.7,26.7,0,0,1,7.31-2.66l1-.19a2.77,2.77,0,0,0-.6-.17l-.17,0a23.39,23.39,0,0,1-2.91-.57c-1.42-.37-2.08-.82-2-1.35a1.09,1.09,0,0,1,.4-.59,4.69,4.69,0,0,1,1.26-.74,18.58,18.58,0,0,1,7.42-1.52,10.2,10.2,0,0,1,1.46.07,4.27,4.27,0,0,1,3,1.29,1,1,0,0,1,.24.63.76.76,0,0,1-.27.53.43.43,0,0,1-.32.14.51.51,0,0,1-.28-.17,2.13,2.13,0,0,0-1.06-.43l-.16,0c-.58-.11-1.14-.2-1.69-.27a19.35,19.35,0,0,0-7.69.64,4.43,4.43,0,0,0-1.26.5c-.13.08-.2.16-.21.23s.06.18.22.28a4.1,4.1,0,0,0,.88.38,19.23,19.23,0,0,0,3.44.77A24.26,24.26,0,0,0,236,337c.55,0,.95,0,1.16,0l.15,0c.27,0,.42.18.4.37s-.12.22-.3.25a6.66,6.66,0,0,1-.76.12,26.88,26.88,0,0,0-8.82,2.43,13.77,13.77,0,0,0-5.29,4.06,4.15,4.15,0,0,0-.69,1.42c0,.17,0,.25-.09.43a1.72,1.72,0,0,0,.45,1.5.64.64,0,0,0,.4.3.83.83,0,0,0,.49-.16,49.57,49.57,0,0,1,4.43-2.23.4.4,0,0,0,.36-.31,3.76,3.76,0,0,1,2.09-2.14,13.51,13.51,0,0,1,6.94-1.43l.41,0a6.59,6.59,0,0,1,2.12.57,3.33,3.33,0,0,1,1.23.9,1.51,1.51,0,0,1,.34,1.13,1.24,1.24,0,0,1-.13.43,4.78,4.78,0,0,1-2.28,2.14,27.09,27.09,0,0,1-5.93,2.11,27.41,27.41,0,0,1-5.53.8,14.44,14.44,0,0,1-2.55-.14,7.8,7.8,0,0,1-2.07-.55,1,1,0,0,0-.28-.07.63.63,0,0,0-.45.1l-.15.09a13.24,13.24,0,0,0-2.82,2.16C218.66,351.58,218.51,351.66,218.4,351.64Zm6.71-2.86a10.94,10.94,0,0,0,1.19.11,24.6,24.6,0,0,0,8.94-1.29,14.7,14.7,0,0,0,3.5-1.62,3.75,3.75,0,0,0,1.29-1.35,1.17,1.17,0,0,0,.12-.39c.09-.67-.45-1.19-1.59-1.59a7.27,7.27,0,0,0-1.37-.29,8.66,8.66,0,0,0-1.25,0,12,12,0,0,0-4.31.92,6.77,6.77,0,0,0-2.43,1.52,1.85,1.85,0,0,0,.58-.13,15.6,15.6,0,0,1,1.79-.55,10.34,10.34,0,0,1,1.82-.28l.34,0a1.93,1.93,0,0,1,.89.31.64.64,0,0,1,.3.65,1.41,1.41,0,0,1-.7.91,7.17,7.17,0,0,1-3.58,1.16,5,5,0,0,1-1.1,0,2.27,2.27,0,0,1-1.42-.7.28.28,0,0,0-.17-.09.26.26,0,0,0-.15,0l-.14.05-.12.06c-1.34.59-2.64,1.21-3.9,1.9l-.08,0-.1.06c-.05,0-.07.06-.09.12s.09.09.28.15A8.6,8.6,0,0,0,225.11,348.78Zm4.5-2.48.31,0a6.31,6.31,0,0,0,3.66-1.1.85.85,0,0,0,.35-.45c0-.17-.07-.29-.31-.31h-.06a4.83,4.83,0,0,0-1.52.16.11.11,0,0,0-.08,0,19.62,19.62,0,0,0-2.76.85q-.33.13-.36.3c0,.15.1.3.41.45A2.09,2.09,0,0,0,229.61,346.3Z"/><path d="M250.41,348.45a2,2,0,0,1-1.48-.64,1.29,1.29,0,0,1-.27-.8,1.37,1.37,0,0,1,.07-.34,7.64,7.64,0,0,1,4-4.13,5.75,5.75,0,0,1,2.58-.67h.39a4.8,4.8,0,0,1,1.66.32c.39.15.62.37.65.63s-.11.28-.35.28a1.1,1.1,0,0,1-.29-.05,3.48,3.48,0,0,0-.74-.1h-.42a7.14,7.14,0,0,0-3.11,1,8.46,8.46,0,0,0-2.67,2.49,1.45,1.45,0,0,0-.39.93c0,.08,0,.13,0,.21s.18.34.51.35a5,5,0,0,0,1.62-.29A34.65,34.65,0,0,0,256,346.2l.27-.12a27.76,27.76,0,0,1,4.2-1.52l.41-.09.36-.08a1.1,1.1,0,0,1,.28,0,1,1,0,0,1,.28,0c.1,0,.16.07.16.12s0,.1-.17.11a18.56,18.56,0,0,0-2.85.82c-1.17.45-2.33.94-3.46,1.47-.92.42-1.91.82-2.92,1.18A5.55,5.55,0,0,1,250.41,348.45Z"/><path d="M262.34,348.35a1.93,1.93,0,0,1-1.56-.66,1.47,1.47,0,0,1-.28-.71c0-.11,0-.17,0-.29a5.34,5.34,0,0,1,1.8-3.28,3.52,3.52,0,0,1,1.06-.68,3.18,3.18,0,0,1,1.19-.22,3.5,3.5,0,0,1,1,.13,1.67,1.67,0,0,0,1,0l.88-.22,1.06-.29a3.79,3.79,0,0,1,.92-.16,1.09,1.09,0,0,1,1.23.85,4,4,0,0,1-.77,2.54l-.41.84c.63-.44,1.22-.9,1.78-1.37a37,37,0,0,1,3.28-2.36,1.59,1.59,0,0,1,.83-.3.93.93,0,0,1,.8.33l.07.17a.81.81,0,0,1,0,.41,8.58,8.58,0,0,1-.47,1.37,7.21,7.21,0,0,0-.5,1.53,1,1,0,0,0,0,.43.21.21,0,0,0,.23.16.68.68,0,0,0,.21,0,38.41,38.41,0,0,0,3.54-2.1l.9-.53a1.6,1.6,0,0,1,.52-.18.4.4,0,0,1,.29.09l.05.06a.16.16,0,0,1,0,.08,2.39,2.39,0,0,1-.34.23c-.2.11-.72.48-1.6,1.11l-1.39,1a9,9,0,0,1-1.13.67,2.61,2.61,0,0,1-.93.24,1.46,1.46,0,0,1-1.12-.36,1.27,1.27,0,0,1-.36-.6c0-.1,0-.15,0-.24a4.83,4.83,0,0,1,.42-1.82c.23-.5.35-.76.57-1.27a4,4,0,0,0-.86.43,25.36,25.36,0,0,0-4.72,3.86l-.56.58a.82.82,0,0,1-.71.38.88.88,0,0,1-.64-.25.85.85,0,0,1-.21-.41v-.28A11.57,11.57,0,0,1,269,343l.06-.08c.08-.11.12-.19.11-.25a.19.19,0,0,0-.09-.09.3.3,0,0,0-.2,0l-.24,0-.24.06a15.33,15.33,0,0,0-1.79.36c-.23.05-.34.12-.33.22a.56.56,0,0,0,.11.19,1.62,1.62,0,0,1,.4.78,1.47,1.47,0,0,1,0,.59,5.16,5.16,0,0,1-2.8,3.12A3.26,3.26,0,0,1,262.34,348.35Zm.18-.68.14,0a1.89,1.89,0,0,0,.77-.26,4.59,4.59,0,0,0,2.41-2.49,2.45,2.45,0,0,0,.1-.69v-.1a1,1,0,0,0-.25-.54.41.41,0,0,0-.31-.12,1.85,1.85,0,0,0-.71.31,5.55,5.55,0,0,0-2.47,3.32.45.45,0,0,0,0,.23l.05.16C262.24,347.6,262.34,347.67,262.52,347.67Z"/><path d="M280.39,359.65a1.76,1.76,0,0,1-1.53-.89,5.64,5.64,0,0,1-.46-1.37,12.56,12.56,0,0,1-.16-3.48,27,27,0,0,1,2-9.17,21.9,21.9,0,0,1,2.71-5,3.55,3.55,0,0,1,1.48-1.22l.27-.06a1.57,1.57,0,0,1,.69.09.68.68,0,0,1,.38.3c0,.08,0,.18-.12.28a3.36,3.36,0,0,0-1,1.2,27.7,27.7,0,0,0-1.84,3.7c-.43,1-.76,1.86-1,2.41l0,.1a.33.33,0,0,0,0,.3,19.68,19.68,0,0,1,7-3.89l.12,0,.15,0a.53.53,0,0,1,.21,0h0s0,.07,0,.09l-.09,0-.07,0a29.07,29.07,0,0,0-5.51,2.9,6,6,0,0,0-1.32,1.22,1.48,1.48,0,0,0-.35,1.37,1.93,1.93,0,0,0,.5.79,5.61,5.61,0,0,1,1.52,2.41,4.06,4.06,0,0,1,0,1.87,13.51,13.51,0,0,1-1.81,4.53A2.38,2.38,0,0,1,280.39,359.65Zm.09-1.1a.33.33,0,0,0,.23-.1,1.1,1.1,0,0,0,.14-.18,1,1,0,0,1,.1-.15,10.62,10.62,0,0,0,2.32-5.23,3,3,0,0,0-.08-1,5.29,5.29,0,0,0-1.16-2,11.3,11.3,0,0,1-.83-1.13l-.11.2a32.81,32.81,0,0,0-1.17,7,5.22,5.22,0,0,0,.08,1.84c0,.21.06.32.09.54A.35.35,0,0,0,280.48,358.55Z"/><path d="M291.8,346.6a2.6,2.6,0,0,1-1.74-.35,2.64,2.64,0,0,1-1.11-1.36c-.44-1.39.15-2.72,1.56-3.84a4.37,4.37,0,0,1,1.36-.63,1.89,1.89,0,0,1,.4-.08,2.64,2.64,0,0,1,.84,0c.57.1.92.29,1,.58a.59.59,0,0,1,0,.27c-.09.69-.67,1.32-1.78,1.88a3.9,3.9,0,0,1-1.3.38c-.2,0-.31.11-.32.25a2.07,2.07,0,0,0,0,1.37,2.12,2.12,0,0,0,.35.65.58.58,0,0,0,.52.15l.2,0a2.64,2.64,0,0,0,1.17-.65l1.09-1.09.61-.68a7.24,7.24,0,0,1,2.26-1.64s0,0,0,0l.07-.05.12,0a.15.15,0,0,1,.13,0s.06,0,.06.05,0,.09-.12.15a.19.19,0,0,0-.07.06l-.14.08a8.76,8.76,0,0,0-2.36,2.29l-.08.12A4.25,4.25,0,0,1,291.8,346.6Zm-.63-3.5a.29.29,0,0,0,.14,0l.07,0a3.41,3.41,0,0,0,1.53-1.07.92.92,0,0,0,.27-.59.08.08,0,0,1,0-.07.2.2,0,0,0,0-.1.22.22,0,0,0-.1-.09.26.26,0,0,0-.15,0l-.14,0-.08.05a1.3,1.3,0,0,0-.32.14A3.2,3.2,0,0,0,291,343l0,.09A.45.45,0,0,0,291.17,343.1Z"/><path d="M308.34,349.34a1.93,1.93,0,0,1-.49,0,1.33,1.33,0,0,1-.63-.3,2,2,0,0,1-.38-.67,4.84,4.84,0,0,1-.28-1.2q-.06-.6-.06-1.17v-.29a26.35,26.35,0,0,1,.95-6.29c.46-1.77,1-3.58,1.58-5.5l.3-.88s0,0,0,0a.06.06,0,0,0,0-.08l-.09-.05a.26.26,0,0,0-.15,0,.23.23,0,0,0-.12.06.54.54,0,0,0-.19.27,35.14,35.14,0,0,1-2,3.75,32.29,32.29,0,0,1-5.81,7.45,5.9,5.9,0,0,1-1.26.79,3.17,3.17,0,0,1-.55.15,2.13,2.13,0,0,1-2-.61,1.94,1.94,0,0,1-.27-.48l-.12-.35a5.15,5.15,0,0,1,1.27-3.76,6.37,6.37,0,0,1,1.47-1.4,2.71,2.71,0,0,1,1.25-.55l.16,0a2.53,2.53,0,0,1,1.46.16.78.78,0,0,1,.38.3c.09.2-.1.39-.56.54a2.73,2.73,0,0,0-.71.32,7.87,7.87,0,0,0-1.78,1.77,6,6,0,0,0-1.16,2.62,1.24,1.24,0,0,0,0,.47.39.39,0,0,0,.47.28,1.44,1.44,0,0,0,.25-.08,6.89,6.89,0,0,0,2.63-2,43.54,43.54,0,0,0,3.58-4.44A35.44,35.44,0,0,0,308,333.8a.75.75,0,0,1,.06-.13,1.28,1.28,0,0,0,.15-.49,6.85,6.85,0,0,0-.7.11c-.22,0-.85.2-1.89.46l-1.15.29c-1.82.41-3.67.87-5.35,1.33-.78.21-1.6.41-2.39.56a3.66,3.66,0,0,1-.94,0,.69.69,0,0,1-.63-.34c-.05-.12-.05-.21,0-.28a.91.91,0,0,1,.27-.18,8.57,8.57,0,0,1,1.46-.46l.22-.06c1-.24,2.05-.46,3.12-.66s2.14-.43,3.2-.66c1.61-.35,3.22-.7,4.82-1a.68.68,0,0,0,.6-.42l1.81-4.27,0-.1c.15-.36.34-.57.57-.62a.8.8,0,0,1,.74.33l.11.15a1.25,1.25,0,0,1,.14.56,11.57,11.57,0,0,1-.28,2.39c0,.24-.09.47-.15.7a.8.8,0,0,0,0,.42c0,.06.09.08.19.07l.63-.14c.91-.2,1.83-.38,2.75-.54l1.3-.2.58-.08c.32-.08.54,0,.63.13s0,.28-.25.34-.59.13-.9.18c-.78.12-1.54.28-2.28.45l-1.31.31-.78.18a5,5,0,0,0-.72.19c-.08,0-.14.19-.2.44s-.05.21-.09.35c-.68,2.56-1.43,4.84-2.19,7.23a29.49,29.49,0,0,0-1.29,6,9.35,9.35,0,0,0,0,1.5,1.4,1.4,0,0,0,0,.52.77.77,0,0,0,.24.32l.05,0a1.3,1.3,0,0,0,.73-.51l.1-.12a5.37,5.37,0,0,0,.77-1.15l.39-.72A35.27,35.27,0,0,0,311.8,343a13.19,13.19,0,0,1,3.52-4.62c.11-.09.23-.19.36-.28l.09-.06.11,0c.1,0,.16,0,.2,0s-.05.15-.23.31-.48.5-.7.75-.25.28-.43.46a10.31,10.31,0,0,0-1.45,1.92c-.41.71-.79,1.47-1.15,2.25a28.84,28.84,0,0,1-2.62,4.79A2,2,0,0,1,308.34,349.34ZM309.39,332a1.2,1.2,0,0,0,.48-.61,2.53,2.53,0,0,0,.2-1l-.22.54A8.15,8.15,0,0,0,309.39,332Z"/><path d="M318.07,341.54a1.51,1.51,0,0,1-1.56-.46l-.23-.41a6.12,6.12,0,0,1,0-5.05,1.11,1.11,0,0,1,.32-.44,1.3,1.3,0,0,1,.56-.29,1.72,1.72,0,0,1,.81,0,.81.81,0,0,1,.55.3.4.4,0,0,1,0,.4,8.74,8.74,0,0,0-1,4.74,1.14,1.14,0,0,0,.14.5c.09.17.2.23.35.2a1,1,0,0,0,.27-.12,3.41,3.41,0,0,0,.74-.6,12.47,12.47,0,0,0,1.4-1.56,13.06,13.06,0,0,1,2.26-2.26,1.47,1.47,0,0,1,.6-.34.29.29,0,0,1,.31.06s0,.07-.07.11l0,0a10.22,10.22,0,0,0-1.91,1.85c-.34.38-.66.76-1,1.14a13.79,13.79,0,0,1-1,1.19A3,3,0,0,1,318.07,341.54Zm.18-7.34a1.73,1.73,0,0,1-.42.05,1.05,1.05,0,0,1-.94-.5c-.16-.31,0-.67.34-1a.87.87,0,0,1,.37-.19,1,1,0,0,1,.92.21,1.79,1.79,0,0,1,.46.45c.12.2.07.41-.15.64A1.27,1.27,0,0,1,318.25,334.2Z"/><path d="M325.52,339.45a2,2,0,0,1-1.59-.22,1.78,1.78,0,0,1-.54-.56l-.12-.25a4.14,4.14,0,0,1,.18-3.25,2.34,2.34,0,0,1,.67-.83,2.48,2.48,0,0,1,1-.48,3.27,3.27,0,0,1,.92-.11,2,2,0,0,0,.5-.06,1.3,1.3,0,0,0,.38-.17l.68-.4c.29-.16.57-.33.84-.5a3.37,3.37,0,0,1,.76-.35,1.12,1.12,0,0,1,1.37.47,3.74,3.74,0,0,1,.22,2.4c0,.34,0,.5,0,.84.37-.53.71-1.06,1-1.6a24.25,24.25,0,0,1,2.09-2.85,1.31,1.31,0,0,1,.64-.45.91.91,0,0,1,.8.11l.11.14a.75.75,0,0,1,.13.37,8.32,8.32,0,0,1,0,1.34,6.66,6.66,0,0,0,.06,1.47.91.91,0,0,0,.15.37.22.22,0,0,0,.25.1.48.48,0,0,0,.16-.08,34.82,34.82,0,0,0,2.41-2.65l.63-.67a1.42,1.42,0,0,1,.41-.29.39.39,0,0,1,.28,0l.05.05s0,0,0,.08a1.57,1.57,0,0,1-.23.28c-.15.15-.5.6-1.07,1.35l-.91,1.16a7.07,7.07,0,0,1-.75.84,2,2,0,0,1-.72.41,1.34,1.34,0,0,1-1.06-.07,1.4,1.4,0,0,1-.5-.46l-.1-.21a4.27,4.27,0,0,1-.23-1.7l.1-1.27a3,3,0,0,0-.62.58,16.13,16.13,0,0,0-2.73,4.46l-.26.63a.61.61,0,0,1-.45.49.87.87,0,0,1-.64-.08.9.9,0,0,1-.33-.31l-.12-.24a9.28,9.28,0,0,1-.12-4l0-.09a.4.4,0,0,0,0-.24.17.17,0,0,0-.11-.06.28.28,0,0,0-.2,0,.6.6,0,0,0-.19.08l-.19.11a10.79,10.79,0,0,0-1.44.73q-.29.15-.21.27a.52.52,0,0,0,.17.14,2,2,0,0,1,.64.58,1.36,1.36,0,0,1,.19.53,3.92,3.92,0,0,1-1.15,3.35A2.34,2.34,0,0,1,325.52,339.45Zm-.12-.64.1-.05a1.33,1.33,0,0,0,.55-.4,3.41,3.41,0,0,0,1.06-2.71,2.26,2.26,0,0,0-.17-.63l0-.08a1.2,1.2,0,0,0-.42-.42.45.45,0,0,0-.32,0,1.42,1.42,0,0,0-.5.43,4,4,0,0,0-.78,3.44.58.58,0,0,0,.07.21l.1.13A.28.28,0,0,0,325.4,338.81Z"/><path d="M342.81,334.19a2.31,2.31,0,0,1-1.62,0,2.63,2.63,0,0,1-1.29-1c-.69-1.2-.45-2.55.65-3.88a3.89,3.89,0,0,1,1.14-.86,1.81,1.81,0,0,1,.35-.16,2.58,2.58,0,0,1,.79-.15c.54,0,.89.11,1.05.37a.49.49,0,0,1,.08.25,2.69,2.69,0,0,1-1.3,2.11,3.44,3.44,0,0,1-1.11.6c-.17.06-.25.16-.24.29a2.05,2.05,0,0,0,.32,1.26,2,2,0,0,0,.45.53.5.5,0,0,0,.49.05l.17-.07a2.5,2.5,0,0,0,.93-.81l.78-1.21.43-.74a7.11,7.11,0,0,1,1.82-2l0,0,.06-.06a.33.33,0,0,1,.1-.06.13.13,0,0,1,.12,0l.07,0s0,.09-.08.16a.27.27,0,0,0-.07.08l-.11.11a8.06,8.06,0,0,0-1.78,2.57l-.05.13A3.91,3.91,0,0,1,342.81,334.19Zm-1.27-3.12a.33.33,0,0,0,.12-.06l0-.05a3.27,3.27,0,0,0,1.21-1.29,1.07,1.07,0,0,0,.14-.62.11.11,0,0,1,0-.06.22.22,0,0,0,0-.1.15.15,0,0,0-.11-.06h-.14l-.12.07-.06.06a1,1,0,0,0-.28.2,3.09,3.09,0,0,0-1,1.85l.05.08A.34.34,0,0,0,341.54,331.07Z"/><path d="M348.15,332.69c-.38.14-.73,0-1-.47a2.24,2.24,0,0,1-.3-.76,7.77,7.77,0,0,1,.45-4.65,1.42,1.42,0,0,1,.76-1,1.52,1.52,0,0,1,.57-.07c.29,0,.48.1.57.25s0,.67-.29,1.47a15.12,15.12,0,0,0-.66,3.25c0,.07,0,.1,0,.17l.1,0c.28-1.08.42-1.61.71-2.69a4.53,4.53,0,0,1,.84-1.92,1.13,1.13,0,0,1,.39-.28.84.84,0,0,1,.71,0,1.77,1.77,0,0,1,.65.63.59.59,0,0,0,.3.24.69.69,0,0,0,.44-.07,10.62,10.62,0,0,0,2.85-1.72.5.5,0,0,1,.19-.13.23.23,0,0,1,.18,0,.17.17,0,0,1,.09.06c0,.06,0,.14-.08.23a4.93,4.93,0,0,1-.85.78,15.07,15.07,0,0,1-2.11,1.33,1.56,1.56,0,0,1-1.9-.34l-.3-.49a1.36,1.36,0,0,0-.39.53v0a13.46,13.46,0,0,0-.71,2.24c-.11.43-.21.85-.31,1.27s-.2.84-.29,1.26A1,1,0,0,1,348.15,332.69Z"/><path d="M357.8,328.56a1.2,1.2,0,0,1-1.41-.26l-.23-.39a7,7,0,0,1-.34-5.29,1.43,1.43,0,0,1,.28-.53,1.25,1.25,0,0,1,.49-.39,1.41,1.41,0,0,1,.74-.1.66.66,0,0,1,.51.26.52.52,0,0,1,0,.43,10.23,10.23,0,0,0-.66,5.14,1.18,1.18,0,0,0,.16.49c.09.16.2.21.33.16a1.08,1.08,0,0,0,.22-.15,4,4,0,0,0,.61-.71,17,17,0,0,0,1.15-1.8,14.76,14.76,0,0,1,1.93-2.72,1.59,1.59,0,0,1,.54-.45c.12-.06.22-.05.27,0s0,.08-.06.13l0,0a12.33,12.33,0,0,0-1.66,2.24c-.29.44-.56.89-.81,1.33a15.61,15.61,0,0,1-.83,1.36A2.9,2.9,0,0,1,357.8,328.56Zm-.22-7.78a1.89,1.89,0,0,1-.38.12.81.81,0,0,1-.87-.42,1.1,1.1,0,0,1,.31-1.14,1,1,0,0,1,.34-.26.8.8,0,0,1,.84.1,1.42,1.42,0,0,1,.42.44.67.67,0,0,1-.13.73A1.3,1.3,0,0,1,357.58,320.78Z"/><path d="M365.06,325.06a2,2,0,0,1-1.52.13,2.21,2.21,0,0,1-1.2-1c-.63-1.22-.37-2.69.71-4.23a4.49,4.49,0,0,1,1.1-1,3.13,3.13,0,0,1,.34-.21,2.72,2.72,0,0,1,.75-.23c.51-.05.84.05,1,.32a.66.66,0,0,1,.07.26,3.49,3.49,0,0,1-1.3,2.4,3.7,3.7,0,0,1-1.06.74.34.34,0,0,0-.23.33,2.25,2.25,0,0,0,.27,1.32,1.87,1.87,0,0,0,.42.52.44.44,0,0,0,.46,0l.16-.09a2.81,2.81,0,0,0,.89-.94c.3-.54.46-.81.77-1.35.17-.34.25-.5.43-.84a8.42,8.42,0,0,1,1.78-2.28s0,0,0,0l.06-.07.1-.08a.13.13,0,0,1,.12,0l.06,0s0,.09-.09.18l-.06.08a.64.64,0,0,1-.12.13,10.66,10.66,0,0,0-1.76,2.93l-.05.14A4.64,4.64,0,0,1,365.06,325.06Zm-1.13-3.21a.2.2,0,0,0,.11-.08l.06,0a4,4,0,0,0,1.17-1.5,1.21,1.21,0,0,0,.15-.68s0,0,0-.07a.22.22,0,0,0,0-.1s-.05,0-.09-.05a.22.22,0,0,0-.14,0l-.11.08-.07.08a1.38,1.38,0,0,0-.27.23,3.86,3.86,0,0,0-.95,2.08l0,.09Z"/><path d="M373.61,332.72a2.91,2.91,0,0,1-1.75.31,2.85,2.85,0,0,1-2.31-1.55,6.16,6.16,0,0,1-.57-3.09,10.73,10.73,0,0,1,1.1-4.2,20.4,20.4,0,0,1,1.26-2.29,3.87,3.87,0,0,1,.21-.34,1.2,1.2,0,0,0-.46,0l-.17,0a2.31,2.31,0,0,1-1.8-.53.88.88,0,0,1-.19-.24,1.38,1.38,0,0,1-.15-.57,3.41,3.41,0,0,1,.23-1.61,11,11,0,0,1,3.8-4.78,5.19,5.19,0,0,1,.81-.54,4.41,4.41,0,0,1,1.45-.51,2.17,2.17,0,0,1,1.27.13.59.59,0,0,1,.29.24.64.64,0,0,1-.09.61.42.42,0,0,1-.17.2.38.38,0,0,1-.19,0,3.42,3.42,0,0,0-1.46.42,5.39,5.39,0,0,0-.72.49,9.59,9.59,0,0,0-3.59,4.52,1.43,1.43,0,0,0-.08.64.8.8,0,0,0,.1.36c.13.24.42.35.87.34h.18a1.71,1.71,0,0,0,.61-.09,1.59,1.59,0,0,0,.39-.45,29.9,29.9,0,0,1,5.81-6c1.28-1,1.94-1.6,2-1.62s.23-.07.28,0a.13.13,0,0,1,0,.14.83.83,0,0,1-.14.13l-.08.07c-1.42,1.24-2.8,2.48-4.07,3.72a30.52,30.52,0,0,0-3.15,3.57,1.77,1.77,0,0,0-.12.17c0,.06.12.08.26,0a8.73,8.73,0,0,1,1.4-.16,3.15,3.15,0,0,1,3.22,1.44l.09.16a5.78,5.78,0,0,1,.23,4.14,11.3,11.3,0,0,1-3.93,6.21A3,3,0,0,1,373.61,332.72ZM373,332a4.57,4.57,0,0,0,1-.74,10.83,10.83,0,0,0,3-5.73,5.58,5.58,0,0,0-.4-3.49l0,0c-.35-.64-1.17-.94-2.46-.91l-.74.09-.53.07a1.36,1.36,0,0,0-.4.11.9.9,0,0,0-.35.35,15.71,15.71,0,0,0-2.17,4.77,8,8,0,0,0-.12,3.52,3.29,3.29,0,0,0,.34,1,2.29,2.29,0,0,0,1.44,1.19,1.8,1.8,0,0,0,1.37-.16Z"/><path class="cls-36" d="M143.89,193.42c1.48,0,2-1.78,3.14-1.78s1.37,1.78,2.56,1.78,1.41-1.78,2.84-1.78"/><path class="cls-36" d="M340.78,145.88c1.33-.65,1-2.46,2.06-3s2,1,3.07.49.51-2.22,1.79-2.84"/><path class="cls-36" d="M125.77,143c-1.28-.74-2.58.56-3.61,0s-.3-2.23-1.32-2.82-2.12.83-3.36.12"/><path class="cls-36" d="M249.09,60.34c-.24-1.47-2.07-1.64-2.27-2.81s1.53-1.65,1.34-2.82-2-1.1-2.22-2.51"/><path class="cls-36" d="M340.13,88c-1.28-.74-2.58.56-3.61,0s-.3-2.23-1.32-2.82-2.12.83-3.36.12"/><path class="cls-36" d="M115.32,206.88c-1.47.17-1.75,2-2.93,2.12s-1.56-1.61-2.73-1.48-1.21,1.93-2.63,2.09"/><path class="cls-36" d="M136.47,281.21c-1.48.17-1.75,2-2.93,2.12s-1.56-1.62-2.73-1.48-1.21,1.92-2.63,2.08"/><path class="cls-36" d="M286.38,133.75c1.28.74,2.58-.56,3.61,0s.3,2.23,1.32,2.82,2.12-.83,3.35-.12"/><path class="cls-36" d="M191.52,89.37c1.39-.53,1.2-2.36,2.31-2.78s1.91,1.18,3,.76.7-2.16,2-2.66"/><path class="cls-36" d="M368,208.47c-.51,1.39,1,2.44.59,3.56s-2.14.68-2.54,1.79,1.18,1.94.69,3.28"/><path class="cls-36" d="M260.35,91c.17,2.07,1.93,1.8,2.11,3.93S260.82,96.63,261,99s2,2,2.12,4-1.66,1.44-1.41,4.4"/><path class="cls-36" d="M371.26,128.2c1.87-.9,1-2.45,2.92-3.38s2.21.9,4.35-.13,1.2-2.55,3-3.43,1.95,1,4.62-.25"/><path class="cls-36" d="M393.09,225.62c2,.54,2.35-1.21,4.41-.65s1.08,2.13,3.38,2.75,2.58-1.15,4.52-.62.8,2.05,3.66,2.83"/><path class="cls-36" d="M364.93,290.65c1.37,1.55,2.63.28,4,1.88s-.27,2.38,1.3,4.16,2.79.46,4.12,2-.47,2.15,1.5,4.37"/><polygon points="286.01 111.39 287.6 114.3 290.52 115.9 287.6 117.5 286.01 120.41 284.41 117.5 281.5 115.9 284.41 114.3 286.01 111.39"/><polygon points="194.47 123.1 196.07 126.02 198.99 127.61 196.07 129.21 194.47 132.12 192.88 129.21 189.96 127.61 192.88 126.02 194.47 123.1"/><polygon points="224.72 70.58 225.8 72.98 228.06 73.29 226.02 74.31 225.87 77.5 224.69 74.53 222.41 74.22 224.47 73.2 224.72 70.58"/><polygon points="110.21 181.94 112.83 181.73 113.88 179.7 114.16 181.97 117.12 183.18 113.92 183.3 112.87 185.34 112.59 183.06 110.21 181.94"/><polygon points="279.32 60.8 279.26 63.43 281.17 64.68 278.89 64.72 277.37 67.54 277.59 64.35 275.67 63.09 277.97 63.05 279.32 60.8"/><polygon points="264.81 282.81 263.67 278.54 260 277.4 263.67 276.26 264.81 270.99 265.95 276.26 269.64 277.4 265.95 278.54 264.81 282.81"/><polygon points="148.16 208.88 149.75 211.79 152.67 213.39 149.75 214.99 148.16 217.9 146.56 214.99 143.65 213.39 146.56 211.79 148.16 208.88"/><polygon points="397.81 203.36 399.41 206.28 402.33 207.87 399.41 209.47 397.81 212.38 396.22 209.47 393.3 207.87 396.22 206.28 397.81 203.36"/><polygon points="337.73 273.64 339.32 276.56 342.24 278.16 339.32 279.75 337.73 282.67 336.13 279.75 333.21 278.16 336.13 276.56 337.73 273.64"/><polygon points="186.28 264.95 187.14 266.52 188.72 267.39 187.14 268.25 186.28 269.83 185.42 268.25 183.84 267.39 185.42 266.52 186.28 264.95"/><polygon points="113.61 229.76 114.48 231.34 116.05 232.2 114.48 233.06 113.61 234.64 112.75 233.06 111.17 232.2 112.75 231.34 113.61 229.76"/><circle cx="146.9" cy="151.03" r="2.98"/><circle class="cls-37" cx="380.19" cy="219.81" r="2.71"/><circle class="cls-37" cx="266.6" cy="77.35" r="2.71"/><circle cx="364.95" cy="141.89" r="2.7"/><circle cx="355.83" cy="225.93" r="4.11"/><circle cx="324.11" cy="121.31" r="6.11"/><circle cx="227.54" cy="104.82" r="2.91"/><circle class="cls-37" cx="157.96" cy="237.25" r="4.42"/><circle class="cls-37" cx="132.32" cy="267.39" r="3.03"/><path class="cls-36" d="M140.37,242.8c-2.93,1-1.62,4.92-4.55,5.89s-4.24-3-7.16-2-1.63,4.92-4.56,5.89-4.24-3-7.17-2-1.63,4.92-4.56,5.89"/><path class="cls-36" d="M209.48,119.52c-1.38-2.76-5.11-.9-6.48-3.66s2.35-4.62,1-7.37-5.1-.9-6.48-3.67"/><path class="cls-36" d="M299,122.21c1.66-2.6,5.17-.36,6.83-2.95s-1.85-4.84-.19-7.44,5.17-.35,6.83-2.95-1.84-4.84-.18-7.44,5.17-.35,6.83-3"/><path class="cls-23" d="M281.05,88.64c.12.36-.52.92-1.42,1.23s-1.63.23-1.68-.15.58-.88,1.4-1.17S280.94,88.29,281.05,88.64Z"/><path class="cls-38" d="M287.74,88.69c5.1,2.72,5.63,10-2,15.21-8.37,5.69-16.61,2.61-17.26-3.57a7.39,7.39,0,0,1,.11-2.3c.64-3.24,3.3-6.44,6.68-8.36a16.06,16.06,0,0,1,6.51-2.06h0A10.9,10.9,0,0,1,287.74,88.69Z"/><path class="cls-17" d="M280.12,88.34a15.44,15.44,0,0,0-3.9,1.58c-3.3,1.89-5.8,5-6.24,8.24a7.45,7.45,0,0,0,0,2.26,6.76,6.76,0,0,0,1,2.54,5.44,5.44,0,0,1-1.73-3.28,6.45,6.45,0,0,1,0-2c.49-2.91,2.88-5.83,6-7.6A14.14,14.14,0,0,1,280.12,88.34Z"/><path class="cls-39" d="M274.6,92.76c-.64.67-1.54,1.08-2,.9a.35.35,0,0,1-.22-.32,1.7,1.7,0,0,1,.63-1.12,2.44,2.44,0,0,1,1.85-.84.37.37,0,0,1,.14.07C275.3,91.66,275.14,92.2,274.6,92.76Z"/><path class="cls-39" d="M280.89,93c.42.45,0,1.32-1,1.93s-2.12.69-2.44.18.21-1.31,1.14-1.86S280.5,92.58,280.89,93Z"/><path class="cls-39" d="M289.12,92.76a2,2,0,0,0-2.3-1.2,1.66,1.66,0,0,0-1.42,1.85,2,2,0,0,0,2.28,1.44A1.63,1.63,0,0,0,289.12,92.76Z"/><path class="cls-39" d="M283.11,101.26c1.28-.74,1.86-1.93,1.34-2.61s-1.8-.61-2.95,0-1.82,1.77-1.45,2.5S281.83,102,283.11,101.26Z"/><path class="cls-39" d="M272.42,101.24a1.69,1.69,0,0,0,2.4-.11,1.5,1.5,0,0,0-.33-2.2,1.7,1.7,0,0,0-2.2.18A1.48,1.48,0,0,0,272.42,101.24Z"/><path class="cls-39" d="M281.22,90c.8-.16,1.45-.59,1.45-1s-.61-.49-1.36-.33-1.35.56-1.39.9S280.45,90.13,281.22,90Z"/><path class="cls-23" d="M171.53,250.68c.11.37-.53.92-1.42,1.23s-1.64.23-1.68-.15.58-.88,1.39-1.16S171.41,250.34,171.53,250.68Z"/><path class="cls-40" d="M178.21,250.73c5.1,2.72,5.64,10-2,15.21-8.38,5.69-16.61,2.62-17.27-3.57a7.72,7.72,0,0,1,.11-2.3c.64-3.24,3.31-6.43,6.69-8.36a16.12,16.12,0,0,1,6.5-2.06h0A11,11,0,0,1,178.21,250.73Z"/><path class="cls-17" d="M170.59,250.38a15.59,15.59,0,0,0-3.9,1.58c-3.3,1.9-5.79,5-6.24,8.25a7.39,7.39,0,0,0,0,2.25,6.54,6.54,0,0,0,1,2.54,5.46,5.46,0,0,1-1.74-3.28,6.77,6.77,0,0,1,0-2c.49-2.9,2.88-5.83,6-7.6A14.43,14.43,0,0,1,170.59,250.38Z"/><path class="cls-41" d="M165.08,254.8c-.65.67-1.55,1.08-2,.9a.34.34,0,0,1-.21-.31,1.72,1.72,0,0,1,.62-1.13,2.45,2.45,0,0,1,1.85-.84l.14.07C165.77,253.7,165.62,254.24,165.08,254.8Z"/><path class="cls-41" d="M171.37,255c.41.44,0,1.31-1,1.92s-2.13.69-2.45.18.21-1.3,1.14-1.86S171,254.62,171.37,255Z"/><path class="cls-41" d="M179.59,254.8a2,2,0,0,0-2.29-1.19,1.64,1.64,0,0,0-1.42,1.85,2,2,0,0,0,2.27,1.43A1.62,1.62,0,0,0,179.59,254.8Z"/><path class="cls-41" d="M173.59,263.31c1.27-.75,1.85-1.94,1.33-2.62s-1.79-.61-2.94.05-1.82,1.77-1.45,2.5S172.3,264.06,173.59,263.31Z"/><path class="cls-41" d="M162.9,263.28a1.68,1.68,0,0,0,2.4-.11A1.49,1.49,0,0,0,165,261a1.69,1.69,0,0,0-2.19.18A1.47,1.47,0,0,0,162.9,263.28Z"/><path class="cls-41" d="M171.7,252c.79-.16,1.45-.59,1.45-.95s-.62-.49-1.36-.33-1.35.56-1.4.91S170.92,252.17,171.7,252Z"/><path class="cls-42" d="M182.92,129.08c-7.51-4.16-16.11-2.16-17.65-1.65s-4.05,3.19-5.41,6.42-.28,10.87,12.34,12.13,15.25-5.17,15.25-5.17C188.6,139.19,190.43,133.23,182.92,129.08Zm-9,8.23c-3.38-.28-6-1.65-5.91-3.06s3-2.32,6.34-2,6,1.65,5.92,3.06S177.26,137.6,173.87,137.31Z"/><path class="cls-17" d="M186.62,131.78c-3.09-3.21-7.53-5.59-15.32-5.47a18.33,18.33,0,0,0-4.26.55,18.64,18.64,0,0,1,3.82-.44c7.79-.13,12.23,2.26,15.31,5.47,2.83,2.94,1.94,8,1.07,8.88a.34.34,0,0,0,.21,0C188.36,140.7,189.7,135,186.62,131.78ZM183,137a.51.51,0,0,0-.24,0c-.88.19-.46,5-1.74,5.76C182.71,142.82,182.32,137.88,183,137Zm-5.37,2c-.46,0-.94,3.39-2,4.05h.14c1.09-.11,1.65-3,2.09-3.89C177.78,139,177.71,139,177.64,139Zm.69-6.44a4.24,4.24,0,0,0,1.19-.44A4.24,4.24,0,0,0,178.33,132.53Zm-3.06-1c.78,0,.95-.78,1.3-1.08C176,130.27,175.88,131.19,175.27,131.51ZM169,143.45h.06c1.24,0,1.67-2.9,2.64-3.5C170.52,139.82,170.11,142.83,169,143.45Zm.84-8c-4.36-2.06-3.68-3.79-1.35-4.83a.24.24,0,0,0,0-.07c-2.66,1-3.7,2.82.92,5a9.38,9.38,0,0,0,6.77.88A9.6,9.6,0,0,1,169.84,135.49Zm3.08-5.33-.1,0c-.49,0-.68.68-.85,1.07.11.1.2.16.27.15S172.55,130.48,172.92,130.16Zm-2.16.43a.59.59,0,0,0-.22-.05c-.38,0-.43,1-.81,1.33l.05,0C170.4,132,170.49,131,170.76,130.59Zm-6.65,9.68.08,0c.65.1,1.22-1.78,1.79-2.34h0C165.36,137.6,164.77,139.7,164.11,140.27Zm-4.29-.91h0c1.1,0,1.25-2.05,2.14-2.54C160.85,136.79,160.7,138.86,159.82,139.36Z"/><path class="cls-17" d="M188.16,134.47c.61,2.79-.24,5.61-.88,5.69-.92.12-3.26-4.18-4.24-4s-.34,6.23-2.3,5.85-2.32-3.83-2.82-3.83-1,4-2.34,4.16-2.21-2.93-3.56-3.17-1.7,3.57-3.13,3.61-1.92-5.21-2.64-5.62-1.42,2.58-2.22,2.46c-.15,0-.25-.14-.32-.31.08.51.2.91.48.95.81.13,1.5-2.86,2.22-2.45s1.22,5.65,2.65,5.61,1.78-3.85,3.13-3.6,2.25,3.29,3.56,3.17,1.83-4.16,2.33-4.16.87,3.44,2.83,3.82,1.31-5.63,2.3-5.84,3.32,4.08,4.24,4C188.14,140.72,189.07,137.45,188.16,134.47Zm-7.91-2.92c-.58-.7-1.66.58-2.34.29a.53.53,0,0,1-.27-.28c.06.41.14.8.44.93.68.29,1.76-1,2.34-.3a.41.41,0,0,1,.07.11A1.2,1.2,0,0,0,180.25,131.55Zm-3.39-1.87c-.83-.25-.69,1.47-2.12,1.14s-1-1.39-1.64-1.43-.78,1.25-1,1.32-.77-.94-1.25-.92-.44,1.56-1.21,1.45a.91.91,0,0,1-.67-.63c0,.33.22,1.18.84,1.28.77.11.72-1.43,1.2-1.45s1,1,1.26.92.36-1.37,1-1.33.21,1.1,1.64,1.43,1.29-1.38,2.13-1.14a.65.65,0,0,1,.41.38C177.37,130.24,177.27,129.8,176.86,129.68Zm-8,.82a3,3,0,0,1-.13-.66c-1.67.63-2.7,1.57-2.11,2.73C166.65,131.71,167.57,131,168.89,130.5Zm-6.28,5.62c-1.65-.52-1.56,2.57-2.91,2.6a1.24,1.24,0,0,1-1.18-.95c.18,1,.63,1.61,1.34,1.59,1.35,0,1.27-3.12,2.92-2.59a1,1,0,0,1,.57.66C163.24,136.81,163.05,136.26,162.61,136.12Z"/><path class="cls-29" d="M177.44,130.7a3.4,3.4,0,0,0,.2.86A3.62,3.62,0,0,0,177.44,130.7Zm-8.51-.22,0,0,.05.11A1.16,1.16,0,0,1,168.93,130.48Zm-5.58,7a11.47,11.47,0,0,0,.36,1.91A11.73,11.73,0,0,0,163.35,137.43Z"/><circle class="cls-30" cx="161.01" cy="133.64" r="0.18"/><circle class="cls-30" cx="161.86" cy="134.08" r="0.05"/><circle class="cls-30" cx="160.78" cy="134.42" r="0.09"/><circle class="cls-30" cx="166.83" cy="137" r="0.17"/><circle class="cls-30" cx="169.57" cy="138.54" r="0.5"/><circle class="cls-30" cx="171.18" cy="138.28" r="0.2"/><circle class="cls-30" cx="184.02" cy="133.76" r="0.17"/><circle class="cls-30" cx="186.97" cy="135.18" r="0.55"/><circle class="cls-30" cx="178.34" cy="130.3" r="0.39"/><circle class="cls-30" cx="177.44" cy="128.94" r="0.13"/><path class="cls-42" d="M361.29,106.49c-6-3.3-12.81-1.71-14-1.3s-3.22,2.53-4.3,5.1-.22,8.63,9.81,9.64,12.12-4.11,12.12-4.11C365.8,114.53,367.26,109.8,361.29,106.49ZM354.1,113c-2.69-.23-4.8-1.32-4.7-2.44s2.35-1.84,5-1.61,4.79,1.31,4.7,2.43S356.79,113.27,354.1,113Z"/><path class="cls-17" d="M364.22,108.64c-2.45-2.55-6-4.44-12.17-4.35a14.35,14.35,0,0,0-3.38.44,14.74,14.74,0,0,1,3-.35c6.19-.1,9.72,1.79,12.17,4.35,2.25,2.33,1.55,6.33.85,7.06a.36.36,0,0,0,.17,0C365.61,115.73,366.67,111.19,364.22,108.64Zm-2.86,4.13a.28.28,0,0,0-.2,0c-.69.14-.36,4-1.38,4.57C361.12,117.41,360.81,113.49,361.36,112.77Zm-4.27,1.58c-.36,0-.75,2.7-1.61,3.22a.4.4,0,0,0,.11,0c.87-.08,1.31-2.36,1.66-3.08C357.2,114.4,357.15,114.35,357.09,114.35Zm.55-5.11a3.5,3.5,0,0,0,.94-.35A3.41,3.41,0,0,0,357.64,109.24Zm-2.44-.82c.62,0,.76-.61,1-.85C355.75,107.44,355.69,108.17,355.2,108.42Zm-5,9.5h0c1,0,1.33-2.31,2.1-2.79C351.43,115,351.11,117.43,350.23,117.92Zm.66-6.33c-3.47-1.64-2.92-3-1.07-3.84a.18.18,0,0,1,0,0c-2.11.8-2.94,2.24.73,4a7.5,7.5,0,0,0,5.38.7A7.66,7.66,0,0,1,350.89,111.59Zm2.45-4.24h-.08c-.39,0-.54.54-.67.85.08.08.15.13.21.11S353,107.6,353.34,107.35Zm-1.72.35a.35.35,0,0,0-.17,0c-.3,0-.34.78-.65,1.06h0C351.34,108.8,351.41,108,351.62,107.7Zm-5.28,7.69.06,0c.52.08,1-1.42,1.42-1.86h0C347.33,113.27,346.86,114.94,346.34,115.39Zm-3.42-.72h0c.87,0,1-1.64,1.7-2C343.74,112.62,343.62,114.27,342.92,114.67Z"/><path class="cls-17" d="M365.45,110.78c.48,2.22-.19,4.46-.7,4.53-.73.09-2.59-3.33-3.37-3.16s-.27,4.95-1.82,4.64-1.85-3-2.25-3-.82,3.21-1.86,3.31-1.75-2.33-2.82-2.52-1.36,2.83-2.49,2.87-1.53-4.14-2.11-4.47-1.12,2-1.76,2c-.11,0-.19-.1-.25-.24.06.41.16.72.38.76.65.1,1.19-2.27,1.77-2s1,4.49,2.1,4.46,1.42-3.06,2.49-2.87,1.79,2.62,2.83,2.52,1.46-3.3,1.85-3.3.69,2.73,2.25,3,1-4.48,1.83-4.65,2.64,3.25,3.37,3.16C365.43,115.75,366.17,113.15,365.45,110.78Zm-6.28-2.32c-.46-.56-1.32.46-1.86.23a.43.43,0,0,1-.22-.22c.05.33.11.63.35.73.54.24,1.4-.78,1.86-.23l.06.08A1,1,0,0,0,359.17,108.46Zm-2.7-1.49c-.66-.19-.55,1.17-1.69.91s-.77-1.11-1.3-1.14-.62,1-.82,1.05-.61-.75-1-.73-.35,1.24-1,1.15a.71.71,0,0,1-.53-.5c0,.26.17.94.66,1s.58-1.14,1-1.16.8.79,1,.73.28-1.08.81-1,.16.87,1.3,1.14,1-1.1,1.69-.91a.55.55,0,0,1,.33.3C356.87,107.42,356.79,107.07,356.47,107Zm-6.33.65a2.47,2.47,0,0,1-.11-.52c-1.32.5-2.14,1.25-1.67,2.17C348.36,108.58,349.08,108,350.14,107.62Zm-5,4.47c-1.31-.41-1.24,2-2.31,2.07a1,1,0,0,1-.93-.75c.13.81.5,1.27,1.06,1.26,1.07,0,1-2.48,2.32-2.06a.75.75,0,0,1,.45.52C345.64,112.64,345.49,112.2,345.14,112.09Z"/><path class="cls-29" d="M356.93,107.78a2.59,2.59,0,0,0,.16.69A2.9,2.9,0,0,0,356.93,107.78Zm-6.77-.17h0a.36.36,0,0,0,0,.09Zm-4.43,5.53a9.91,9.91,0,0,0,.29,1.51A9,9,0,0,0,345.73,113.14Z"/><circle class="cls-30" cx="343.87" cy="110.12" r="0.14"/><circle class="cls-30" cx="344.55" cy="110.47" r="0.04"/><circle class="cls-30" cx="343.69" cy="110.74" r="0.07"/><circle class="cls-30" cx="348.5" cy="112.79" r="0.13"/><circle class="cls-30" cx="350.67" cy="114.01" r="0.39"/><circle class="cls-30" cx="351.95" cy="113.81" r="0.16"/><circle class="cls-30" cx="362.16" cy="110.21" r="0.14"/><circle class="cls-30" cx="364.51" cy="111.35" r="0.44"/><circle class="cls-30" cx="357.65" cy="107.47" r="0.31"/><circle class="cls-30" cx="356.93" cy="106.38" r="0.1"/><path class="cls-17" d="M157.09,166.76s4.73,3.62,7.93,2.29,3.29-3.77,5.7-5a20.74,20.74,0,0,1-9.07,2.71l5.62-2.13S164.67,158.12,157.09,166.76Z"/><path class="cls-17" d="M208.65,89.53s2.71,3.2,5.11,2.77,2.83-2.09,4.67-2.58a14.51,14.51,0,0,1-6.64.49L216,89.6S215.17,84.74,208.65,89.53Z"/><path class="cls-17" d="M362.12,185.91s1.66,10.07,7.21,12.17,8.53-.84,13,.44c0,0-8.79-1.94-14.5-7.28l9.51,3.95S381.75,184,362.12,185.91Z"/><path class="cls-43" d="M241.9,91.31l4.52-1.16s-.12-3.36,0-4.17,3.69-1.14,2.67-4.14c-.83-2.47-3.69-1.3-3.69-1.3s.09-4.4-3.5-3.94-2.78,4.64-2.78,4.64-3.93-.27-3.93,2.7,4.28,2.62,4.28,2.62Z"/><path class="cls-43" d="M126.3,222.14l.07-3.09s-2.16-.53-2.66-.75-.07-2.56-2.17-2.45c-1.73.1-1.49,2.13-1.49,2.13s-2.79-.84-3.14,1.53,2.46,2.6,2.46,2.6-.87,2.47,1,3,2.44-2.27,2.44-2.27Z"/><path class="cls-43" d="M172.61,102.88l2.17-2.21s-1.22-1.87-1.43-2.37,1.7-1.91.1-3.27c-1.33-1.11-2.54.53-2.54.53s-1.46-2.53-3.34-1,0,3.58,0,3.58-2.33,1.2-1.31,2.89,3.33,0,3.33,0Z"/><path class="cls-43" d="M345.64,245.72l-2.85,3.68s2.14,2.58,2.55,3.29-2.21,3.17.42,4.92c2.18,1.44,3.72-1.24,3.72-1.24s2.62,3.53,5.18,1S354,252,354,252s3.27-2.2,1.45-4.54-5,.55-5,.55Z"/><path class="cls-44" d="M401.08,182.57a37.75,37.75,0,0,0,4.45-1.36c.78-.45.88,1.24,1.62.95.22-.08-.87-1.59-1.16-1.44a17.36,17.36,0,0,1-4.89,1.64Z"/><ellipse class="cls-44" cx="397.1" cy="182.02" rx="4" ry="4.05" transform="translate(-38.69 151.87) rotate(-20.67)"/><ellipse class="cls-17" cx="395.14" cy="180.73" rx="1.8" ry="1.36" transform="translate(63.88 461.93) rotate(-64.91)"/><ellipse class="cls-17" cx="397" cy="178.65" rx="0.45" ry="0.34" transform="translate(-31.57 102.15) rotate(-14.11)"/><path class="cls-44" d="M136.24,171.78a37.19,37.19,0,0,0-1.36-4.45c-.45-.78,1.24-.89,1-1.63-.08-.22-1.59.87-1.44,1.17a17.36,17.36,0,0,1,1.64,4.89Z"/><ellipse class="cls-44" cx="135.69" cy="175.75" rx="4.05" ry="4" transform="translate(-53.3 59.2) rotate(-20.67)"/><ellipse class="cls-17" cx="134.4" cy="177.71" rx="1.36" ry="1.8" transform="translate(-83.53 224.06) rotate(-64.91)"/><ellipse class="cls-17" cx="132.32" cy="175.86" rx="0.34" ry="0.45" transform="translate(-38.87 37.55) rotate(-14.11)"/><path class="cls-44" d="M347.15,298a36.85,36.85,0,0,0,2.51,3.92c.64.63-1,1.19-.48,1.82.14.19,1.3-1.26,1.08-1.51a17.13,17.13,0,0,1-2.9-4.26Z"/><ellipse class="cls-44" cx="346.61" cy="293.99" rx="4.05" ry="4" transform="translate(-106.78 262.27) rotate(-36.3)"/><ellipse class="cls-17" cx="347.32" cy="291.76" rx="1.36" ry="1.8" transform="translate(2.44 586.4) rotate(-80.54)"/><ellipse class="cls-17" cx="349.82" cy="292.98" rx="0.34" ry="0.45" transform="translate(-99.26 212.13) rotate(-29.74)"/><path class="cls-43" d="M388.73,264.59s-.08,6.57-5,6.4-5.53-5.06-4.83-8,3.92-8.18,8.94-6S388.73,264.59,388.73,264.59Z"/><path class="cls-43" d="M389.46,265.33s2.13.89,4-3.81C393.46,261.52,390.55,261.31,389.46,265.33Z"/><path class="cls-43" d="M389.47,265.34s3.25.19,2.85,4.67C392.32,270,388.72,268.09,389.47,265.34Z"/><path class="cls-43" d="M389.51,265.4l0-.06.06-.1a2.23,2.23,0,0,0,2.27-.6,8.74,8.74,0,0,1,2.75,1,6.71,6.71,0,0,1-2.56.86A3.11,3.11,0,0,0,389.51,265.4Z"/><ellipse class="cls-32" cx="385.57" cy="258.86" rx="1.26" ry="1.98" transform="translate(24.33 550.7) rotate(-72.81)"/><ellipse class="cls-32" cx="382.54" cy="259.62" rx="0.45" ry="0.71" transform="translate(92.15 619.36) rotate(-85.25)"/><ellipse class="cls-32" cx="380.11" cy="267.04" rx="0.58" ry="0.91" transform="translate(-81.55 318.71) rotate(-41.47)"/><path class="cls-44" d="M213.28,73.91c1.63-.82,2.59-4.91,1.84-7.87s-3.06-2.83-5.62-1.58c-2.8,1.37-3.92,2.89-3,4.64C208.19,72.19,211.78,74.66,213.28,73.91Z"/><path class="cls-17" d="M209.14,65.15s-1.06,1.18-3.39-.46C205.75,64.69,208.63,63.44,209.14,65.15Z"/><path class="cls-17" d="M209.48,65.24s-.87-1.54,2.13-4C211.61,61.22,211.54,64.16,209.48,65.24Z"/><path class="cls-17" d="M209.28,65.05s-1.51.33-1.63,2.83C207.65,67.88,210.3,66.44,209.28,65.05Z"/><path class="cls-17" d="M209.43,65.18s-1.67-.23-1.53-3C207.9,62.2,210.4,63.58,209.43,65.18Z"/><path class="cls-17" d="M209.36,65.39s-.11-.7.83-.9a4.85,4.85,0,0,1,2.42.54S210.3,66,209.36,65.39Z"/><ellipse class="cls-17" cx="209.21" cy="70.77" rx="0.25" ry="0.42" transform="translate(14.86 175.68) rotate(-47.05)"/><ellipse class="cls-26" cx="213" cy="68.24" rx="0.26" ry="0.43" transform="translate(17.98 177.76) rotate(-47.08)"/><ellipse class="cls-26" cx="212.28" cy="66.07" rx="0.28" ry="0.44" transform="matrix(0.68, -0.73, 0.73, 0.68, 19.64, 177.06)"/><ellipse class="cls-17" cx="209.74" cy="66.87" rx="0.2" ry="0.44" transform="translate(17.27 173.73) rotate(-46.72)"/><ellipse class="cls-17" cx="212.41" cy="73.13" rx="0.26" ry="0.46" transform="translate(13.94 178.37) rotate(-46.93)"/><ellipse class="cls-17" cx="214.18" cy="70.33" rx="0.26" ry="0.43" transform="translate(16.79 179.21) rotate(-47.06)"/><ellipse class="cls-26" cx="211.68" cy="70.84" rx="0.36" ry="0.46" transform="translate(17.93 181.68) rotate(-48.28)"/><ellipse class="cls-26" cx="208.67" cy="68.61" rx="0.28" ry="0.36" transform="translate(18.58 178.69) rotate(-48.28)"/><ellipse class="cls-17" cx="207.09" cy="66.96" rx="0.28" ry="0.39" transform="translate(18.31 175.27) rotate(-47.76)"/><ellipse class="cls-17" cx="210.26" cy="72.52" rx="0.23" ry="0.38" transform="translate(13.93 177.04) rotate(-47.06)"/><ellipse class="cls-17" cx="214.06" cy="72.4" rx="0.21" ry="0.29" transform="translate(16.57 182.23) rotate(-47.77)"/><ellipse class="cls-26" cx="211.17" cy="68.22" rx="0.3" ry="0.47" transform="translate(17.69 176.91) rotate(-47.23)"/><ellipse class="cls-17" cx="213.54" cy="64.49" rx="0.29" ry="0.28" transform="translate(-7.68 35.86) rotate(-9.43)"/><ellipse class="cls-17" cx="211.63" cy="64.17" rx="0.2" ry="0.33" transform="translate(20.65 175.66) rotate(-47.14)"/><ellipse class="cls-17" cx="214.43" cy="66.94" rx="0.34" ry="0.33" transform="translate(-8.07 36.04) rotate(-9.43)"/><rect class="cls-17" x="151.59" y="120.13" width="1.32" height="3.57" rx="0.66" transform="translate(145.99 -73.03) rotate(49.47)"/><rect class="cls-17" x="142.14" y="117.98" width="1.32" height="3.57" rx="0.66" transform="translate(-42.86 136.05) rotate(-45)"/><rect class="cls-17" x="142.14" y="125.16" width="1.32" height="3.57" rx="0.66" transform="translate(233.23 -41.37) rotate(76.61)"/><rect class="cls-17" x="138.92" y="122.01" width="1.32" height="3.57" rx="0.66" transform="translate(51.46 288.24) rotate(-103.39)"/><rect class="cls-17" x="146.76" y="117.98" width="1.32" height="3.57" rx="0.66" transform="translate(61.35 -49.55) rotate(23.96)"/><rect class="cls-17" x="147.85" y="125.16" width="1.32" height="3.57" rx="0.66" transform="translate(-25.35 37.83) rotate(-13.39)"/><rect class="cls-17" x="315.2" y="75.88" width="1.32" height="3.57" rx="0.66" transform="translate(169.65 -212.89) rotate(49.47)"/><rect class="cls-17" x="305.75" y="73.73" width="1.32" height="3.57" rx="0.66" transform="translate(36.35 238.78) rotate(-45)"/><rect class="cls-17" x="305.75" y="80.9" width="1.32" height="3.57" rx="0.66" transform="translate(315.91 -234.54) rotate(76.61)"/><rect class="cls-17" x="302.52" y="77.76" width="1.32" height="3.57" rx="0.66" transform="translate(296 392.9) rotate(-103.39)"/><rect class="cls-17" x="310.37" y="73.73" width="1.32" height="3.57" rx="0.66" transform="translate(57.48 -119.81) rotate(23.96)"/><rect class="cls-17" x="311.46" y="80.9" width="1.32" height="3.57" rx="0.66" transform="translate(-10.66 74.51) rotate(-13.39)"/><rect class="cls-17" x="383.14" y="235.79" width="0.97" height="2.62" rx="0.48" transform="translate(675.84 -106.4) rotate(98.67)"/><rect class="cls-17" x="371.02" y="233.94" width="0.97" height="2.62" rx="0.48" transform="translate(-57.53 331.6) rotate(-45)"/><rect class="cls-17" x="375.36" y="239.63" width="0.97" height="2.62" rx="0.48" transform="translate(170.82 -155.64) rotate(30)"/><rect class="cls-17" x="376.4" y="236.17" width="0.97" height="2.62" rx="0.48" transform="translate(233.11 659.1) rotate(-103.39)"/><rect class="cls-17" x="375.56" y="232.68" width="0.97" height="2.62" rx="0.48" transform="translate(127.44 -132.56) rotate(23.96)"/><rect class="cls-17" x="378.9" y="238.26" width="0.97" height="2.62" rx="0.48" transform="translate(-63.59 168.17) rotate(-23.12)"/><polyline class="cls-45" points="284.98 178.04 284.84 180.06 286.77 180.14 288.73 180.9 290.59 180.13 292.43 180.77 294.03 179.74 295.79 180.28 297.35 179.37 299.09 179.49 300.7 178.16 302.53 178.25 304.42 176.59 305.71 175.75 305.42 175"/><polyline class="cls-45" points="305.71 175.75 302.52 185.98 301.12 187.14 300.15 187.22 299.17 187.89 298.2 187.84 297.3 188.35 296.29 188.27 295.4 188.64 294.33 188.45 293.36 188.72 291.96 188.28 291.23 188.19 284.84 180.06"/><path class="cls-45" d="M291.55,160.31a3.19,3.19,0,0,1,.5,3.89c-1.22,2.36-6,4.35-7,8.06s-.44,7,1.71,7.56a5.52,5.52,0,0,0,2.26.05,14.16,14.16,0,0,1,2.31-.09,3.61,3.61,0,0,0,1.87-.42s1-.07,1.95-.19a8.73,8.73,0,0,0,1.83-.46,5.06,5.06,0,0,0,1.62-.08,9.59,9.59,0,0,0,1.74-.69,11.19,11.19,0,0,0,2.11-.3,2.51,2.51,0,0,0,1.69-1.07,10.91,10.91,0,0,0,1.07-1c.56-.61,1-.59.31-3.46a6.22,6.22,0,0,0-2.49-3.18,6.39,6.39,0,0,0-2.5-2.59,2.61,2.61,0,0,0-1.28-1.74s-.36-1.36-2.66-2a4.21,4.21,0,0,0-1.8-1.2A4.69,4.69,0,0,0,291.55,160.31Z"/><path class="cls-45" d="M294.78,161.34s1.57,3-1.19,6.74c-2.49,3.39-5.54,6.57-4.58,11.79"/><path class="cls-45" d="M296.58,162.54a7.42,7.42,0,0,1-.27,7.14c-2.24,3.58-3.53,7.1-3.12,9.68"/><path class="cls-45" d="M299.24,164.58s1.18.86-.1,3.78-2.74,7-2.17,10.35"/><path class="cls-45" d="M300.52,166.32a5.36,5.36,0,0,1,.2,4.17,15,15,0,0,0-.39,7.45"/><path class="cls-45" d="M303,168.91a12,12,0,0,1,.84,3.34c0,1.28-.75,2.94.18,4.45"/><line class="cls-45" x1="302.53" y1="178.25" x2="301.12" y2="187.14"/><line class="cls-45" x1="299.09" y1="179.49" x2="299.17" y2="187.89"/><line class="cls-45" x1="295.79" y1="180.28" x2="297.15" y2="188.34"/><line class="cls-45" x1="292.43" y1="180.77" x2="295.4" y2="188.64"/><line class="cls-45" x1="288.73" y1="180.9" x2="293.35" y2="188.72"/><text class="cls-46" transform="translate(174.28 379.25)">..<tspan class="cls-47" x="6.15" y="0">.</tspan><tspan x="8.78" y="0">the</tspan><tspan class="cls-48" x="30.56" y="0"> </tspan><tspan x="33.58" y="0">true</tspan><tspan class="cls-48" x="60.22" y="0"> </tspan><tspan class="cls-49" x="63.24" y="0">t</tspan><tspan x="68.82" y="0">a</tspan><tspan class="cls-50" x="77.5" y="0">s</tspan><tspan class="cls-51" x="83.49" y="0">t</tspan><tspan class="cls-52" x="89.06" y="0">e </tspan><tspan class="cls-53" x="100.26" y="0">o</tspan><tspan class="cls-54" x="108.49" y="0">f</tspan><tspan class="cls-52" x="113.41" y="0" xml:space="preserve"> ec</tspan><tspan class="cls-55" x="132.38" y="0">s</tspan><tspan class="cls-49" x="138.38" y="0">t</tspan><tspan x="143.95" y="0">a</tspan><tspan class="cls-56" x="152.63" y="0">c</tspan><tspan class="cls-57" x="160.2" y="0">y</tspan></text><text class="cls-58" transform="translate(95.65 465.48)">C<tspan class="cls-59" x="12.24" y="0">k</tspan><tspan x="20.96" y="0">a</tspan><tspan class="cls-60" x="31.78" y="0">e</tspan><tspan x="41.74" y="0">s | </tspan><tspan class="cls-61" x="62.26" y="0">M</tspan><tspan x="77.15" y="0">eatpie | Doughnuts | </tspan><tspan class="cls-60" x="244.83" y="0">C</tspan><tspan x="257.02" y="0">up</tspan><tspan class="cls-62" x="277.74" y="0">c</tspan><tspan x="287.36" y="0">a</tspan><tspan class="cls-63" x="298.18" y="0">k</tspan><tspan class="cls-64" x="306.9" y="0">e</tspan><tspan x="316.86" y="0">s </tspan><tspan x="60.07" y="19.2">| </tspan><tspan class="cls-64" x="68.7" y="19.2">S</tspan><tspan x="78.34" y="19.2">mall Cho</tspan><tspan class="cls-65" x="150.7" y="19.2">p</tspan><tspan x="161.53" y="19.2">s | Chin-Chin</tspan></text><rect class="cls-23" width="502.17" height="674.14"/></g></g></svg>