<?xml version="1.0" encoding="UTF-8"?>
<svg id="Layer_2" data-name="Layer 2" xmlns="http://www.w3.org/2000/svg" viewBox="0 0 100 100">
  <defs>
    <style>
      .cls-1 {
        fill: #172d54;
      }

      .cls-1, .cls-2 {
        stroke-width: 0px;
      }

      .cls-2 {
        fill: none;
      }
    </style>
  </defs>
  <g id="Layer_1-2" data-name="Layer 1">
    <g>
      <rect class="cls-2" width="100" height="100"/>
      <g>
        <path class="cls-1" d="M36.21,54.11c-.12,2.29-1.9,4.11-4.3,4.07-2.28-.04-4.17-2.06-4.07-4.25.11-2.46,2.05-4.24,4.46-4.11,2.2.11,4.02,2.11,3.91,4.29Z"/>
        <path class="cls-1" d="M78.5,11.19H21.5c-5.69,0-10.31,4.62-10.31,10.31v57c0,5.69,4.62,10.31,10.31,10.31h57c5.69,0,10.31-4.62,10.31-10.31V21.5c0-5.69-4.62-10.31-10.31-10.31ZM43.08,64.55h-6.81c-.11-.29.01-.6-.08-.84-4.63,1.41-9.39.72-12.42-3.35-1.75-2.37-2.7-5.27-2.11-8.21.57-2.78,2.28-5.45,4.68-6.97,2.9-1.84,6.59-2.12,9.77-.84.13-.19.08-.55.09-.77h6.88v20.98ZM54.11,64.55h-6.83v-26.04c2.27-1.02,4.53-2.03,6.83-3.06v29.1ZM73.73,60.1c-1.9-1.95-3.84-3.93-5.8-5.94-2.01,2.01-3.96,3.97-5.89,5.89-1.58-1.58-3.14-3.14-4.71-4.71l5.89-5.89c-2.03-1.99-4.02-3.92-5.98-5.83,1.64-1.63,3.19-3.19,4.78-4.78,1.92,1.89,3.89,3.83,5.87,5.78,1.98-1.99,3.94-3.95,5.87-5.89,1.61,1.61,3.17,3.18,4.74,4.74-1.91,1.91-3.87,3.87-5.87,5.87,2.01,2.04,3.96,4.02,5.89,5.98-1.59,1.58-3.15,3.14-4.79,4.78Z"/>
      </g>
    </g>
  </g>
</svg>