<?xml version="1.0" encoding="UTF-8"?>
<svg id="Layer_2" data-name="Layer 2" xmlns="http://www.w3.org/2000/svg" viewBox="0 0 100 100">
  <defs>
    <style>
      .cls-1, .cls-2, .cls-3, .cls-4 {
        stroke-width: 0px;
      }

      .cls-2 {
        fill: none;
      }

      .cls-3 {
        fill: #fe9b00;
      }

      .cls-4 {
        fill: #27303e;
      }
    </style>
  </defs>
  <g id="Layer_1-2" data-name="Layer 1">
    <g>
      <rect class="cls-2" width="100" height="100"/>
      <g>
        <path class="cls-3" d="M10.69,57.74c.37-.74.69-.88,1.42-.56.78.35,1.58.68,2.33,1.09,3.59,1.96,7.39,3.42,11.26,4.71,2.45.81,4.94,1.45,7.44,2.02,2.56.58,5.15,1.02,7.77,1.32,3.56.4,7.12.7,10.7.65,3.28-.04,6.54-.37,9.8-.75,2.59-.31,5.14-.83,7.67-1.43,3.88-.91,7.7-2.04,11.36-3.67.93-.41,1.57-.08,2.06,1.05-.09.54-.42.92-.89,1.23-3.68,2.46-7.62,4.38-11.82,5.8-2.27.77-4.57,1.48-6.9,1.94-2.8.55-5.62,1.09-8.49,1.22-1.71.08-3.43.15-5.14.14-2.93-.02-5.84-.29-8.74-.7-4.35-.62-8.54-1.8-12.64-3.35-3.8-1.44-7.36-3.34-10.77-5.54-1.86-1.2-3.62-2.54-5.33-3.95-.4-.33-.84-.66-1.07-1.23Z"/>
        <path class="cls-4" d="M50.98,33.78c-.89,3.58-1.78,7.16-2.67,10.74-.39,1.55-.76,3.1-1.19,4.63-.3,1.1-.65,1.34-1.77,1.35-.65,0-1.3.01-1.95,0-1.07-.03-1.41-.27-1.75-1.29-1.04-3.2-2.06-6.41-3.09-9.62-1-3.15-2-6.3-3-9.46-.17-.53-.43-1.05-.2-1.59.27-.36.63-.39.99-.39.62,0,1.24,0,1.86,0,1.3.01,1.63.23,2,1.54.42,1.47.79,2.97,1.18,4.45.96,3.59,1.92,7.19,2.88,10.78.03.11.08.22.16.44.49-1.39.75-2.74,1.08-4.05.6-2.37,1.15-4.76,1.73-7.14.38-1.55.79-3.09,1.17-4.64.25-1.02.6-1.33,1.65-1.37.65-.03,1.3-.03,1.95,0,1.17.04,1.5.31,1.78,1.45,1.25,5.04,2.5,10.09,3.75,15.13.06.25.08.51.28.77.53-1.39.83-2.81,1.21-4.19,1.04-3.79,2.04-7.58,3.07-11.37.41-1.53.71-1.76,2.29-1.78.65,0,1.3,0,1.95.03.14,0,.28.08.38.12.5.5.27,1.02.11,1.52-.87,2.67-1.74,5.33-2.61,8-1.18,3.62-2.36,7.24-3.54,10.86-.08.25-.21.49-.27.75-.21.79-.78,1.07-1.53,1.08-.53,0-1.07,0-1.6,0-1.74,0-2-.18-2.44-1.9-.51-2-1-4.01-1.5-6.02-.74-2.95-1.48-5.89-2.23-8.84-.05,0-.1,0-.15,0Z"/>
        <path class="cls-4" d="M31.06,29.76c.2.56.67.97.93,1.5.62,1.27.91,2.61.92,4.02.02,2.74.08,5.48.08,8.23,0,1.48.28,2.87,1,4.17.48.87.36,1.25-.44,1.77-.45.29-.88.59-1.35.85-.77.42-1.19.33-1.81-.29-.64-.63-1.07-1.4-1.5-2.16-.35,0-.48.27-.67.44-2.81,2.54-6.07,3.3-9.72,2.38-2.57-.65-4.32-2.98-4.54-5.62-.37-4.55,2.93-7.08,6.49-7.69,2.25-.39,4.48-.13,6.7.27.4.07.79.25,1.33.15-.19-1.5.16-3.04-.52-4.5-.52-1.12-1.46-1.67-2.62-1.9-2.39-.48-4.71-.13-6.98.63-.45.15-.88.34-1.33.49-.42.13-.84.33-1.27.07-.77-1.36-.39-2.86.94-3.5,1.64-.79,3.39-1.24,5.2-1.4,2.37-.2,4.73-.19,6.98.76.8.34,1.43.93,2.18,1.33h0ZM28.43,40.96c-1.57-.52-4.98-.76-6.45-.45-.37.08-.75.17-1.11.31-2.2.82-2.98,3.93-1.43,5.7.44.51,1.01.8,1.67.92.88.15,1.75.19,2.64,0,3.66-.74,5.12-2.9,4.68-6.48Z"/>
        <path class="cls-4" d="M83.27,49.44c-1.36.72-2.77,1.34-4.32,1.53-3.05.38-6.02.05-8.88-1.12-1.3-.53-1.81-1.9-1.3-3.26.18-.47.54-.62,1-.48.56.18,1.11.41,1.67.6,2.4.81,4.85.99,7.35.61.67-.1,1.23-.41,1.76-.8,1.57-1.18,1.36-3.44-.42-4.29-1.69-.81-3.51-1.24-5.3-1.75-1.27-.36-2.47-.86-3.5-1.67-3.53-2.81-2.96-7.95,1.1-10.08,2.67-1.4,5.49-1.47,8.38-.89.96.19,1.92.39,2.8.84,1.34.68,1.7,2.22.84,3.53-.55.23-1.04-.03-1.52-.23-2.11-.85-4.28-1.12-6.52-.77-.56.09-1.1.23-1.6.5-1.55.85-1.73,2.92-.35,4.01.63.5,1.37.82,2.13,1.06,1.63.52,3.29.96,4.91,1.53,1.46.52,2.82,1.21,3.69,2.6,1.61,2.57,1.1,5.88-1.21,7.86-.25.21-.47.45-.7.67h0Z"/>
        <path class="cls-3" d="M83.04,69.28c-.28-.52-.02-.97.19-1.42.87-1.91,1.55-3.89,2.05-5.93.11-.46.17-.93.21-1.4.07-.84-.4-1.54-1.23-1.68-1.34-.23-2.67-.4-4.05-.26-1.53.15-3.06.25-4.59.42-.47.05-.98.06-1.11-.63.45-.91,1.38-1.28,2.22-1.62,3.46-1.39,7.05-1.67,10.7-.95,1.67.33,1.92.68,1.88,2.35-.06,2.56-.81,4.93-2.03,7.17-.78,1.43-1.69,2.77-3.02,3.76-.36.27-.74.52-1.21.18Z"/>
        <path class="cls-1" d="M31.06,29.76h0s0,0,0,0Z"/>
        <path class="cls-1" d="M83.26,49.44h0s0,0,0,0Z"/>
      </g>
    </g>
  </g>
</svg>