<?xml version="1.0" encoding="UTF-8"?>
<svg id="Layer_2" data-name="Layer 2" xmlns="http://www.w3.org/2000/svg" viewBox="0 0 100 100">
  <defs>
    <style>
      .cls-1 {
        fill: #f14e1e;
      }

      .cls-1, .cls-2, .cls-3, .cls-4, .cls-5, .cls-6, .cls-7 {
        stroke-width: 0px;
      }

      .cls-2 {
        fill: #a259ff;
      }

      .cls-3 {
        fill: none;
      }

      .cls-4 {
        fill: #fe7162;
      }

      .cls-5 {
        fill: #1abcfe;
      }

      .cls-6 {
        fill: #0acf83;
      }

      .cls-7 {
        fill: #2c2d35;
      }
    </style>
  </defs>
  <g id="Layer_1-2" data-name="Layer 1">
    <g>
      <g>
        <rect class="cls-7" x="12.74" y="12.74" width="74.52" height="74.52" rx="15.78" ry="15.78"/>
        <path class="cls-4" d="M68.84,31.41c0,2.51-1.02,4.79-2.67,6.44-1.65,1.65-3.92,2.67-6.44,2.67h-9.57v-18.23h9.57c5.03,0,9.11,4.08,9.11,9.12Z"/>
        <path class="cls-1" d="M50.16,22.29v18.23h-9.58c-5.03,0-9.11-4.08-9.11-9.11,0-2.52,1.02-4.8,2.67-6.45,1.65-1.65,3.93-2.67,6.44-2.67h9.58Z"/>
        <path class="cls-2" d="M50.16,40.69v18.23h-9.58c-5.03,0-9.11-4.08-9.11-9.11,0-2.52,1.02-4.8,2.67-6.45,1.65-1.65,3.93-2.67,6.44-2.67h9.58Z"/>
        <path class="cls-6" d="M50.16,58.92v8.97c0,5.12-4.15,9.26-9.26,9.26h0c-5.08,0-9.49-4.16-9.43-9.24.03-2.47,1.05-4.7,2.67-6.32,1.65-1.65,3.93-2.67,6.44-2.67h9.58Z"/>
        <circle class="cls-5" cx="59.21" cy="49.81" r="9.11"/>
      </g>
      <rect class="cls-3" width="100" height="100"/>
    </g>
  </g>
</svg>