<?xml version="1.0" encoding="UTF-8"?>
<svg id="Layer_2" data-name="Layer 2" xmlns="http://www.w3.org/2000/svg" viewBox="0 0 99.87 99.87">
  <defs>
    <style>
      .cls-1 {
        fill: #f0652a;
      }

      .cls-1, .cls-2, .cls-3, .cls-4, .cls-5, .cls-6, .cls-7 {
        stroke-width: 0px;
      }

      .cls-2 {
        fill: #020202;
      }

      .cls-3 {
        fill: #030303;
      }

      .cls-4 {
        fill: none;
      }

      .cls-5 {
        fill: #e34d26;
      }

      .cls-6 {
        fill: #fdfdfd;
      }

      .cls-7 {
        fill: #eae9e9;
      }
    </style>
  </defs>
  <g id="Layer_1-2" data-name="Layer 1">
    <g>
      <rect class="cls-4" width="99.87" height="99.87"/>
      <g>
        <path class="cls-6" d="M71.87,31.64H26.56c1.37,15.41,2.75,30.79,4.12,46.17.14.05.26.1.39.14,5.9,1.64,11.79,3.27,17.68,4.91.31.09.6.08.91-.01,4.37-1.22,8.73-2.42,13.1-3.63,1.65-.46,3.3-.92,4.99-1.39,1.37-15.39,2.75-30.77,4.12-46.19Z"/>
        <path class="cls-3" d="M59.35,19.04v8.61h-2.82v-4.1s-.07-.03-.11-.04c-.63.97-1.26,1.94-1.93,2.98-.66-1.02-1.3-1.99-2.01-3.08v4.25h-2.77c-.1-.19-.06-.38-.06-.55,0-2.51,0-5.01,0-7.52,0-.18-.03-.36-.04-.53,1.02,0,2.03,0,3.05,0,.61.99,1.21,1.98,1.85,3.03.61-1.06,1.28-2,1.79-3.03h3.05Z"/>
        <path class="cls-2" d="M39.17,19.04v8.61h-2.86v-2.84h-2.64v2.83h-2.87c-.01-.12-.03-.23-.03-.34,0-2.65,0-5.31,0-7.96,0-.1.02-.19.03-.29.95,0,1.9,0,2.85,0v2.82h2.66v-2.82h2.85Z"/>
        <path class="cls-2" d="M48.42,19.04v2.84h-2.57v5.76h-2.88v-5.74h-2.53v-2.86h7.97Z"/>
        <path class="cls-2" d="M63.68,19.04v5.78h4.03v2.81h-6.88v-8.59h2.85Z"/>
        <path class="cls-5" d="M71.87,31.64c-1.38,15.41-2.75,30.79-4.12,46.19-1.68.47-3.34.93-4.99,1.39-4.37,1.21-8.73,2.42-13.1,3.63-.31.09-.59.1-.91.01-5.89-1.64-11.79-3.28-17.68-4.91-.12-.03-.24-.09-.39-.14-1.37-15.38-2.74-30.76-4.12-46.17h45.31ZM49.21,67.22c-1.13-.19-2.21-.57-3.32-.85-1.01-.26-2.02-.54-3.03-.81-.14-1.53-.27-3-.41-4.5h-5.69c.27,2.98.53,5.94.79,8.88,3.93,1.09,7.79,2.15,11.65,3.22v5.87c.29-.07.49-.12.69-.18,2.5-.69,5-1.39,7.5-2.08,2.15-.6,4.31-1.19,6.46-1.78.23-.06.39-.22.38-.45-.03-.49.09-.97.12-1.46.05-.86.13-1.72.21-2.58.12-1.34.26-2.69.38-4.03.08-.89.14-1.79.22-2.68.12-1.3.25-2.59.37-3.89.08-.89.14-1.79.22-2.68.12-1.36.25-2.72.38-4.08.08-.84.14-1.69.22-2.53.12-1.33.25-2.66.37-3.98.08-.86.14-1.72.21-2.58.12-1.36.25-2.72.38-4.08.09-.91.22-1.81.26-2.72.03-.61.18-1.22.1-1.84h-18.46c0,1.9,0,3.77,0,5.63-.2,0-.39.02-.59.02-4.34,0-8.68,0-13.03,0-.19,0-.39-.06-.61.09.51,5.66,1.01,11.34,1.52,17.04,2.71,0,5.35,0,7.98,0,1.57,0,3.14.01,4.72.02v9.01Z"/>
        <path class="cls-1" d="M49.22,41.04v-5.63h18.46c.09.62-.07,1.23-.1,1.84-.04.91-.18,1.81-.26,2.72-.13,1.36-.26,2.72-.38,4.08-.08.86-.14,1.72-.21,2.58-.12,1.33-.25,2.66-.37,3.98-.08.84-.14,1.69-.22,2.53-.12,1.36-.26,2.72-.38,4.08-.08.89-.13,1.79-.22,2.68-.12,1.3-.25,2.59-.37,3.89-.08.89-.14,1.79-.22,2.68-.12,1.34-.25,2.69-.38,4.03-.08.86-.16,1.72-.21,2.58-.03.49-.14.97-.12,1.46.01.23-.15.39-.38.45-2.15.59-4.31,1.19-6.46,1.78-2.5.69-5,1.39-7.5,2.08-.2.06-.41.11-.69.18v-5.87s0-.04,0-.04c.08-.01.16-.01.24-.04,3.21-.89,6.43-1.78,9.64-2.67.58-.16,1.15-.32,1.73-.48.52-5.81,1.03-11.57,1.55-17.39h-.58c-4.03,0-8.06,0-12.09,0-.16,0-.33.02-.49.03,0-.02,0-.05,0-.07,0-1.91,0-3.82,0-5.73,0-.02,0-.05,0-.07.08,0,.16.03.24.03,4.36,0,8.73,0,13.09,0,.11,0,.23.03.35-.11.16-1.81.33-3.66.5-5.54h-.61c-3.4,0-6.79,0-10.19,0-1.13,0-2.26.01-3.39.02v-.04Z"/>
        <path class="cls-7" d="M49.22,58.22c-1.57,0-3.14-.02-4.72-.02-2.64,0-5.27,0-7.98,0-.51-5.7-1.02-11.38-1.52-17.04.21-.15.42-.09.61-.09,4.34,0,8.68,0,13.03,0,.2,0,.39-.01.59-.02,0,0,0,.04,0,.04,0,1.87,0,3.74,0,5.61,0,.02,0,.05,0,.07-.08-.01-.16-.04-.24-.04-2.46,0-4.92,0-7.38,0-.12,0-.27-.02-.4.15.17,1.85.34,3.75.51,5.67,2.42,0,4.75,0,7.08,0,.15,0,.29-.03.44-.04,0,.02,0,.05,0,.07,0,1.87,0,3.74,0,5.61v.04Z"/>
        <path class="cls-7" d="M49.22,73.17c-3.86-1.07-7.72-2.13-11.65-3.22-.26-2.95-.53-5.9-.79-8.88h5.69c.14,1.49.27,2.97.41,4.5,1.01.27,2.02.55,3.03.81,1.11.29,2.19.66,3.32.85v.04c0,1.95,0,3.91,0,5.86v.04Z"/>
        <path class="cls-1" d="M49.21,67.22c0-3,0-6,0-9.01,0,0,0-.04,0-.04h6.97c-.23,2.52-.44,4.94-.66,7.38-2.12.58-4.22,1.14-6.31,1.71,0,0,0-.04,0-.04Z"/>
        <path class="cls-6" d="M49.21,67.27c2.09-.57,4.19-1.14,6.31-1.71.22-2.44.44-4.86.66-7.38h-6.97c0-1.87,0-3.74,0-5.61.16,0,.33-.03.49-.03,4.03,0,8.06,0,12.09,0h.58c-.52,5.82-1.03,11.58-1.55,17.39-.58.16-1.15.32-1.73.48-3.21.89-6.43,1.78-9.64,2.67-.08.02-.16.02-.24.04,0-1.95,0-3.91,0-5.86Z"/>
        <path class="cls-6" d="M49.22,46.69c0-1.87,0-3.74,0-5.61,1.13,0,2.26-.02,3.39-.02,3.4,0,6.79,0,10.19,0h.61c-.17,1.89-.33,3.73-.5,5.54-.12.14-.24.11-.35.11-4.36,0-8.73,0-13.09,0-.08,0-.16-.02-.24-.03Z"/>
        <path class="cls-5" d="M49.22,52.49c-.15.02-.29.04-.44.04-2.33,0-4.66,0-7.08,0-.17-1.92-.34-3.82-.51-5.67.14-.17.28-.15.4-.15,2.46,0,4.92,0,7.38,0,.08,0,.16.03.24.04,0,1.91,0,3.82,0,5.73Z"/>
      </g>
    </g>
  </g>
</svg>