<?xml version="1.0" encoding="UTF-8"?>
<svg id="Layer_2" data-name="Layer 2" xmlns="http://www.w3.org/2000/svg" viewBox="0 0 99.87 99.87">
  <defs>
    <style>
      .cls-1 {
        fill: #f6d066;
      }

      .cls-1, .cls-2, .cls-3, .cls-4, .cls-5, .cls-6 {
        stroke-width: 0px;
      }

      .cls-1, .cls-3, .cls-4, .cls-5 {
        opacity: .8;
      }

      .cls-2 {
        fill: none;
      }

      .cls-3 {
        fill: #89d8e4;
      }

      .cls-4 {
        fill: #8f76eb;
      }

      .cls-5 {
        fill: #ea799b;
      }

      .cls-6 {
        fill: #252142;
      }
    </style>
  </defs>
  <g id="Layer_1-2" data-name="Layer 1">
    <g>
      <g>
        <g>
          <path class="cls-3" d="M48.47,30.72l8.84-8.62,11.87,11.87c2.41,2.41,2.45,6.3.09,8.75h0c-2.44,2.55-6.51,2.57-8.98.05l-11.82-12.05Z"/>
          <path class="cls-4" d="M42.91,14.56l8.62,8.84-11.87,11.87c-2.41,2.41-6.3,2.45-8.75.09h0c-2.55-2.44-2.57-6.51-.05-8.98l12.05-11.82Z"/>
          <path class="cls-5" d="M51.53,38.61l-8.84,8.62-11.87-11.87c-2.41-2.41-2.45-6.3-.09-8.75h0c2.44-2.55,6.51-2.57,8.98-.05l11.82,12.05Z"/>
          <path class="cls-1" d="M57.09,54.69l-8.62-8.84,11.87-11.87c2.41-2.41,6.3-2.45,8.75-.09h0c2.55,2.44,2.57,6.51.05,8.98l-12.05,11.82Z"/>
        </g>
        <g>
          <path class="cls-6" d="M13.58,67.38l1.36-1.78c.83.98,1.84,1.48,3.04,1.48.85,0,1.47-.39,1.47-1.01,0-.41-.32-.76-.97-1.04l-1-.36c-.63-.24-1.12-.45-1.43-.62-1.19-.65-1.8-1.6-1.8-2.82,0-.97.36-1.77,1.1-2.4s1.71-.95,2.87-.95c1.48,0,2.75.5,3.79,1.48l-1.24,1.86c-.65-.62-1.69-1-2.52-1s-1.33.38-1.33.92c0,.38.3.71.91.98l1.09.44c.57.23,1,.39,1.28.53,1.34.6,2.01,1.56,2.01,2.84,0,1.01-.39,1.86-1.18,2.51-.77.65-1.8.98-3.07.98-1.77,0-3.35-.71-4.38-2.02Z"/>
          <path class="cls-6" d="M23.02,69.2v-11.49h2.31v4.32c.44-.74,1.4-1.33,2.61-1.33.89,0,1.65.3,2.27.89.62.59.94,1.45.94,2.55v5.06h-2.37v-4.44c0-1.21-.62-1.89-1.6-1.89-1.07,0-1.78.79-1.78,1.95v4.38h-2.37Z"/>
          <path class="cls-6" d="M40.39,65.87h-6.09c.29,1.04,1.04,1.56,2.25,1.56.94,0,1.8-.27,2.58-.8l.94,1.62c-1.01.77-2.22,1.15-3.62,1.15s-2.58-.42-3.37-1.25c-.77-.83-1.16-1.86-1.16-3.08s.41-2.28,1.21-3.1c.8-.83,1.86-1.24,3.16-1.24,1.22,0,2.22.38,3.01,1.12.78.74,1.18,1.75,1.18,3.04,0,.29-.03.62-.08,1ZM34.29,64.18h3.9c-.23-.95-.92-1.54-1.9-1.54s-1.74.57-1.99,1.54Z"/>
          <path class="cls-6" d="M42.61,67.79c-1.1-1.07-1.65-2.45-1.65-4.12s.56-3.08,1.68-4.17c1.13-1.1,2.49-1.65,4.09-1.65,1.99,0,3.78.89,4.79,2.27l-1.63,1.66c-.85-1.01-1.86-1.53-3.02-1.53-.92,0-1.71.32-2.36.97-.65.65-.97,1.45-.97,2.43s.32,1.75.95,2.39c.63.63,1.42.95,2.36.95,1.21,0,2.23-.51,3.1-1.54l1.68,1.57c-1.03,1.39-2.85,2.36-4.92,2.36-1.63,0-2.99-.53-4.09-1.59Z"/>
          <path class="cls-6" d="M52.94,68.18c-.83-.85-1.24-1.89-1.24-3.11s.41-2.27,1.24-3.1c.83-.85,1.9-1.27,3.22-1.27s2.4.42,3.23,1.27c.83.83,1.25,1.87,1.25,3.1s-.42,2.27-1.25,3.11c-.83.83-1.92,1.25-3.23,1.25s-2.39-.42-3.22-1.25ZM57.65,63.54c-.41-.42-.91-.63-1.5-.63s-1.09.21-1.5.63c-.41.41-.6.92-.6,1.51,0,.62.2,1.13.6,1.56.41.41.91.62,1.5.62s1.09-.21,1.5-.62c.41-.42.62-.94.62-1.56s-.21-1.1-.62-1.51Z"/>
          <path class="cls-6" d="M67.53,57.71h2.37v11.49h-2.3v-.89c-.65.74-1.47,1.1-2.46,1.1-1.16,0-2.13-.41-2.92-1.24-.77-.83-1.16-1.86-1.16-3.11s.39-2.27,1.16-3.1c.78-.83,1.75-1.25,2.92-1.25.94,0,1.74.33,2.39,1.01v-4.02ZM67.04,63.51c-.39-.42-.89-.63-1.51-.63s-1.12.21-1.53.63c-.39.42-.59.94-.59,1.54s.2,1.15.59,1.57c.41.42.91.63,1.53.63s1.12-.21,1.51-.63c.41-.42.6-.95.6-1.57s-.2-1.12-.6-1.54Z"/>
          <path class="cls-6" d="M79.24,65.87h-6.09c.29,1.04,1.04,1.56,2.25,1.56.94,0,1.8-.27,2.58-.8l.94,1.62c-1.01.77-2.22,1.15-3.62,1.15s-2.58-.42-3.37-1.25c-.77-.83-1.16-1.86-1.16-3.08s.41-2.28,1.21-3.1c.8-.83,1.86-1.24,3.16-1.24,1.22,0,2.22.38,3.01,1.12.78.74,1.18,1.75,1.18,3.04,0,.29-.03.62-.08,1ZM73.14,64.18h3.9c-.23-.95-.92-1.54-1.9-1.54s-1.74.57-1.99,1.54Z"/>
          <path class="cls-6" d="M79.48,67.91l1.16-1.54c.71.72,1.5,1.09,2.37,1.09.59,0,1.01-.26,1.01-.66,0-.24-.17-.44-.51-.6-.12-.06-.45-.18-.98-.36-.53-.2-.89-.33-1.07-.42-.98-.47-1.48-1.21-1.48-2.19,0-.76.29-1.37.88-1.84.59-.47,1.37-.71,2.36-.71,1.19,0,2.19.38,2.99,1.15l-1.1,1.54c-.62-.51-1.27-.77-1.93-.77-.53,0-.86.24-.86.59,0,.3.24.53.74.69.89.29,1.54.53,1.96.76.94.5,1.4,1.19,1.4,2.11,0,.77-.32,1.42-.94,1.93s-1.43.77-2.46.77c-1.47,0-2.64-.51-3.53-1.53Z"/>
        </g>
        <g>
          <path class="cls-6" d="M36.19,78.42c-.36-.36-.79-.54-1.31-.54s-.94.18-1.31.54c-.35.35-.53.8-.53,1.34s.18.97.53,1.33c.35.36.79.53,1.31.53s.96-.17,1.32-.53c.35-.36.53-.8.52-1.33,0-.54-.17-1-.53-1.34ZM36.19,78.42c-.36-.36-.79-.54-1.31-.54s-.94.18-1.31.54c-.35.35-.53.8-.53,1.34s.18.97.53,1.33c.35.36.79.53,1.31.53s.96-.17,1.32-.53c.35-.36.53-.8.52-1.33,0-.54-.17-1-.53-1.34ZM36.19,78.42c-.36-.36-.79-.54-1.31-.54s-.94.18-1.31.54c-.35.35-.53.8-.53,1.34s.18.97.53,1.33c.35.36.79.53,1.31.53s.96-.17,1.32-.53c.35-.36.53-.8.52-1.33,0-.54-.17-1-.53-1.34ZM41.15,77.9h-1.06v1.59h.96c.61,0,.92-.35.92-.8s-.31-.79-.81-.79ZM41.15,77.9h-1.06v1.59h.96c.61,0,.92-.35.92-.8s-.31-.79-.81-.79ZM36.19,78.42c-.36-.36-.79-.54-1.31-.54s-.94.18-1.31.54c-.35.35-.53.8-.53,1.34s.18.97.53,1.33c.35.36.79.53,1.31.53s.96-.17,1.32-.53c.35-.36.53-.8.52-1.33,0-.54-.17-1-.53-1.34ZM36.19,78.42c-.36-.36-.79-.54-1.31-.54s-.94.18-1.31.54c-.35.35-.53.8-.53,1.34s.18.97.53,1.33c.35.36.79.53,1.31.53s.96-.17,1.32-.53c.35-.36.53-.8.52-1.33,0-.54-.17-1-.53-1.34ZM41.15,77.9h-1.06v1.59h.96c.61,0,.92-.35.92-.8s-.31-.79-.81-.79ZM41.15,77.9h-1.06v1.59h.96c.61,0,.92-.35.92-.8s-.31-.79-.81-.79ZM36.19,78.42c-.36-.36-.79-.54-1.31-.54s-.94.18-1.31.54c-.35.35-.53.8-.53,1.34s.18.97.53,1.33c.35.36.79.53,1.31.53s.96-.17,1.32-.53c.35-.36.53-.8.52-1.33,0-.54-.17-1-.53-1.34ZM36.19,78.42c-.36-.36-.79-.54-1.31-.54s-.94.18-1.31.54c-.35.35-.53.8-.53,1.34s.18.97.53,1.33c.35.36.79.53,1.31.53s.96-.17,1.32-.53c.35-.36.53-.8.52-1.33,0-.54-.17-1-.53-1.34ZM41.15,77.9h-1.06v1.59h.96c.61,0,.92-.35.92-.8s-.31-.79-.81-.79ZM69.57,77.9h-1.02v1.69h.96c.59,0,.92-.37.92-.85s-.32-.84-.85-.84ZM69.57,77.9h-1.02v1.69h.96c.59,0,.92-.37.92-.85s-.32-.84-.85-.84ZM41.15,77.9h-1.06v1.59h.96c.61,0,.92-.35.92-.8s-.31-.79-.81-.79ZM36.19,78.42c-.36-.36-.79-.54-1.31-.54s-.94.18-1.31.54c-.35.35-.53.8-.53,1.34s.18.97.53,1.33c.35.36.79.53,1.31.53s.96-.17,1.32-.53c.35-.36.53-.8.52-1.33,0-.54-.17-1-.53-1.34ZM80.85,74.32H19.15c-.88,0-1.59.71-1.59,1.59v7.92c0,.88.71,1.6,1.59,1.6h61.7c.88,0,1.59-.72,1.59-1.6v-7.92c0-.88-.71-1.59-1.59-1.59ZM29.68,82.7h-1l-1.25-3.85-1.24,3.85h-1l-1.95-5.88h1.29l1.19,3.95,1.33-3.95h.75l1.36,3.95,1.16-3.95h1.29l-1.94,5.88ZM37.06,81.91c-.58.58-1.31.88-2.17.88s-1.6-.28-2.18-.87c-.58-.58-.88-1.29-.88-2.15s.3-1.58.89-2.17,1.32-.89,2.17-.89,1.59.3,2.17.89c.59.59.89,1.31.89,2.16s-.3,1.55-.89,2.15ZM42.03,82.7l-1.24-2.15h-.7v2.15h-1.18v-5.88h2.25c.65,0,1.15.18,1.49.54.35.36.52.79.52,1.32,0,.76-.39,1.43-1.19,1.72l1.42,2.3h-1.37ZM47.81,82.7l-1.63-2.34-.72.87v1.47h-1.18v-5.88h1.18v2.78l2.22-2.78h1.42l-2.15,2.67,2.3,3.2h-1.45ZM52.98,82.28c-.4.34-.92.5-1.56.5-.92,0-1.74-.39-2.22-1.1l.67-.81c.39.53.96.81,1.56.81.48,0,.84-.26.84-.63,0-.23-.18-.44-.53-.61-.08-.04-.27-.1-.58-.23-.3-.12-.53-.23-.7-.31-.62-.36-.93-.84-.93-1.46,0-.5.19-.9.56-1.23.37-.32.87-.49,1.45-.49.76,0,1.41.26,1.94.79l-.63.87c-.32-.35-.85-.56-1.28-.56-.48,0-.76.22-.76.57,0,.23.17.41.48.58l.58.25c.32.14.57.25.71.31.67.34,1.01.81,1.01,1.47,0,.52-.21.94-.59,1.28ZM59.32,82.7h-1.18v-2.4h-2.46v2.4h-1.18v-5.88h1.18v2.35h2.46v-2.35h1.18v5.88ZM63.35,82.84c-1.71,0-3.09-1.38-3.09-3.09s1.38-3.09,3.09-3.09,3.09,1.38,3.09,3.09-1.38,3.09-3.09,3.09ZM71.08,80.13c-.36.36-.89.54-1.62.54h-.92v2.03h-1.18v-5.88h2.17c.7,0,1.21.19,1.55.57.35.37.53.83.53,1.37s-.18,1.01-.54,1.37ZM75.72,82.28c-.4.34-.92.5-1.56.5-.9,0-1.73-.39-2.22-1.1l.67-.81c.39.53.96.81,1.56.81.48,0,.84-.26.84-.63,0-.23-.17-.44-.53-.61-.08-.04-.27-.1-.58-.23-.3-.12-.53-.23-.68-.31-.62-.36-.93-.84-.93-1.46,0-.5.18-.9.56-1.23.37-.32.85-.49,1.45-.49.76,0,1.4.26,1.93.79l-.63.87c-.32-.35-.84-.56-1.28-.56-.47,0-.76.22-.76.57,0,.23.17.41.48.58l.58.25c.32.14.57.25.72.31.66.34.99.81.99,1.47,0,.52-.19.94-.59,1.28ZM69.57,77.9h-1.02v1.69h.96c.59,0,.92-.37.92-.85s-.32-.84-.85-.84ZM41.15,77.9h-1.06v1.59h.96c.61,0,.92-.35.92-.8s-.31-.79-.81-.79ZM34.89,77.88c-.52,0-.94.18-1.31.54-.35.35-.53.8-.53,1.34s.18.97.53,1.33c.35.36.79.53,1.31.53s.96-.17,1.32-.53c.35-.36.53-.8.52-1.33,0-.54-.17-1-.53-1.34-.36-.36-.79-.54-1.31-.54ZM36.19,78.42c-.36-.36-.79-.54-1.31-.54s-.94.18-1.31.54c-.35.35-.53.8-.53,1.34s.18.97.53,1.33c.35.36.79.53,1.31.53s.96-.17,1.32-.53c.35-.36.53-.8.52-1.33,0-.54-.17-1-.53-1.34ZM41.15,77.9h-1.06v1.59h.96c.61,0,.92-.35.92-.8s-.31-.79-.81-.79ZM41.15,77.9h-1.06v1.59h.96c.61,0,.92-.35.92-.8s-.31-.79-.81-.79ZM36.19,78.42c-.36-.36-.79-.54-1.31-.54s-.94.18-1.31.54c-.35.35-.53.8-.53,1.34s.18.97.53,1.33c.35.36.79.53,1.31.53s.96-.17,1.32-.53c.35-.36.53-.8.52-1.33,0-.54-.17-1-.53-1.34ZM36.19,78.42c-.36-.36-.79-.54-1.31-.54s-.94.18-1.31.54c-.35.35-.53.8-.53,1.34s.18.97.53,1.33c.35.36.79.53,1.31.53s.96-.17,1.32-.53c.35-.36.53-.8.52-1.33,0-.54-.17-1-.53-1.34ZM41.15,77.9h-1.06v1.59h.96c.61,0,.92-.35.92-.8s-.31-.79-.81-.79ZM41.15,77.9h-1.06v1.59h.96c.61,0,.92-.35.92-.8s-.31-.79-.81-.79ZM36.19,78.42c-.36-.36-.79-.54-1.31-.54s-.94.18-1.31.54c-.35.35-.53.8-.53,1.34s.18.97.53,1.33c.35.36.79.53,1.31.53s.96-.17,1.32-.53c.35-.36.53-.8.52-1.33,0-.54-.17-1-.53-1.34ZM36.19,78.42c-.36-.36-.79-.54-1.31-.54s-.94.18-1.31.54c-.35.35-.53.8-.53,1.34s.18.97.53,1.33c.35.36.79.53,1.31.53s.96-.17,1.32-.53c.35-.36.53-.8.52-1.33,0-.54-.17-1-.53-1.34ZM41.15,77.9h-1.06v1.59h.96c.61,0,.92-.35.92-.8s-.31-.79-.81-.79ZM41.15,77.9h-1.06v1.59h.96c.61,0,.92-.35.92-.8s-.31-.79-.81-.79ZM36.19,78.42c-.36-.36-.79-.54-1.31-.54s-.94.18-1.31.54c-.35.35-.53.8-.53,1.34s.18.97.53,1.33c.35.36.79.53,1.31.53s.96-.17,1.32-.53c.35-.36.53-.8.52-1.33,0-.54-.17-1-.53-1.34Z"/>
          <circle class="cls-6" cx="63.36" cy="79.75" r="1.84"/>
        </g>
      </g>
      <rect class="cls-2" width="99.87" height="99.87"/>
    </g>
  </g>
</svg>