<?xml version="1.0" encoding="UTF-8"?>
<svg id="Layer_2" data-name="Layer 2" xmlns="http://www.w3.org/2000/svg" viewBox="0 0 129.05 129.05">
  <defs>
    <style>
      .cls-1 {
        fill: none;
      }

      .cls-1, .cls-2 {
        stroke-width: 0px;
      }

      .cls-2 {
        fill: #ba365f;
      }
    </style>
  </defs>
  <g id="Layer_1-2" data-name="Layer 1">
    <g>
      <rect class="cls-1" width="129.05" height="129.05"/>
      <path class="cls-2" d="M2.49,60.89c6-2.64,12.77-3.3,19.31-1.74,2.29.94,4.32,2.43,5.91,4.33,1.6,1.84,2.97,3.87,4.09,6.04,1.15,2.15,2.1,4.4,2.84,6.72.82,2.35,1.3,4.82,1.42,7.31.03.81-.2,1.61-.66,2.28-.19.24-.44.42-.72.53-.2.09-.42.12-.63.11-.2-.02-.39-.08-.57-.16-.41-.22-.76-.53-1.03-.9-.75-1.07-1.37-2.23-1.85-3.44-.95-2.29-1.71-4.65-2.28-7.07-1.11-4.79-1.8-9.78-.9-14.78.2-1.26.51-2.5.93-3.71.4-1.23.99-2.4,1.76-3.44.4-.53.89-.99,1.44-1.36.54-.37,1.12-.66,1.73-.88,1.27-.45,2.65-.48,3.93-.08,2.58.92,4.65,2.89,5.7,5.42,1.1,2.53,1.16,5.39.16,7.96-.26.64-.59,1.24-1,1.79-.41.54-.77.98-1.23,1.46-.84.94-1.76,1.8-2.76,2.57-.26.2-.54.37-.83.52-.33.19-.7.28-1.08.26-.26-.03-.49-.17-.63-.39-.11-.19-.16-.4-.15-.62,0-.19.02-.37.07-.55.07-.2.19-.39.34-.53.5-.43,1.08-.76,1.71-.98.58-.23,1.18-.42,1.79-.57,2.48-.68,5.09-.81,7.62-.37,1.33.25,2.6.73,3.77,1.41,1.19.7,2.24,1.62,3.1,2.7.83,1.06,1.49,2.24,1.97,3.51.46,1.18.83,2.38,1.11,3.61.33,1.28.46,2.6.39,3.92-.03.38-.1.75-.22,1.11-.14.47-.43.89-.83,1.18-.24.16-.52.26-.81.28-.26.02-.53-.02-.77-.12-.44-.2-.78-.55-.98-.98-.28-.65-.43-1.34-.44-2.04-.04-.62-.04-1.25,0-1.87.08-1.22.22-2.44.44-3.65.39-2.43,1.03-4.81,1.92-7.1.26-.61.59-1.19.99-1.72.23-.3.51-.56.82-.77.37-.25.79-.41,1.23-.46,1.76-.37,3.48.75,3.85,2.51,0,.03.01.06.02.1.27,1.32.33,2.68.15,4.02-.12,1.22-.29,2.39-.33,3.48-.03.5,0,1.01.06,1.51.03.2.09.4.15.6.04.12.1.23.18.33.53.49,1.27.67,1.97.48.94-.17,1.82-.59,2.54-1.22.78-.68,1.42-1.51,1.87-2.44.22-.46.46-1.04.68-1.59l.67-1.66c.44-1.11.86-2.22,1.21-3.33.17-.54.32-1.09.43-1.65.05-.26.07-.51.09-.77.01-.17,0-.34-.05-.5,0,0,.07,0-.1-.05s0,0,0,0h0c-.06.04-.11.09-.15.15-.28.43-.48.91-.59,1.42-.51,2.3-.66,4.66-.45,7,.08,1.17.27,2.33.58,3.47.15.54.36,1.06.63,1.55.2.45.58.8,1.05.96.5.03.98-.15,1.35-.5.46-.35.9-.74,1.29-1.17.81-.87,1.56-1.79,2.26-2.76,1.41-1.93,2.7-3.96,3.94-6.01,2.44-4.14,4.65-8.41,6.63-12.79.98-2.19,1.9-4.4,2.69-6.66.39-1.11.7-2.24.91-3.4.05-.27.07-.54.08-.81.01-.18-.01-.37-.08-.54,0,0,.07.09.11.09s0,0-.05,0c-.04,0-.09,0-.13,0-.21.07-.41.18-.6.31-.85.71-1.57,1.57-2.13,2.53-.62,1-1.19,2.03-1.69,3.1-1.02,2.12-1.89,4.33-2.71,6.54-1.69,4.38-2.94,8.92-3.75,13.55-.17,1.11-.25,2.23-.26,3.36-.04.95.16,1.89.58,2.74.15.24.39.4.66.47.4.1.81.13,1.22.08.97-.23,1.86-.74,2.55-1.46,1.52-1.59,2.41-3.68,2.49-5.87.1-1.07-.11-2.14-.59-3.1-.24-.46-.6-.84-1.05-1.09-.49-.26-1.05-.35-1.59-.24-.25.05-.49.18-.67.36-.06.07-.08.15-.07.24.04.06.11.11.18.13.54.17,1.11.25,1.68.24,1.19,0,2.38-.1,3.55-.28,1.17-.19,2.32-.44,3.46-.77.55-.15,1.08-.34,1.59-.58.22-.09.42-.21.6-.36.06-.05.1-.12.06-.08s-.09.29,0,.38-.04,0,0,.09c.08.06.17.09.27.09.09,0,.18-.02.26-.06.12-.09-.05.12-.12.33-.17.5-.29,1.02-.37,1.55-.18,1.12-.26,2.25-.25,3.38,0,1.1.13,2.19.39,3.25.1.43.27.84.52,1.2.07.09.16.17.26.23.1.04.21.06.32.05.35,0,.69-.11.97-.32.37-.29.68-.63.94-1.02.6-.92,1.08-1.92,1.42-2.97.75-2.23,1.33-4.52,1.74-6.83h0c0-.28.23-.51.51-.51.22,0,.42.14.49.36v.11c1.75,6.13,2.8,12.45,3.13,18.82.07,1.62.05,3.24-.07,4.86-.09,1.66-.35,3.3-.77,4.9-.41,1.71-1.22,3.31-2.37,4.64-.64.71-1.43,1.26-2.32,1.61-.86.33-1.78.48-2.69.43-.9-.02-1.79-.2-2.62-.56-.85-.38-1.57-.99-2.09-1.76-.86-1.51-1.15-3.27-.83-4.98.24-1.6.7-3.16,1.35-4.64.64-1.47,1.38-2.89,2.22-4.25,3.42-5.41,7.8-10.16,12.91-14.02,5.06-3.91,14.14-8.69,16.4-9.8s3.06,1.13.87,2.01-11.34,5.26-16.42,8.9c-2.53,1.83-4.92,3.86-7.14,6.06-2.24,2.19-4.23,4.62-5.94,7.24-1.74,2.58-2.85,5.52-3.26,8.61-.19,1.42.14,2.87.93,4.07.91,1.03,2.27,1.53,3.62,1.35,1.33-.01,2.57-.65,3.36-1.71.79-1.16,1.33-2.48,1.59-3.87.3-1.47.48-2.97.54-4.47.08-1.55.07-3.06.04-4.6-.17-6.19-1.02-12.38-1.46-18.75l1.03-.05h0c.07,2.48-.2,4.95-.77,7.36-.31,1.27-.8,2.5-1.44,3.64-.38.64-.88,1.2-1.46,1.66-.68.54-1.51.84-2.38.87-.5.02-.99-.08-1.44-.3-.43-.22-.81-.53-1.11-.92-.45-.63-.78-1.33-.96-2.08-.31-1.28-.43-2.6-.36-3.92.04-1.28.22-2.55.53-3.79.16-.66.39-1.3.69-1.91.2-.45.53-.84.94-1.11.21-.12.44-.18.68-.19.25,0,.49.07.7.2.28.19.51.46.64.77.17.4.13.87-.1,1.24-.14.23-.34.42-.57.56-.31.2-.65.35-1,.46-.61.19-1.24.34-1.87.43-1.21.19-2.44.31-3.67.35-1.22.07-2.45.07-3.67,0-.64-.02-1.26-.15-1.86-.39-.21-.08-.37-.27-.42-.49-.03-.22.04-.44.19-.6.24-.25.55-.42.89-.5.64-.18,1.32-.18,1.96,0,.68.17,1.3.55,1.76,1.08.81,1.09,1.24,2.43,1.2,3.79.11,2.67-.79,5.29-2.5,7.34-.92,1.09-2.14,1.89-3.5,2.32-.75.24-1.54.31-2.32.2-.93-.17-1.76-.68-2.32-1.44-.44-.64-.76-1.37-.94-2.13-.16-.67-.26-1.35-.29-2.04-.07-1.29-.02-2.59.15-3.87.32-2.46.84-4.9,1.55-7.28.68-2.36,1.52-4.67,2.5-6.92.98-2.26,2.11-4.45,3.4-6.55.64-1.07,1.35-2.11,2.11-3.1.77-1.05,1.72-1.96,2.79-2.7.32-.2.67-.34,1.04-.43.1-.02.21-.04.31-.05.49-.09.99.15,1.22.6.17.39.23.81.18,1.23-.03.33-.07.65-.14.98-.29,1.2-.66,2.38-1.11,3.53-.85,2.28-1.84,4.49-2.88,6.67-2.11,4.35-4.35,8.63-6.84,12.76-1.23,2.08-2.52,4.13-3.94,6.09-.72.99-1.49,1.95-2.32,2.85-.42.46-.87.89-1.36,1.28-.26.2-.55.38-.85.51-.34.17-.73.22-1.11.15-.7-.19-1.29-.67-1.61-1.32-.33-.55-.59-1.14-.77-1.76-.34-1.18-.58-2.4-.7-3.62-.14-1.22-.2-2.45-.19-3.68,0-1.24.12-2.48.33-3.71.11-.68.35-1.34.7-1.93.13-.2.29-.37.47-.5.12-.09.25-.16.39-.2.13-.05.28-.07.42-.08.26-.01.53.03.77.13.27.13.5.33.67.58.21.38.33.81.34,1.25.03.35.03.69,0,1.04-.07.63-.18,1.26-.33,1.88-.28,1.22-.63,2.39-.98,3.56l-.55,1.73c-.19.58-.36,1.13-.61,1.78-.51,1.29-1.28,2.45-2.27,3.41-1.04,1.03-2.36,1.75-3.79,2.06-.78.16-1.59.16-2.38,0-.89-.19-1.71-.65-2.32-1.32-.31-.36-.56-.77-.73-1.22-.14-.37-.25-.76-.31-1.15-.11-.69-.15-1.39-.12-2.09.05-1.32.21-2.55.36-3.72.19-1.05.28-2.11.27-3.18,0-.31-.08-.62-.26-.87-.28-.27-.65-.41-1.03-.4-.4-.04-.79.11-1.06.41-.41.37-.76.79-1.04,1.25-1.2,2.04-1.97,4.31-2.25,6.66-.17,1.18-.24,2.36-.21,3.55.02.58.08,1.16.18,1.73.08.52.25,1.02.52,1.47.12.18.25.26.29.25s.16-.05.12-.08c.09-.33.11-.67.07-1.01-.16-1.09-.46-2.15-.88-3.17-.41-1.06-.91-2.1-1.43-3.13-.45-.97-1.02-1.87-1.7-2.69-1.39-1.59-3.14-2.82-5.1-3.6-2.12-.88-4.41-1.25-6.69-1.08-.58.05-1.15.15-1.7.3-.53.13-1.04.36-1.48.69-.07.05-.12.12-.15.2-.03.11-.05.23-.05.35,0,.08.01.16.05.24,0,.04.04.05.12.05.23-.02.44-.09.63-.22.23-.15.45-.32.65-.5.82-.83,1.5-1.78,2.03-2.82.28-.51.56-1.07.77-1.55.2-.48.35-.98.46-1.49.34-2.08.15-4.2-.53-6.19-.31-1.03-.74-2.02-1.29-2.94-.53-.94-1.3-1.73-2.24-2.27-.96-.54-2.1-.63-3.13-.25-.52.19-1.01.46-1.44.82-.43.33-.79.74-1.06,1.22-1.12,1.9-1.22,4.28-1.12,6.6s.36,4.64.58,6.97.56,4.64.94,6.97.84,4.64,1.46,6.88c.28,1.07.67,2.11,1.18,3.1.11.19.28.37.24.36-.05,0-.09,0-.14,0-.06-.01-.12-.01-.19,0,0,0,0,.04,0,0,.26-.33.41-.73.43-1.15.13-1.14.1-2.3-.09-3.43-.17-1.17-.43-2.33-.77-3.47-.64-2.29-1.49-4.53-2.55-6.66-1.03-2.14-2.33-4.14-3.87-5.96-1.5-1.82-3.45-3.23-5.66-4.08-1.12-.36-2.28-.57-3.45-.62-1.19-.1-2.38-.13-3.57-.09-2.37.06-4.73.41-7.02,1.05-1.68.48-3.31,1.11-4.86,1.87-.91.5-1.87-.42-.14-1.12Z"/>
      <polygon class="cls-2" points="60.79 60.15 59.91 56.84 57.07 55.96 59.91 55.08 60.79 51 61.67 55.08 64.53 55.96 61.67 56.84 60.79 60.15"/>
      <polygon class="cls-2" points="117.23 53.05 118.46 55.31 120.72 56.55 118.46 57.78 117.23 60.04 115.99 57.78 113.73 56.55 115.99 55.31 117.23 53.05"/>
      <polygon class="cls-2" points="9.14 46.32 9.8 47.54 11.03 48.21 9.8 48.88 9.14 50.1 8.47 48.88 7.25 48.21 8.47 47.54 9.14 46.32"/>
    </g>
  </g>
</svg>